<?xml version="1.0" standalone="no"?>
<!DOCTYPE svg PUBLIC "-//W3C//DTD SVG 20010904//EN"
 "http://www.w3.org/TR/2001/REC-SVG-20010904/DTD/svg10.dtd">
<svg version="1.0" xmlns="http://www.w3.org/2000/svg"
 width="560.000000pt" height="560.000000pt" viewBox="0 0 560.000000 560.000000"
 preserveAspectRatio="xMidYMid meet">
<metadata>
Created by potrace 1.11, written by Peter Selinger 2001-2013
</metadata>
<g transform="translate(0.000000,560.000000) scale(0.100000,-0.100000)"
fill="#000000" stroke="none">
<path d="M2210 5523 c-79 -47 -173 -123 -299 -243 -66 -65 -191 -223 -232
-295 -127 -227 -169 -375 -164 -590 2 -71 6 -143 9 -160 56 -260 179 -472 390
-676 56 -54 199 -169 235 -189 12 -6 15 -29 16 -100 l1 -91 -59 -31 c-116 -62
-180 -172 -176 -300 l2 -68 -244 -142 c-134 -77 -254 -145 -266 -151 -17 -7
-28 -4 -55 16 -97 74 -247 80 -358 14 -137 -82 -194 -266 -128 -409 34 -74 76
-119 147 -157 l58 -30 0 -316 1 -315 -59 -32 c-33 -17 -74 -47 -91 -67 -114
-130 -110 -326 9 -447 122 -123 324 -131 444 -17 l27 25 158 -92 c88 -51 184
-107 216 -126 31 -19 59 -34 63 -34 3 0 22 -11 41 -24 35 -23 35 -24 38 -107
3 -100 25 -155 92 -223 67 -70 121 -91 230 -91 105 0 157 21 228 90 65 62 90
124 92 224 l2 85 153 89 c85 49 172 99 194 112 22 12 58 33 80 45 89 51 88 51
106 31 63 -67 190 -100 294 -76 66 15 101 35 153 84 128 122 130 333 3 460
-22 22 -62 52 -89 65 l-49 25 0 316 0 315 59 32 c112 60 172 161 173 290 l0
76 56 31 c31 17 58 28 61 26 13 -14 162 -58 230 -69 261 -42 490 60 620 275
65 107 113 263 122 399 l6 75 -62 29 c-74 35 -191 73 -256 84 -99 15 -253 7
-331 -18 -222 -71 -380 -276 -417 -540 -3 -23 -7 -48 -8 -57 -1 -8 -29 -30
-61 -48 -55 -31 -59 -32 -76 -16 -97 90 -270 99 -389 19 l-44 -30 -41 21 c-22
11 -47 25 -55 31 -24 16 -372 216 -404 232 -28 15 -29 17 -30 99 -1 62 -7 96
-23 130 -29 64 -87 126 -147 156 -28 14 -53 29 -57 34 -3 5 -5 47 -4 93 l1 84
64 48 c210 152 367 328 469 524 46 90 85 194 97 264 2 17 9 45 13 63 10 34 7
282 -3 323 -11 46 -18 80 -17 82 3 7 -50 150 -74 203 -110 233 -317 467 -570
643 -34 23 -63 42 -65 42 -3 0 -25 -12 -50 -27z m125 -2547 c122 -80 45 -281
-98 -256 -77 14 -132 82 -123 154 6 51 32 86 84 112 46 24 90 21 137 -10z
m-285 -371 c9 -8 39 -26 66 -39 l49 -24 0 -312 0 -313 -35 -15 c-19 -8 -48
-23 -63 -34 l-28 -20 -232 133 c-128 73 -248 143 -268 155 l-36 23 1 81 1 82
255 148 c140 81 259 149 264 149 5 1 17 -6 26 -14z m583 -69 c67 -39 179 -104
249 -144 l126 -72 0 -83 0 -82 -72 -41 c-39 -23 -158 -92 -265 -154 -177 -102
-197 -111 -215 -99 -12 7 -41 23 -66 35 l-45 23 0 311 0 312 57 29 c31 16 59
33 63 39 10 16 33 6 168 -74z m-1358 -196 c25 -24 36 -46 41 -76 9 -59 -1 -89
-38 -124 -56 -54 -136 -59 -192 -11 -28 24 -54 88 -50 123 14 117 156 169 239
88z m2121 24 c68 -33 97 -128 58 -195 -25 -44 -95 -80 -138 -72 -83 15 -133
78 -124 157 11 98 113 153 204 110z m-1720 -518 l259 -150 0 -83 c0 -46 -3
-83 -6 -83 -4 0 -69 -36 -145 -81 -77 -45 -148 -85 -159 -90 -11 -5 -69 -38
-129 -74 l-110 -64 -27 20 c-16 11 -42 25 -59 30 l-30 11 0 323 0 323 23 6
c13 3 43 19 68 36 24 16 47 29 50 27 3 -1 122 -69 265 -151z m1473 124 c25
-17 55 -33 68 -36 l23 -6 0 -323 0 -323 -30 -11 c-17 -5 -43 -19 -58 -30 l-28
-19 -104 60 c-58 33 -123 70 -145 83 -22 12 -98 56 -168 97 l-128 74 -2 79 -2
80 185 107 c102 58 208 119 235 134 28 14 61 35 75 45 14 10 27 18 30 19 3 0
25 -14 49 -30z m-800 -263 c73 -67 60 -179 -28 -230 -107 -63 -241 48 -201
167 13 39 54 80 95 93 39 13 103 -2 134 -30z m-296 -361 c18 -13 50 -33 72
-44 l40 -20 -1 -293 c-1 -162 -2 -297 -3 -300 0 -4 -13 -10 -28 -14 -16 -3
-45 -20 -65 -36 l-37 -29 -38 21 c-21 11 -52 30 -70 40 -17 11 -53 32 -81 47
-27 15 -114 65 -194 111 l-145 83 -1 62 c-1 33 -3 69 -4 79 -2 13 56 52 252
167 140 81 259 149 263 149 5 1 23 -10 40 -23z m472 10 c11 -7 40 -25 65 -39
310 -175 425 -247 422 -264 -1 -10 -3 -46 -4 -79 -1 -55 -4 -63 -27 -76 -14
-8 -133 -77 -265 -153 -159 -92 -240 -134 -245 -126 -4 6 -34 26 -67 44 l-60
32 1 292 c0 160 2 293 5 296 3 2 29 17 58 32 29 16 57 34 63 42 14 17 29 17
54 -1z m-1263 -270 c39 -25 61 -80 55 -134 -13 -121 -180 -167 -249 -68 -60
83 -29 188 66 220 43 15 88 9 128 -18z m2154 -1 c53 -34 71 -122 39 -185 -33
-63 -119 -88 -188 -55 -43 21 -69 59 -75 110 -13 124 117 200 224 130z m-1083
-595 c44 -30 57 -51 62 -102 5 -48 -21 -107 -58 -131 -55 -36 -133 -30 -178
13 -72 67 -53 191 34 230 52 24 96 20 140 -10z"/>
</g>
</svg>
