<?xml version="1.0" standalone="no"?>
<!DOCTYPE svg PUBLIC "-//W3C//DTD SVG 1.1//EN" "http://www.w3.org/Graphics/SVG/1.1/DTD/svg11.dtd" >
<svg xmlns="http://www.w3.org/2000/svg" xmlns:xlink="http://www.w3.org/1999/xlink" version="1.1">
<metadata>
Created by FontForge 20201107 at Tue Aug 23 09:03:57 2022
 By Unknown
Copyright 2020 The Space Grotesk Project Authors \(https://github.com/floriankarsten/space-grotesk\)
</metadata>
<defs>
<font id="Rootstock-Sans-Headline" horiz-adv-x="620" >
  <font-face 
    font-family="Rootstock Sans Headline"
    font-weight="700"
    font-stretch="normal"
    units-per-em="1000"
    panose-1="0 0 0 0 0 0 0 0 0 0"
    ascent="800"
    descent="-200"
    x-height="496"
    cap-height="700"
    bbox="-83 -292 1238 1134"
    underline-thickness="50"
    underline-position="-125"
    unicode-range="U+000D-FB04"
  />
<missing-glyph horiz-adv-x="910" 
d="M621 -130h-332c-119 0 -194 69 -194 200v550c0 131 75 200 194 200h332c119 0 194 -69 194 -200v-550c0 -131 -75 -200 -194 -200zM311 -34h288c79 0 114 44 114 124v510c0 80 -35 124 -114 124h-288c-79 0 -114 -44 -114 -124v-510c0 -80 35 -124 114 -124zM452 106
c-37 0 -65 26 -65 63s28 63 65 63s65 -26 65 -63s-28 -63 -65 -63zM496 266h-92v22c0 45 17 76 60 93l12 5c40 17 62 33 62 66c0 36 -31 60 -78 60c-48 0 -84 -24 -84 -69v-16h-90v20c0 89 72 148 174 148c97 0 168 -56 168 -139v-3c0 -26 -5 -47 -15 -64
c-20 -34 -53 -54 -85 -67l-12 -5c-15 -5 -20 -16 -20 -36v-15z" />
    <glyph glyph-name="fi" unicode="fi" horiz-adv-x="674" 
d="M278 0h-126v392h-126v104h126v92c0 68 45 112 110 112h120v-104h-76c-19 0 -28 -10 -28 -30v-70h200v-104h-200v-392zM604 0h-126v496h126v-496zM541 550c-45 0 -81 32 -81 80s36 80 81 80c47 0 81 -32 81 -80s-34 -80 -81 -80z" />
    <glyph glyph-name="fl" unicode="fl" horiz-adv-x="674" 
d="M278 0h-126v392h-126v104h126v92c0 68 45 112 110 112h130v-104h-86c-19 0 -28 -10 -28 -30v-70h130v-104h-130v-392zM604 0h-126v700h126v-700z" />
    <glyph glyph-name="f_f" unicode="ff" horiz-adv-x="762" 
d="M278 0h-126v392h-126v104h126v92c0 68 45 112 110 112h130v-104h-86c-19 0 -28 -10 -28 -30v-70h100v-104h-100v-392zM604 0h-126v392h-100v104h100v92c0 68 45 112 110 112h130v-104h-86c-19 0 -28 -10 -28 -30v-70h130v-104h-130v-392z" />
    <glyph glyph-name="f_f_i" unicode="ffi" horiz-adv-x="1000" 
d="M604 0h-126v392h-100v104h100v92c0 68 45 112 110 112h120v-104h-76c-19 0 -28 -10 -28 -30v-70h200v-104h-200v-392zM278 0h-126v392h-126v104h126v92c0 68 45 112 110 112h130v-104h-86c-19 0 -28 -10 -28 -30v-70h100v-104h-100v-392zM930 0h-126v496h126v-496z
M867 550c-45 0 -81 32 -81 80s36 80 81 80c47 0 81 -32 81 -80s-34 -80 -81 -80z" />
    <glyph glyph-name="f_f_j.liga" unicode="ffj" horiz-adv-x="1000" 
d="M604 0h-126v392h-100v104h100v92c0 68 45 112 110 112h120v-104h-76c-19 0 -28 -10 -28 -30v-70h200v-104h-200v-392zM278 0h-126v392h-126v104h126v92c0 68 45 112 110 112h130v-104h-86c-19 0 -28 -10 -28 -30v-70h100v-104h-100v-392zM820 -200h-110v108h66
c19 0 28 10 28 30v558h126v-584c0 -68 -43 -112 -110 -112zM867 550c-45 0 -81 32 -81 80s36 80 81 80c47 0 81 -32 81 -80s-34 -80 -81 -80z" />
    <glyph glyph-name="f_f_l" unicode="ffl" horiz-adv-x="1000" 
d="M278 0h-126v392h-126v104h126v92c0 68 45 112 110 112h130v-104h-86c-19 0 -28 -10 -28 -30v-70h100v-104h-100v-392zM604 0h-126v392h-100v104h100v92c0 68 45 112 110 112h130v-104h-86c-19 0 -28 -10 -28 -30v-70h130v-104h-130v-392zM930 0h-126v700h126v-700z" />
    <glyph glyph-name="f_j.liga" unicode="fj" horiz-adv-x="674" 
d="M278 0h-126v392h-126v104h126v92c0 68 45 112 110 112h120v-104h-76c-19 0 -28 -10 -28 -30v-70h200v-104h-200v-392zM494 -200h-110v108h66c19 0 28 10 28 30v558h126v-584c0 -68 -43 -112 -110 -112zM541 550c-45 0 -81 32 -81 80s36 80 81 80c47 0 81 -32 81 -80
s-34 -80 -81 -80z" />
    <glyph glyph-name="f_lcaron.liga" unicode="f&#x13e;" horiz-adv-x="764" 
d="M278 0h-126v392h-126v104h126v92c0 68 45 112 110 112h130v-104h-86c-19 0 -28 -10 -28 -30v-70h130v-104h-130v-392zM604 0h-126v700h126v-700zM746 498h-86l8 202h120z" />
    <glyph glyph-name="t_t.liga" unicode="tt" horiz-adv-x="782" 
d="M400 0h-140c-65 0 -110 44 -110 112v280h-124v104h124v154h126v-154h106v-104h-106v-258c0 -20 9 -30 28 -30h96v-104zM726 0h-140c-65 0 -110 44 -110 112v280h-94v104h94v154h126v-154h136v-104h-136v-258c0 -20 9 -30 28 -30h96v-104z" />
    <glyph glyph-name=".notdef" horiz-adv-x="910" 
d="M621 -130h-332c-119 0 -194 69 -194 200v550c0 131 75 200 194 200h332c119 0 194 -69 194 -200v-550c0 -131 -75 -200 -194 -200zM311 -34h288c79 0 114 44 114 124v510c0 80 -35 124 -114 124h-288c-79 0 -114 -44 -114 -124v-510c0 -80 35 -124 114 -124zM452 106
c-37 0 -65 26 -65 63s28 63 65 63s65 -26 65 -63s-28 -63 -65 -63zM496 266h-92v22c0 45 17 76 60 93l12 5c40 17 62 33 62 66c0 36 -31 60 -78 60c-48 0 -84 -24 -84 -69v-16h-90v20c0 89 72 148 174 148c97 0 168 -56 168 -139v-3c0 -26 -5 -47 -15 -64
c-20 -34 -53 -54 -85 -67l-12 -5c-15 -5 -20 -16 -20 -36v-15z" />
    <glyph glyph-name=".null" horiz-adv-x="600" 
 />
    <glyph glyph-name="CR" unicode="&#xd;" horiz-adv-x="600" 
 />
    <glyph glyph-name="space" unicode=" " horiz-adv-x="254" 
 />
    <glyph glyph-name="A" unicode="A" horiz-adv-x="634" 
d="M154 0h-136l184 700h230l184 -700h-136l-38 154h-250zM223 276h188l-85 341h-18z" />
    <glyph glyph-name="B" unicode="B" horiz-adv-x="586" 
d="M332 0h-285v116v0v468v0v116h281c128 0 212 -68 212 -177v-10c0 -32 -6 -58 -18 -78c-24 -41 -60 -62 -89 -71v-18c15 -4 31 -11 48 -22c35 -22 63 -62 63 -129v-10c0 -114 -83 -185 -212 -185zM179 292v-172h137c57 0 96 29 96 81v10c0 52 -37 81 -96 81h-137zM179 580
v-168h135c55 0 94 30 94 79v10c0 51 -38 79 -94 79h-135z" />
    <glyph glyph-name="C" unicode="C" horiz-adv-x="644" 
d="M332 -14c-173 0 -282 100 -282 280v168c0 180 109 280 282 280c172 0 270 -100 270 -264v-6h-130v10c0 83 -45 142 -140 142c-93 0 -150 -61 -150 -160v-172c0 -97 57 -160 150 -160c95 0 140 61 140 142v18h130v-14c0 -164 -98 -264 -270 -264z" />
    <glyph glyph-name="D" unicode="D" horiz-adv-x="628" 
d="M296 0h-223v116v0v468v0v116h223c188 0 288 -96 288 -284v-132c0 -188 -100 -284 -288 -284zM205 580v-460h93c107 0 154 59 154 160v140c0 103 -47 160 -154 160h-93z" />
    <glyph glyph-name="E" unicode="E" horiz-adv-x="554" 
d="M522 0h-456v700h450v-120h-318v-167h290v-120h-290v-173h324v-120z" />
    <glyph glyph-name="F" unicode="F" horiz-adv-x="534" 
d="M198 0h-132v700h440v-120h-308v-169h284v-120h-284v-291z" />
    <glyph glyph-name="G" unicode="G" horiz-adv-x="662" 
d="M308 -14c-48 0 -91 11 -130 33c-78 43 -128 127 -128 247v168c0 180 109 280 282 280c172 0 270 -98 270 -254v-4h-130v8c0 78 -50 132 -140 132c-93 0 -150 -61 -150 -160v-172c0 -97 56 -162 152 -162s138 57 138 134v10h-166v112h296v-358h-122v67h-18
c-5 -11 -12 -23 -22 -36c-21 -25 -60 -45 -132 -45z" />
    <glyph glyph-name="H" unicode="H" horiz-adv-x="656" 
d="M198 0h-132v700h132v-289h260v289h132v-700h-132v291h-260v-291z" />
    <glyph glyph-name="I" unicode="I" horiz-adv-x="264" 
d="M198 0h-132v700h132v-700z" />
    <glyph glyph-name="J" unicode="J" horiz-adv-x="610" 
d="M267 -14c-144 0 -235 83 -235 224v66h132v-66c0 -63 36 -100 99 -100c59 0 93 36 93 100v370h-120v120h332v-120h-80v-370c0 -145 -84 -224 -221 -224z" />
    <glyph glyph-name="K" unicode="K" horiz-adv-x="626" 
d="M198 0h-132v700h132v-278h18l227 278h169l-292 -345l302 -355h-174l-232 284h-18v-284z" />
    <glyph glyph-name="L" unicode="L" horiz-adv-x="542" 
d="M518 0h-452v700h132v-580h320v-120z" />
    <glyph glyph-name="M" unicode="M" horiz-adv-x="882" 
d="M194 0h-128v700h245l121 -610h18l121 610h245v-700h-128v603h-18l-120 -603h-218l-120 603h-18v-603z" />
    <glyph glyph-name="N" unicode="N" horiz-adv-x="670" 
d="M196 0h-130v700h251l139 -610h18v610h130v-700h-251l-139 610h-18v-610z" />
    <glyph glyph-name="O" unicode="O" horiz-adv-x="676" 
d="M338 -14c-176 0 -288 100 -288 280v168c0 180 112 280 288 280s288 -100 288 -280v-168c0 -180 -112 -280 -288 -280zM338 104c99 0 156 62 156 158v176c0 96 -57 158 -156 158c-97 0 -156 -62 -156 -158v-176c0 -96 59 -158 156 -158z" />
    <glyph glyph-name="P" unicode="P" horiz-adv-x="604" 
d="M198 0h-132v700h288c134 0 224 -84 224 -215v-14c0 -127 -90 -215 -224 -215h-156v-256zM198 580v-204h143c63 0 105 37 105 97v10c0 60 -42 97 -105 97h-143z" />
    <glyph glyph-name="Q" unicode="Q" horiz-adv-x="676" 
d="M338 -14c-176 0 -288 100 -288 280v168c0 180 112 280 288 280s288 -100 288 -280v-168c0 -180 -112 -280 -288 -280zM338 104c99 0 156 62 156 158v176c0 96 -57 158 -156 158c-97 0 -156 -62 -156 -158v-176c0 -96 59 -158 156 -158zM489 -170h-105
c-65 0 -110 44 -110 112v58h128v-38c0 -20 9 -30 28 -30h59v-102z" />
    <glyph glyph-name="R" unicode="R" horiz-adv-x="632" 
d="M198 0h-132v700h304c135 0 218 -75 218 -187v-12c0 -84 -45 -135 -104 -159v-18c53 -3 84 -39 84 -95v-229h-132v210c0 32 -15 54 -54 54h-184v-264zM198 580v-196h158c63 0 100 37 100 93v10c0 56 -36 93 -100 93h-158z" />
    <glyph glyph-name="S" unicode="S" horiz-adv-x="606" 
d="M309 -14c-164 0 -275 92 -275 242v28h130v-28c0 -84 56 -126 145 -126c91 0 135 40 135 96c0 19 -5 35 -16 47c-22 24 -65 38 -125 51l-23 5c-48 11 -89 24 -123 41c-69 32 -107 83 -107 168c0 127 96 204 247 204c157 0 259 -80 259 -228v-30h-130v30
c0 79 -48 112 -129 112c-80 0 -117 -32 -117 -84c0 -53 41 -77 123 -95l23 -5c50 -11 94 -24 131 -41c74 -33 117 -86 117 -171c0 -129 -104 -216 -265 -216z" />
    <glyph glyph-name="T" unicode="T" horiz-adv-x="588" 
d="M360 0h-132v580h-204v120h540v-120h-204v-580z" />
    <glyph glyph-name="U" unicode="U" horiz-adv-x="672" 
d="M336 -14c-173 0 -274 99 -274 260v454h132v-458c0 -85 50 -138 142 -138s142 53 142 138v458h132v-454c0 -161 -101 -260 -274 -260z" />
    <glyph glyph-name="V" unicode="V" horiz-adv-x="618" 
d="M422 0h-226l-178 700h136l148 -615h14l148 615h136z" />
    <glyph glyph-name="W" unicode="W" horiz-adv-x="898" 
d="M350 0h-228l-92 700h131l68 -608h18l88 608h228l88 -608h18l68 608h131l-92 -700h-228l-90 622h-18z" />
    <glyph glyph-name="X" unicode="X" horiz-adv-x="644" 
d="M172 0h-150l205 353l-203 347h150l139 -253h18l139 253h150l-203 -347l205 -353h-150l-141 259h-18z" />
    <glyph glyph-name="Y" unicode="Y" horiz-adv-x="624" 
d="M378 0h-132v241l-238 459h147l148 -300h18l148 300h147l-238 -459v-241z" />
    <glyph glyph-name="Z" unicode="Z" horiz-adv-x="576" 
d="M532 0h-486v168l346 398v16h-336v118h474v-168l-346 -398v-16h348v-118z" />
    <glyph glyph-name="a" unicode="a" horiz-adv-x="578" 
d="M224 -14c-111 0 -186 60 -186 159c0 98 70 155 192 155h136v28c0 47 -28 80 -92 80c-63 0 -91 -32 -100 -77l-116 39c25 80 95 140 218 140c131 0 212 -67 212 -191v-185c0 -20 9 -30 28 -30h40v-104h-84c-49 0 -85 26 -85 66v1h-19c-3 -8 -9 -18 -18 -31
c-19 -26 -57 -50 -126 -50zM246 88c71 0 120 43 120 108v10h-127c-47 0 -75 -21 -75 -57s29 -61 82 -61z" />
    <glyph glyph-name="b" unicode="b" horiz-adv-x="638" 
d="M368 -14c-89 0 -133 37 -156 74h-18v-60h-124v700h126v-261h18c24 39 69 71 154 71c40 0 77 -10 111 -29c68 -40 113 -117 113 -225v-16c0 -54 -10 -100 -31 -138c-41 -76 -113 -116 -193 -116zM330 96c77 0 136 51 136 147v10c0 96 -57 147 -136 147
c-77 0 -136 -51 -136 -147v-10c0 -96 59 -147 136 -147z" />
    <glyph glyph-name="c" unicode="c" horiz-adv-x="586" 
d="M303 -14c-153 0 -257 98 -257 255v14c0 157 104 255 257 255s228 -94 246 -192l-122 -26c-8 63 -48 106 -121 106c-78 0 -134 -51 -134 -145v-10c0 -94 56 -145 134 -145c76 0 113 43 124 107l122 -29c-9 -35 -23 -67 -44 -96c-42 -58 -110 -94 -205 -94z" />
    <glyph glyph-name="d" unicode="d" horiz-adv-x="638" 
d="M270 -14c-39 0 -76 10 -110 30c-69 39 -114 116 -114 224v16c0 54 10 100 31 138c41 76 113 116 193 116c83 0 132 -32 154 -71h18v261h126v-700h-124v60h-18c-23 -37 -65 -74 -156 -74zM308 96c77 0 136 51 136 147v10c0 96 -57 147 -136 147c-77 0 -136 -51 -136 -147
v-10c0 -96 59 -147 136 -147z" />
    <glyph glyph-name="e" unicode="e" horiz-adv-x="577" 
d="M296 -14c-150 0 -250 100 -250 256v12c0 156 98 256 248 256c146 0 241 -103 241 -256v-43h-361c3 -68 57 -115 126 -115c71 0 99 37 116 74l103 -54c-9 -17 -23 -36 -40 -56c-36 -41 -92 -74 -183 -74zM175 305h232c-5 57 -49 95 -114 95c-68 0 -109 -38 -118 -95z" />
    <glyph glyph-name="f" unicode="f" horiz-adv-x="436" 
d="M278 0h-126v392h-126v104h126v92c0 68 45 112 110 112h130v-104h-86c-19 0 -28 -10 -28 -30v-70h130v-104h-130v-392z" />
    <glyph glyph-name="g" unicode="g" horiz-adv-x="638" 
d="M46 246v16c0 52 10 97 31 134c41 74 114 114 195 114c91 0 133 -39 154 -74h18v60h124v-544c0 -68 -43 -112 -110 -112h-332v110h288c19 0 28 10 28 30v89h-18c-22 -36 -66 -71 -152 -71c-41 0 -78 10 -112 30c-69 39 -114 114 -114 218zM308 108c77 0 136 52 136 141v10
c0 91 -57 141 -136 141c-77 0 -136 -50 -136 -141v-10c0 -89 59 -141 136 -141z" />
    <glyph glyph-name="h" unicode="h" horiz-adv-x="616" 
d="M196 0h-126v700h126v-265h18c18 35 61 69 143 69c114 0 193 -81 193 -208v-296h-126v286c0 75 -38 112 -106 112c-77 0 -122 -54 -122 -146v-252z" />
    <glyph glyph-name="i" unicode="i" horiz-adv-x="266" 
d="M196 0h-126v496h126v-496zM133 554c-45 0 -81 32 -81 80s36 80 81 80c47 0 81 -32 81 -80s-34 -80 -81 -80z" />
    <glyph glyph-name="j" unicode="j" horiz-adv-x="268" 
d="M88 -200h-110v108h66c19 0 28 10 28 30v558h126v-584c0 -68 -43 -112 -110 -112zM135 554c-45 0 -81 32 -81 80s36 80 81 80c47 0 81 -32 81 -80s-34 -80 -81 -80z" />
    <glyph glyph-name="k" unicode="k" horiz-adv-x="564" 
d="M196 0h-126v700h126v-387h18l164 183h164l-229 -240l237 -256h-162l-174 197h-18v-197z" />
    <glyph glyph-name="l" unicode="l" horiz-adv-x="266" 
d="M196 0h-126v700h126v-700z" />
    <glyph glyph-name="m" unicode="m" horiz-adv-x="854" 
d="M196 0h-126v496h124v-54h18c17 33 57 62 122 62c71 0 111 -30 134 -74h18c23 43 60 74 136 74c90 0 166 -57 166 -178v-326h-126v317c0 55 -29 82 -80 82c-57 0 -90 -38 -90 -106v-293h-126v317c0 55 -29 82 -80 82c-57 0 -90 -38 -90 -106v-293z" />
    <glyph glyph-name="n" unicode="n" horiz-adv-x="616" 
d="M196 0h-126v496h124v-65h18c16 35 56 73 145 73c114 0 193 -81 193 -208v-296h-126v286c0 75 -38 112 -106 112c-77 0 -122 -54 -122 -146v-252z" />
    <glyph glyph-name="o" unicode="o" horiz-adv-x="612" 
d="M306 -14c-156 0 -260 98 -260 254v16c0 156 104 254 260 254s260 -98 260 -254v-16c0 -156 -104 -254 -260 -254zM306 98c77 0 134 52 134 145v10c0 93 -55 145 -134 145c-77 0 -134 -52 -134 -145v-10c0 -93 57 -145 134 -145z" />
    <glyph glyph-name="p" unicode="p" horiz-adv-x="638" 
d="M196 -160h-126v656h124v-60h18c23 39 67 74 156 74c40 0 77 -10 111 -29c68 -40 113 -117 113 -225v-16c0 -54 -10 -100 -31 -138c-41 -76 -113 -116 -193 -116c-89 0 -131 35 -154 71h-18v-217zM330 96c79 0 136 51 136 147v10c0 96 -59 147 -136 147
s-136 -51 -136 -147v-10c0 -96 59 -147 136 -147z" />
    <glyph glyph-name="q" unicode="q" horiz-adv-x="638" 
d="M568 -160h-126v217h-18c-21 -35 -67 -71 -154 -71c-40 0 -77 10 -111 30c-68 39 -113 116 -113 224v16c0 54 10 100 31 138c41 76 114 116 193 116c91 0 133 -35 156 -74h18v60h124v-656zM308 96c79 0 136 51 136 147v10c0 96 -59 147 -136 147s-136 -51 -136 -147v-10
c0 -96 59 -147 136 -147z" />
    <glyph glyph-name="r" unicode="r" horiz-adv-x="396" 
d="M196 0h-126v496h124v-56h18c15 40 51 58 96 58h60v-112h-62c-64 0 -110 -33 -110 -104v-282z" />
    <glyph glyph-name="s" unicode="s" horiz-adv-x="524" 
d="M276 -14c-129 0 -217 58 -234 162l116 30c14 -69 58 -92 118 -92c59 0 86 23 86 54s-25 45 -84 56l-28 5c-35 7 -66 16 -95 28c-57 23 -95 63 -95 128c0 99 79 153 196 153c111 0 187 -54 210 -134l-117 -36c-11 51 -45 70 -93 70s-74 -18 -74 -47c0 -32 29 -45 74 -53
l28 -5c37 -7 71 -15 102 -26c60 -22 98 -61 98 -130c0 -104 -81 -163 -208 -163z" />
    <glyph glyph-name="t" unicode="t" horiz-adv-x="456" 
d="M400 0h-140c-65 0 -110 44 -110 112v280h-124v104h124v154h126v-154h136v-104h-136v-258c0 -20 9 -30 28 -30h96v-104z" />
    <glyph glyph-name="u" unicode="u" horiz-adv-x="616" 
d="M259 -8c-113 0 -193 81 -193 208v296h126v-286c0 -75 38 -112 106 -112c77 0 122 54 122 146v252h126v-496h-124v65h-18c-16 -33 -56 -73 -145 -73z" />
    <glyph glyph-name="v" unicode="v" horiz-adv-x="548" 
d="M374 0h-200l-158 496h134l115 -404h18l115 404h134z" />
    <glyph glyph-name="w" unicode="w" horiz-adv-x="784" 
d="M319 0h-209l-70 496h125l44 -411h18l64 411h202l64 -411h18l44 411h125l-70 -496h-209l-64 411h-18z" />
    <glyph glyph-name="x" unicode="x" horiz-adv-x="592" 
d="M174 0h-148l180 250l-178 246h146l113 -165h18l113 165h146l-178 -246l180 -250h-148l-113 167h-18z" />
    <glyph glyph-name="y" unicode="y" horiz-adv-x="616" 
d="M436 -160h-312v110h270c19 0 28 10 28 30v85h-18c-18 -38 -61 -73 -145 -73c-113 0 -193 81 -193 208v296h126v-286c0 -75 38 -112 106 -112c77 0 122 54 122 146v252h126v-544c0 -68 -43 -112 -110 -112z" />
    <glyph glyph-name="z" unicode="z" horiz-adv-x="518" 
d="M470 0h-418v150l272 226v16h-262v104h400v-150l-272 -226v-16h280v-104z" />
    <glyph glyph-name="zero" unicode="0" horiz-adv-x="648" 
d="M324 -14c-165 0 -274 91 -274 276v176c0 180 109 276 274 276c167 0 274 -96 274 -276v-176c0 -185 -107 -276 -274 -276zM324 100c100 0 146 57 146 158v186c0 103 -57 156 -146 156c-92 0 -146 -57 -146 -156v-186c0 -105 49 -158 146 -158z" />
    <glyph glyph-name="one" unicode="1" horiz-adv-x="452" 
d="M386 0h-128v606h-18l-94 -222h-134l143 316h231v-700z" />
    <glyph glyph-name="two" unicode="2" horiz-adv-x="594" 
d="M550 0h-508v84c0 148 79 215 205 253l67 21c73 24 114 64 114 129v4c0 67 -48 109 -127 109c-77 0 -129 -43 -129 -122v-18h-128v16c0 147 104 238 257 238c147 0 255 -88 255 -221v-10c0 -45 -9 -82 -27 -113c-37 -62 -102 -100 -182 -125l-64 -20
c-78 -23 -110 -52 -110 -107v-4h377v-114z" />
    <glyph glyph-name="three" unicode="3" horiz-adv-x="608" 
d="M304 -14c-164 0 -270 92 -270 233v18h128v-14c0 -75 57 -123 142 -123c87 0 136 46 136 109v10c0 62 -49 91 -120 91h-140v140l226 120v16h-354v114h496v-170l-211 -112v-16h37c105 0 194 -61 194 -180v-12c0 -133 -101 -224 -264 -224z" />
    <glyph glyph-name="four" unicode="4" horiz-adv-x="636" 
d="M498 0h-128v142h-344v148l242 410h230v-444h116v-114h-116v-142zM148 256h222v362h-18l-204 -346v-16z" />
    <glyph glyph-name="five" unicode="5" horiz-adv-x="600" 
d="M303 -14c-167 0 -265 96 -265 234v10h130v-9c0 -67 45 -121 133 -121s137 52 137 128v10c0 75 -53 122 -124 122c-59 0 -84 -29 -99 -52h-155v392h478v-116h-350v-171h18c22 29 66 53 135 53c139 0 225 -87 225 -227v-12c0 -151 -102 -241 -263 -241z" />
    <glyph glyph-name="six" unicode="6" horiz-adv-x="618" 
d="M312 -14c-159 0 -262 96 -262 235v239c0 163 99 254 268 254c160 0 256 -84 256 -218h-130c0 56 -35 104 -126 104c-89 0 -140 -49 -140 -132v-72h18c23 27 65 56 154 56c129 0 228 -86 228 -221v-12c0 -139 -106 -233 -266 -233zM314 100c84 0 136 48 136 121v8
c0 73 -50 121 -136 121c-84 0 -136 -47 -136 -121v-8c0 -73 52 -121 136 -121z" />
    <glyph glyph-name="seven" unicode="7" horiz-adv-x="554" 
d="M259 0h-128v26c0 52 5 82 32 129l235 415v16h-372v114h504v-152l-248 -443c-17 -31 -23 -50 -23 -85v-20z" />
    <glyph glyph-name="eight" unicode="8" horiz-adv-x="600" 
d="M300 -14c-166 0 -272 80 -272 201v12c0 32 6 59 17 80c23 42 60 65 91 74v18c-41 14 -98 54 -98 146v12c0 111 106 185 262 185s262 -74 262 -185v-12c0 -87 -53 -131 -98 -146v-18c16 -5 32 -13 49 -25c33 -24 59 -65 59 -129v-12c0 -121 -106 -201 -272 -201zM300 100
c92 0 144 38 144 97v8c0 59 -49 97 -144 97c-93 0 -144 -38 -144 -97v-8c0 -59 52 -97 144 -97zM300 416c85 0 134 32 134 88v8c0 56 -51 88 -134 88s-134 -32 -134 -88v-8c0 -56 49 -88 134 -88z" />
    <glyph glyph-name="nine" unicode="9" horiz-adv-x="618" 
d="M300 -14c-160 0 -256 84 -256 218h130c0 -56 37 -104 126 -104c91 0 140 51 140 132v72h-18c-23 -27 -63 -56 -154 -56c-130 0 -228 86 -228 221v12c0 140 106 233 266 233c159 0 262 -96 262 -235v-239c0 -163 -99 -254 -268 -254zM304 350c86 0 136 48 136 121v8
c0 75 -52 121 -136 121s-136 -46 -136 -121v-8c0 -74 52 -121 136 -121z" />
    <glyph glyph-name="bracketleft" unicode="[" horiz-adv-x="358" 
d="M342 -206h-170c-60 0 -102 42 -102 102v758c0 60 42 102 102 102h170v-108h-123c-18 0 -27 -10 -27 -30v-686c0 -20 9 -30 27 -30h123v-108z" />
    <glyph glyph-name="bracketright" unicode="]" horiz-adv-x="358" 
d="M186 -206h-170v108h123c18 0 27 10 27 30v686c0 20 -9 30 -27 30h-123v108h170c60 0 102 -42 102 -102v-758c0 -60 -42 -102 -102 -102z" />
    <glyph glyph-name="braceleft" unicode="{" horiz-adv-x="466" 
d="M450 -206h-170c-60 0 -102 42 -102 102v270c0 19 -9 29 -27 29h-115v120h115c18 0 27 10 27 29v310c0 60 42 102 102 102h170v-108h-123c-18 0 -27 -10 -27 -30v-274c0 -45 -31 -80 -78 -80h-16v-18h16c47 0 78 -35 78 -80v-234c0 -20 9 -30 27 -30h123v-108z" />
    <glyph glyph-name="braceright" unicode="}" horiz-adv-x="466" 
d="M186 -206h-170v108h123c18 0 27 10 27 30v234c0 45 31 80 78 80h16v18h-16c-47 0 -78 35 -78 80v274c0 20 -9 30 -27 30h-123v108h170c60 0 102 -42 102 -102v-310c0 -19 9 -29 27 -29h115v-120h-115c-18 0 -27 -10 -27 -29v-270c0 -60 -42 -102 -102 -102z" />
    <glyph glyph-name="parenleft" unicode="(" horiz-adv-x="398" 
d="M390 -138v-108c-224 0 -340 115 -340 362v278c0 247 116 362 340 362v-108c-145 0 -218 -81 -218 -258v-270c0 -177 73 -258 218 -258z" />
    <glyph glyph-name="parenright" unicode=")" horiz-adv-x="390" 
d="M0 -246v108c147 0 218 81 218 258v270c0 177 -71 258 -218 258v108c224 0 340 -115 340 -362v-278c0 -247 -116 -362 -340 -362z" />
    <glyph glyph-name="slash" unicode="/" horiz-adv-x="388" 
d="M110 -200h-126l294 900h126z" />
    <glyph glyph-name="bar" unicode="|" horiz-adv-x="258" 
d="M192 -246h-126v1052h126v-1052z" />
    <glyph glyph-name="brokenbar" unicode="&#xa6;" horiz-adv-x="258" 
d="M192 366h-126v440h126v-440zM66 -246v440h126v-440h-126z" />
    <glyph glyph-name="backslash" unicode="\" horiz-adv-x="388" 
d="M404 -200h-126l-294 900h126z" />
    <glyph glyph-name="quotesingle" unicode="'" horiz-adv-x="294" 
d="M128 393h-49v68h39c31 0 46 15 46 46v32h-17c-53 0 -93 36 -93 85c0 53 40 90 93 90c55 0 93 -37 93 -94v-115c0 -75 -37 -112 -112 -112z" />
    <glyph glyph-name="quotedbl" unicode="&#x22;" horiz-adv-x="514" 
d="M128 393h-49v68h39c31 0 46 15 46 46v32h-17c-53 0 -93 36 -93 85c0 53 40 90 93 90c55 0 93 -37 93 -94v-115c0 -75 -37 -112 -112 -112zM348 393h-49v68h39c31 0 46 15 46 46v32h-17c-53 0 -93 36 -93 85c0 53 40 90 93 90c55 0 93 -37 93 -94v-115
c0 -75 -37 -112 -112 -112z" />
    <glyph glyph-name="quoteleft" unicode="&#x2018;" horiz-adv-x="294" 
d="M166 714h49v-68h-39c-31 0 -46 -15 -46 -46v-32h17c53 0 93 -36 93 -85c0 -53 -40 -90 -93 -90c-55 0 -93 37 -93 94v115c0 75 37 112 112 112z" />
    <glyph glyph-name="quoteright" unicode="&#x2019;" horiz-adv-x="294" 
d="M128 393h-49v68h39c31 0 46 15 46 46v32h-17c-53 0 -93 36 -93 85c0 53 40 90 93 90c55 0 93 -37 93 -94v-115c0 -75 -37 -112 -112 -112z" />
    <glyph glyph-name="quotedblleft" unicode="&#x201c;" horiz-adv-x="514" 
d="M386 714h49v-68h-39c-31 0 -46 -15 -46 -46v-32h17c53 0 93 -36 93 -85c0 -53 -40 -90 -93 -90c-55 0 -93 37 -93 94v115c0 75 37 112 112 112zM166 714h49v-68h-39c-31 0 -46 -15 -46 -46v-32h17c53 0 93 -36 93 -85c0 -53 -40 -90 -93 -90c-55 0 -93 37 -93 94v115
c0 75 37 112 112 112z" />
    <glyph glyph-name="quotedblright" unicode="&#x201d;" horiz-adv-x="514" 
d="M128 393h-49v68h39c31 0 46 15 46 46v32h-17c-53 0 -93 36 -93 85c0 53 40 90 93 90c55 0 93 -37 93 -94v-115c0 -75 -37 -112 -112 -112zM348 393h-49v68h39c31 0 46 15 46 46v32h-17c-53 0 -93 36 -93 85c0 53 40 90 93 90c55 0 93 -37 93 -94v-115
c0 -75 -37 -112 -112 -112z" />
    <glyph glyph-name="quotesinglbase" unicode="&#x201a;" horiz-adv-x="294" 
d="M128 -147h-49v68h39c31 0 46 15 46 46v32h-17c-53 0 -93 36 -93 85c0 53 40 90 93 90c55 0 93 -37 93 -94v-115c0 -75 -37 -112 -112 -112z" />
    <glyph glyph-name="quotedblbase" unicode="&#x201e;" horiz-adv-x="514" 
d="M128 -147h-49v68h39c31 0 46 15 46 46v32h-17c-53 0 -93 36 -93 85c0 53 40 90 93 90c55 0 93 -37 93 -94v-115c0 -75 -37 -112 -112 -112zM348 -147h-49v68h39c31 0 46 15 46 46v32h-17c-53 0 -93 36 -93 85c0 53 40 90 93 90c55 0 93 -37 93 -94v-115
c0 -75 -37 -112 -112 -112z" />
    <glyph glyph-name="period" unicode="." horiz-adv-x="298" 
d="M150 -14c-55 0 -96 39 -96 95s41 95 96 95c53 0 94 -39 94 -95s-41 -95 -94 -95z" />
    <glyph glyph-name="comma" unicode="," horiz-adv-x="294" 
d="M128 -147h-49v68h39c31 0 46 15 46 46v32h-17c-53 0 -93 36 -93 85c0 53 40 90 93 90c55 0 93 -37 93 -94v-115c0 -75 -37 -112 -112 -112z" />
    <glyph glyph-name="colon" unicode=":" horiz-adv-x="298" 
d="M150 -14c-55 0 -96 39 -96 95s41 95 96 95c53 0 94 -39 94 -95s-41 -95 -94 -95zM150 320c-55 0 -96 39 -96 95s41 95 96 95c53 0 94 -39 94 -95s-41 -95 -94 -95z" />
    <glyph glyph-name="semicolon" unicode=";" horiz-adv-x="298" 
d="M150 320c-55 0 -96 39 -96 95s41 95 96 95c53 0 94 -39 94 -95s-41 -95 -94 -95zM130 -147h-49v68h39c31 0 46 15 46 46v32h-17c-53 0 -93 36 -93 85c0 53 40 90 93 90c55 0 93 -37 93 -94v-115c0 -75 -37 -112 -112 -112z" />
    <glyph glyph-name="ellipsis" unicode="&#x2026;" horiz-adv-x="798" 
d="M150 -14c-55 0 -96 39 -96 95s41 95 96 95c53 0 94 -39 94 -95s-41 -95 -94 -95zM400 -14c-55 0 -96 39 -96 95s41 95 96 95c53 0 94 -39 94 -95s-41 -95 -94 -95zM650 -14c-55 0 -96 39 -96 95s41 95 96 95c53 0 94 -39 94 -95s-41 -95 -94 -95z" />
    <glyph glyph-name="exclam" unicode="!" horiz-adv-x="298" 
d="M213 230h-128v470h128v-470zM150 -14c-55 0 -96 39 -96 95s41 95 96 95c53 0 94 -39 94 -95s-41 -95 -94 -95z" />
    <glyph glyph-name="exclamdown" unicode="&#xa1;" horiz-adv-x="298" 
d="M213 -200h-128v466h128v-466zM150 510c53 0 94 -39 94 -95s-41 -95 -94 -95c-55 0 -96 39 -96 95s41 95 96 95z" />
    <glyph glyph-name="question" unicode="?" horiz-adv-x="578" 
d="M341 230h-132v24c0 68 26 110 87 139l17 8c60 28 93 56 93 109c0 56 -45 92 -116 92c-79 0 -126 -39 -126 -108v-22h-130v20c0 134 104 222 256 222c142 0 246 -84 246 -204c0 -40 -7 -73 -22 -98c-29 -52 -77 -80 -124 -103l-17 -8c-24 -11 -32 -24 -32 -53v-18z
M279 -14c-53 0 -95 39 -95 95s42 95 95 95c55 0 95 -39 95 -95s-40 -95 -95 -95z" />
    <glyph glyph-name="questiondown" unicode="&#xbf;" horiz-adv-x="578" 
d="M288 -214c-142 0 -246 84 -246 204c0 40 7 73 22 99c29 51 77 81 124 102l17 8c24 11 32 24 32 53v14h132v-20c0 -68 -24 -110 -87 -139l-17 -8c-60 -28 -93 -54 -93 -109c0 -56 45 -92 116 -92c79 0 126 39 126 108v22h130v-20c0 -136 -109 -222 -256 -222zM299 510
c55 0 95 -39 95 -95s-40 -95 -95 -95c-53 0 -95 39 -95 95s42 95 95 95z" />
    <glyph glyph-name="guilsinglleft" unicode="&#x2039;" horiz-adv-x="480" 
d="M412 6h-6l-354 170v144l354 170h6v-135l-234 -98v-18l234 -98v-135z" />
    <glyph glyph-name="guilsinglright" unicode="&#x203a;" horiz-adv-x="480" 
d="M74 6h-6v135l234 98v18l-234 98v135h6l354 -170v-144z" />
    <glyph glyph-name="hyphen" unicode="-" horiz-adv-x="432" 
d="M364 198h-296v114h296v-114z" />
    <glyph glyph-name="endash" unicode="&#x2013;" horiz-adv-x="584" 
d="M516 198h-448v114h448v-114z" />
    <glyph glyph-name="emdash" unicode="&#x2014;" horiz-adv-x="888" 
d="M820 198h-752v114h752v-114z" />
    <glyph glyph-name="periodcentered" unicode="&#xb7;" horiz-adv-x="218" 
d="M110 191c-55 0 -96 39 -96 95s41 95 96 95c53 0 94 -39 94 -95s-41 -95 -94 -95z" />
    <glyph glyph-name="bullet" unicode="&#x2022;" horiz-adv-x="400" 
d="M200 111c-84 0 -144 65 -144 145c0 85 64 143 144 143c85 0 144 -59 144 -144c0 -84 -64 -144 -144 -144z" />
    <glyph glyph-name="underscore" unicode="_" 
d="M555 -162h-490v114h490v-114z" />
    <glyph glyph-name="at" unicode="@" horiz-adv-x="1014" 
d="M740 -200h-216c-286 0 -458 170 -458 446v24c0 275 169 444 446 444h22c84 0 157 -17 220 -52c125 -70 198 -199 198 -366v-74c0 -140 -57 -222 -172 -222h-58c-63 0 -97 27 -97 70v2h-18c-12 -32 -42 -78 -124 -78c-122 0 -203 103 -203 248v16c0 146 79 248 193 248
c71 0 104 -28 125 -66h18v60h122v-354c0 -23 8 -34 31 -34h4c39 0 55 37 55 110v72c0 185 -92 306 -298 306h-14c-205 0 -326 -119 -326 -334v-16c0 -215 123 -336 342 -336h208v-114zM509 102c65 0 107 54 107 142v12c0 88 -42 142 -107 142s-105 -54 -105 -142v-12
c0 -88 40 -142 105 -142z" />
    <glyph glyph-name="ampersand" unicode="&#x26;" horiz-adv-x="591" 
d="M485 0h-250c-128 0 -207 73 -207 189c0 85 50 138 118 159v14c-67 20 -114 69 -114 150c0 119 83 188 207 188h109v-104h-86c-60 0 -104 -32 -104 -95s45 -95 104 -95h97v90h126v-90h92v-104h-92v-302zM258 104h101v198h-101c-59 0 -104 -34 -104 -99
c0 -67 49 -99 104 -99z" />
    <glyph glyph-name="asterisk" unicode="*" horiz-adv-x="540" 
d="M122 437h-78v74h78l72 -13l5 13l-60 41l-55 56l52 52l56 -55l41 -60l13 5l-13 72v78h74v-78l-13 -72l13 -5l41 60l56 55l52 -52l-55 -56l-60 -41l5 -13l72 13h78v-74h-78l-72 13l-5 -13l60 -41l55 -56l-52 -52l-56 55l-41 60l-13 -5l13 -72v-78h-74v78l13 72l-13 5
l-41 -60l-56 -55l-52 52l55 56l60 41l-5 13z" />
    <glyph glyph-name="Agrave" unicode="&#xc0;" horiz-adv-x="634" 
d="M154 0h-136l184 700h230l184 -700h-136l-38 154h-250zM179 888h146l70 -130h-112zM223 276h188l-85 341h-18z" />
    <glyph glyph-name="Aacute" unicode="&#xc1;" horiz-adv-x="634" 
d="M154 0h-136l184 700h230l184 -700h-136l-38 154h-250zM223 276h188l-85 341h-18zM239 758l70 130h146l-104 -130h-112z" />
    <glyph glyph-name="Acircumflex" unicode="&#xc2;" horiz-adv-x="634" 
d="M154 0h-136l184 700h230l184 -700h-136l-38 154h-250zM125 758l114 130h156l114 -130h-134l-49 66h-18l-49 -66h-134zM223 276h188l-85 341h-18z" />
    <glyph glyph-name="Atilde" unicode="&#xc3;" horiz-adv-x="634" 
d="M154 0h-136l184 700h230l184 -700h-136l-38 154h-250zM308 617l-85 -341h188l-85 341h-18zM217 768l-17 -22l-64 51l32 43c24 32 50 50 87 50c32 0 48 -9 71 -28c7 -5 14 -11 21 -16c7 -6 15 -9 25 -9c21 0 33 16 45 31l17 22l64 -51l-32 -43c-24 -32 -50 -50 -87 -50
c-32 0 -48 9 -71 28c-7 5 -13 11 -20 17c-7 5 -16 8 -26 8c-21 0 -33 -16 -45 -31z" />
    <glyph glyph-name="Adieresis" unicode="&#xc4;" horiz-adv-x="634" 
d="M154 0h-136l184 700h230l184 -700h-136l-38 154h-250zM308 617l-85 -341h188l-85 341h-18zM428 754c-45 0 -81 31 -81 80s36 80 81 80c47 0 81 -31 81 -80s-34 -80 -81 -80zM206 754c-45 0 -81 31 -81 80s36 80 81 80c47 0 81 -31 81 -80s-34 -80 -81 -80z" />
    <glyph glyph-name="Amacron" unicode="&#x100;" horiz-adv-x="634" 
d="M154 0h-136l184 700h230l184 -700h-136l-38 154h-250zM153 762v100h328v-100h-328zM223 276h188l-85 341h-18z" />
    <glyph glyph-name="Abreve" unicode="&#x102;" horiz-adv-x="634" 
d="M154 0h-136l184 700h230l184 -700h-136l-38 154h-250zM308 617l-85 -341h188l-85 341h-18zM317 752c-103 0 -164 51 -164 132v4h102v-4c0 -32 18 -58 62 -58s62 26 62 58v4h102v-4c0 -81 -61 -132 -164 -132z" />
    <glyph glyph-name="Aring" unicode="&#xc5;" horiz-adv-x="634" 
d="M154 0h-136l184 700h230l184 -700h-136l-38 154h-250zM308 617l-85 -341h188l-85 341h-18zM317 748c-57 0 -104 43 -104 100s45 100 104 100s104 -41 104 -100c0 -61 -49 -100 -104 -100zM317 818c19 0 30 13 30 30s-11 30 -30 30c-17 0 -30 -13 -30 -30s13 -30 30 -30z
" />
    <glyph glyph-name="Aogonek" unicode="&#x104;" horiz-adv-x="634" 
d="M154 0h-136l184 700h230l184 -700h-136l-38 154h-250zM308 617l-85 -341h188l-85 341h-18zM647 -170h-80c-45 0 -78 28 -78 69c0 20 4 44 9 65l13 56h81l-10 -55c-1 -5 -1 -10 -2 -15s-2 -9 -2 -14c0 -15 8 -22 23 -22h46v-84z" />
    <glyph glyph-name="AE" unicode="&#xc6;" horiz-adv-x="821" 
d="M789 0h-414v154h-172l-50 -154h-135l234 700h531v-120h-278v-167h250v-120h-250v-173h284v-120zM242 276h133v354h-18z" />
    <glyph glyph-name="Ccedilla" unicode="&#xc7;" horiz-adv-x="644" 
d="M332 -14c-173 0 -282 100 -282 280v168c0 180 109 280 282 280c172 0 270 -100 270 -264v-6h-130v10c0 83 -45 142 -140 142c-93 0 -150 -61 -150 -160v-172c0 -97 57 -160 150 -160c95 0 140 61 140 142v18h130v-14c0 -164 -98 -264 -270 -264zM332 -214
c-43 0 -86 10 -115 19l20 75c25 -8 53 -16 89 -16c27 0 46 9 46 29c0 19 -14 27 -49 27h-38l7 100h86l-4 -59c51 0 91 -28 91 -83c0 -61 -59 -92 -133 -92z" />
    <glyph glyph-name="Cacute" unicode="&#x106;" horiz-adv-x="644" 
d="M332 -14c-173 0 -282 100 -282 280v168c0 180 109 280 282 280c172 0 270 -100 270 -264v-6h-130v10c0 83 -45 142 -140 142c-93 0 -150 -61 -150 -160v-172c0 -97 57 -160 150 -160c95 0 140 61 140 142v18h130v-14c0 -164 -98 -264 -270 -264zM366 758h-112l70 130h146
z" />
    <glyph glyph-name="Ccircumflex" unicode="&#x108;" horiz-adv-x="644" 
d="M332 -14c-173 0 -282 100 -282 280v168c0 180 109 280 282 280c172 0 270 -100 270 -264v-6h-130v10c0 83 -45 142 -140 142c-93 0 -150 -61 -150 -160v-172c0 -97 57 -160 150 -160c95 0 140 61 140 142v18h130v-14c0 -164 -98 -264 -270 -264zM274 758h-134l114 130
h156l114 -130h-134l-49 66h-18z" />
    <glyph glyph-name="Ccaron" unicode="&#x10c;" horiz-adv-x="644" 
d="M332 -14c-173 0 -282 100 -282 280v168c0 180 109 280 282 280c172 0 270 -100 270 -264v-6h-130v10c0 83 -45 142 -140 142c-93 0 -150 -61 -150 -160v-172c0 -97 57 -160 150 -160c95 0 140 61 140 142v18h130v-14c0 -164 -98 -264 -270 -264zM410 758h-156l-114 130
h134l49 -66h18l49 66h134z" />
    <glyph glyph-name="Cdotaccent" unicode="&#x10a;" horiz-adv-x="644" 
d="M332 -14c-173 0 -282 100 -282 280v168c0 180 109 280 282 280c172 0 270 -100 270 -264v-6h-130v10c0 83 -45 142 -140 142c-93 0 -150 -61 -150 -160v-172c0 -97 57 -160 150 -160c95 0 140 61 140 142v18h130v-14c0 -164 -98 -264 -270 -264zM332 754
c-45 0 -81 32 -81 80s36 80 81 80c47 0 81 -32 81 -80s-34 -80 -81 -80z" />
    <glyph glyph-name="Eth" unicode="&#xd0;" horiz-adv-x="666" 
d="M296 0h-223v116v0v468v0v116h223c188 0 288 -96 288 -284v-132c0 -188 -100 -284 -288 -284zM205 580v-460h93c107 0 154 59 154 160v140c0 103 -47 160 -154 160h-93zM386 306h-340v90h340v-90z" />
    <glyph glyph-name="Dcaron" unicode="&#x10e;" horiz-adv-x="666" 
d="M296 0h-223v116v0v468v0v116h223c188 0 288 -96 288 -284v-132c0 -188 -100 -284 -288 -284zM205 580v-460h93c107 0 154 59 154 160v140c0 103 -47 160 -154 160h-93zM398 758h-156l-114 130h134l49 -66h18l49 66h134z" />
    <glyph glyph-name="Dcroat" unicode="&#x110;" horiz-adv-x="666" 
d="M296 0h-223v116v0v468v0v116h223c188 0 288 -96 288 -284v-132c0 -188 -100 -284 -288 -284zM205 580v-460h93c107 0 154 59 154 160v140c0 103 -47 160 -154 160h-93zM386 306h-340v90h340v-90z" />
    <glyph glyph-name="Egrave" unicode="&#xc8;" horiz-adv-x="554" 
d="M522 0h-456v700h450v-120h-318v-167h290v-120h-290v-173h324v-120zM158 888h146l70 -130h-112z" />
    <glyph glyph-name="Eacute" unicode="&#xc9;" horiz-adv-x="554" 
d="M522 0h-456v700h450v-120h-318v-167h290v-120h-290v-173h324v-120zM218 758l70 130h146l-104 -130h-112z" />
    <glyph glyph-name="Ecircumflex" unicode="&#xca;" horiz-adv-x="554" 
d="M522 0h-456v700h450v-120h-318v-167h290v-120h-290v-173h324v-120zM104 758l114 130h156l114 -130h-134l-49 66h-18l-49 -66h-134z" />
    <glyph glyph-name="Ecaron" unicode="&#x11a;" horiz-adv-x="554" 
d="M522 0h-456v700h450v-120h-318v-167h290v-120h-290v-173h324v-120zM104 888h134l49 -66h18l49 66h134l-114 -130h-156z" />
    <glyph glyph-name="Edieresis" unicode="&#xcb;" horiz-adv-x="554" 
d="M522 0h-456v700h450v-120h-318v-167h290v-120h-290v-173h324v-120zM407 754c-45 0 -81 31 -81 80s36 80 81 80c47 0 81 -31 81 -80s-34 -80 -81 -80zM185 754c-45 0 -81 31 -81 80s36 80 81 80c47 0 81 -31 81 -80s-34 -80 -81 -80z" />
    <glyph glyph-name="Emacron" unicode="&#x112;" horiz-adv-x="554" 
d="M522 0h-456v700h450v-120h-318v-167h290v-120h-290v-173h324v-120zM132 762v100h328v-100h-328z" />
    <glyph glyph-name="Ebreve" unicode="&#x114;" horiz-adv-x="554" 
d="M522 0h-456v700h450v-120h-318v-167h290v-120h-290v-173h324v-120zM296 752c-103 0 -164 51 -164 132v4h102v-4c0 -32 18 -58 62 -58s62 26 62 58v4h102v-4c0 -81 -61 -132 -164 -132z" />
    <glyph glyph-name="Edotaccent" unicode="&#x116;" horiz-adv-x="554" 
d="M522 0h-456v700h450v-120h-318v-167h290v-120h-290v-173h324v-120zM296 754c-45 0 -81 32 -81 80s36 80 81 80c47 0 81 -32 81 -80s-34 -80 -81 -80z" />
    <glyph glyph-name="Eogonek" unicode="&#x118;" horiz-adv-x="554" 
d="M522 0h-456v700h450v-120h-318v-167h290v-120h-290v-173h324v-120zM522 -170h-80c-45 0 -78 28 -78 69c0 20 4 44 9 65l13 56h81l-10 -55c-1 -5 -1 -10 -2 -15s-2 -9 -2 -14c0 -15 8 -22 23 -22h46v-84z" />
    <glyph glyph-name="Gcircumflex" unicode="&#x11c;" horiz-adv-x="662" 
d="M308 -14c-48 0 -91 11 -130 33c-78 43 -128 127 -128 247v168c0 180 109 280 282 280c172 0 270 -98 270 -254v-4h-130v8c0 78 -50 132 -140 132c-93 0 -150 -61 -150 -160v-172c0 -97 56 -162 152 -162s138 57 138 134v10h-166v112h296v-358h-122v67h-18
c-5 -11 -12 -23 -22 -36c-21 -25 -60 -45 -132 -45zM277 758h-134l114 130h156l114 -130h-134l-49 66h-18z" />
    <glyph glyph-name="Gbreve" unicode="&#x11e;" horiz-adv-x="662" 
d="M308 -14c-48 0 -91 11 -130 33c-78 43 -128 127 -128 247v168c0 180 109 280 282 280c172 0 270 -98 270 -254v-4h-130v8c0 78 -50 132 -140 132c-93 0 -150 -61 -150 -160v-172c0 -97 56 -162 152 -162s138 57 138 134v10h-166v112h296v-358h-122v67h-18
c-5 -11 -12 -23 -22 -36c-21 -25 -60 -45 -132 -45zM335 752c-103 0 -164 51 -164 132v4h102v-4c0 -32 18 -58 62 -58s62 26 62 58v4h102v-4c0 -81 -61 -132 -164 -132z" />
    <glyph glyph-name="Gdotaccent" unicode="&#x120;" horiz-adv-x="662" 
d="M308 -14c-48 0 -91 11 -130 33c-78 43 -128 127 -128 247v168c0 180 109 280 282 280c172 0 270 -98 270 -254v-4h-130v8c0 78 -50 132 -140 132c-93 0 -150 -61 -150 -160v-172c0 -97 56 -162 152 -162s138 57 138 134v10h-166v112h296v-358h-122v67h-18
c-5 -11 -12 -23 -22 -36c-21 -25 -60 -45 -132 -45zM335 754c-45 0 -81 32 -81 80s36 80 81 80c47 0 81 -32 81 -80s-34 -80 -81 -80z" />
    <glyph glyph-name="Hcircumflex" unicode="&#x124;" horiz-adv-x="656" 
d="M198 0h-132v700h132v-289h260v289h132v-700h-132v291h-260v-291zM136 758l114 130h156l114 -130h-134l-49 66h-18l-49 -66h-134z" />
    <glyph glyph-name="Hbar" unicode="&#x126;" horiz-adv-x="656" 
d="M198 0h-132v506h-78v90h78v104h132v-104h260v104h132v-104h78v-90h-78v-506h-132v291h-260v-291zM198 411h260v95h-260v-95z" />
    <glyph glyph-name="Igrave" unicode="&#xcc;" horiz-adv-x="264" 
d="M198 0h-132v700h132v-700zM-6 888h146l70 -130h-112z" />
    <glyph glyph-name="Iacute" unicode="&#xcd;" horiz-adv-x="264" 
d="M198 0h-132v700h132v-700zM54 758l70 130h146l-104 -130h-112z" />
    <glyph glyph-name="Icircumflex" unicode="&#xce;" horiz-adv-x="264" 
d="M198 0h-132v700h132v-700zM-60 758l114 130h156l114 -130h-134l-49 66h-18l-49 -66h-134z" />
    <glyph glyph-name="Itilde" unicode="&#x128;" horiz-adv-x="264" 
d="M198 0h-132v700h132v-700zM32 768l-17 -22l-64 51l32 43c24 32 50 50 87 50c32 0 48 -9 71 -28c7 -5 14 -11 21 -16c7 -6 15 -9 25 -9c21 0 33 16 45 31l17 22l64 -51l-32 -43c-24 -32 -50 -50 -87 -50c-32 0 -48 9 -71 28c-7 5 -13 11 -20 17c-7 5 -16 8 -26 8
c-21 0 -33 -16 -45 -31z" />
    <glyph glyph-name="Idieresis" unicode="&#xcf;" horiz-adv-x="264" 
d="M198 0h-132v700h132v-700zM243 754c-45 0 -81 31 -81 80s36 80 81 80c47 0 81 -31 81 -80s-34 -80 -81 -80zM21 754c-45 0 -81 31 -81 80s36 80 81 80c47 0 81 -31 81 -80s-34 -80 -81 -80z" />
    <glyph glyph-name="Imacron" unicode="&#x12a;" horiz-adv-x="264" 
d="M198 0h-132v700h132v-700zM-32 762v100h328v-100h-328z" />
    <glyph glyph-name="Idotaccent" unicode="&#x130;" horiz-adv-x="264" 
d="M198 0h-132v700h132v-700zM132 754c-45 0 -81 32 -81 80s36 80 81 80c47 0 81 -32 81 -80s-34 -80 -81 -80z" />
    <glyph glyph-name="Iogonek" unicode="&#x12e;" horiz-adv-x="264" 
d="M198 0h-132v700h132v-700zM228 -170h-80c-45 0 -78 28 -78 69c0 20 4 44 9 65l13 56h81l-10 -55c-1 -5 -1 -10 -2 -15s-2 -9 -2 -14c0 -15 8 -22 23 -22h46v-84z" />
    <glyph glyph-name="Ibreve" unicode="&#x12c;" horiz-adv-x="264" 
d="M198 0h-132v700h132v-700zM132 752c-103 0 -164 51 -164 132v4h102v-4c0 -32 18 -58 62 -58s62 26 62 58v4h102v-4c0 -81 -61 -132 -164 -132z" />
    <glyph glyph-name="Jcircumflex" unicode="&#x134;" horiz-adv-x="610" 
d="M267 -14c-144 0 -235 83 -235 224v66h132v-66c0 -63 36 -100 99 -100c59 0 93 36 93 100v370h-120v120h332v-120h-80v-370c0 -145 -84 -224 -221 -224zM344 758h-134l114 130h156l114 -130h-134l-49 66h-18z" />
    <glyph glyph-name="Lacute" unicode="&#x139;" horiz-adv-x="542" 
d="M518 0h-452v700h132v-580h320v-120zM54 758l70 130h146l-104 -130h-112z" />
    <glyph glyph-name="Lcaron" unicode="&#x13d;" horiz-adv-x="542" 
d="M518 0h-452v700h132v-580h320v-120zM254 498l8 202h120l-42 -202h-86z" />
    <glyph glyph-name="uni1E38" unicode="&#x1e38;" horiz-adv-x="542" 
d="M518 0h-452v700h132v-580h320v-120zM292 -214c-45 0 -81 32 -81 80s36 80 81 80c47 0 81 -32 81 -80s-34 -80 -81 -80zM296 762h-328v100h328v-100z" />
    <glyph glyph-name="Lslash" unicode="&#x141;" horiz-adv-x="612" 
d="M588 0h-452v264l-88 -43l-40 81l128 63v335h132v-269l88 43l40 -81l-128 -63v-210h320v-120z" />
    <glyph glyph-name="Ldot" unicode="&#x13f;" horiz-adv-x="542" 
d="M518 0h-452v700h132v-580h320v-120zM390 284c-45 0 -81 32 -81 80s36 80 81 80c47 0 81 -32 81 -80s-34 -80 -81 -80z" />
    <glyph glyph-name="Nacute" unicode="&#x143;" horiz-adv-x="670" 
d="M196 0h-130v700h251l139 -610h18v610h130v-700h-251l-139 610h-18v-610zM256 758l70 130h146l-104 -130h-112z" />
    <glyph glyph-name="Ncaron" unicode="&#x147;" horiz-adv-x="670" 
d="M196 0h-130v700h251l139 -610h18v610h130v-700h-251l-139 610h-18v-610zM142 888h134l49 -66h18l49 66h134l-114 -130h-156z" />
    <glyph glyph-name="Ntilde" unicode="&#xd1;" horiz-adv-x="670" 
d="M196 0h-130v700h251l139 -610h18v610h130v-700h-251l-139 610h-18v-610zM234 768l-17 -22l-64 51l32 43c24 32 50 50 87 50c32 0 48 -9 71 -28c7 -5 14 -11 21 -16c7 -6 15 -9 25 -9c21 0 33 16 45 31l17 22l64 -51l-32 -43c-24 -32 -50 -50 -87 -50c-32 0 -48 9 -71 28
c-7 5 -13 11 -20 17c-7 5 -16 8 -26 8c-21 0 -33 -16 -45 -31z" />
    <glyph glyph-name="Ograve" unicode="&#xd2;" horiz-adv-x="676" 
d="M338 -14c-176 0 -288 100 -288 280v168c0 180 112 280 288 280s288 -100 288 -280v-168c0 -180 -112 -280 -288 -280zM338 104c99 0 156 62 156 158v176c0 96 -57 158 -156 158c-97 0 -156 -62 -156 -158v-176c0 -96 59 -158 156 -158zM416 758h-112l-104 130h146z" />
    <glyph glyph-name="Oacute" unicode="&#xd3;" horiz-adv-x="676" 
d="M338 -14c-176 0 -288 100 -288 280v168c0 180 112 280 288 280s288 -100 288 -280v-168c0 -180 -112 -280 -288 -280zM338 104c99 0 156 62 156 158v176c0 96 -57 158 -156 158c-97 0 -156 -62 -156 -158v-176c0 -96 59 -158 156 -158zM372 758h-112l70 130h146z" />
    <glyph glyph-name="Ocircumflex" unicode="&#xd4;" horiz-adv-x="676" 
d="M338 -14c-176 0 -288 100 -288 280v168c0 180 112 280 288 280s288 -100 288 -280v-168c0 -180 -112 -280 -288 -280zM338 104c99 0 156 62 156 158v176c0 96 -57 158 -156 158c-97 0 -156 -62 -156 -158v-176c0 -96 59 -158 156 -158zM280 758h-134l114 130h156
l114 -130h-134l-49 66h-18z" />
    <glyph glyph-name="Otilde" unicode="&#xd5;" horiz-adv-x="676" 
d="M338 -14c-176 0 -288 100 -288 280v168c0 180 112 280 288 280s288 -100 288 -280v-168c0 -180 -112 -280 -288 -280zM338 104c99 0 156 62 156 158v176c0 96 -57 158 -156 158c-97 0 -156 -62 -156 -158v-176c0 -96 59 -158 156 -158zM238 768l-17 -22l-64 51l32 43
c24 32 50 50 87 50c32 0 48 -9 71 -28c7 -5 14 -11 21 -16c7 -6 15 -9 25 -9c21 0 33 16 45 31l17 22l64 -51l-32 -43c-24 -32 -50 -50 -87 -50c-32 0 -48 9 -71 28c-7 5 -13 11 -20 17c-7 5 -16 8 -26 8c-21 0 -33 -16 -45 -31z" />
    <glyph glyph-name="Odieresis" unicode="&#xd6;" horiz-adv-x="676" 
d="M338 -14c-176 0 -288 100 -288 280v168c0 180 112 280 288 280s288 -100 288 -280v-168c0 -180 -112 -280 -288 -280zM338 104c99 0 156 62 156 158v176c0 96 -57 158 -156 158c-97 0 -156 -62 -156 -158v-176c0 -96 59 -158 156 -158zM449 754c-45 0 -81 31 -81 80
s36 80 81 80c47 0 81 -31 81 -80s-34 -80 -81 -80zM227 754c-45 0 -81 31 -81 80s36 80 81 80c47 0 81 -31 81 -80s-34 -80 -81 -80z" />
    <glyph glyph-name="Omacron" unicode="&#x14c;" horiz-adv-x="676" 
d="M338 -14c-176 0 -288 100 -288 280v168c0 180 112 280 288 280s288 -100 288 -280v-168c0 -180 -112 -280 -288 -280zM338 104c99 0 156 62 156 158v176c0 96 -57 158 -156 158c-97 0 -156 -62 -156 -158v-176c0 -96 59 -158 156 -158zM502 762h-328v100h328v-100z" />
    <glyph glyph-name="Ohungarumlaut" unicode="&#x150;" horiz-adv-x="676" 
d="M338 -14c-176 0 -288 100 -288 280v168c0 180 112 280 288 280s288 -100 288 -280v-168c0 -180 -112 -280 -288 -280zM338 104c99 0 156 62 156 158v176c0 96 -57 158 -156 158c-97 0 -156 -62 -156 -158v-176c0 -96 59 -158 156 -158zM456 758h-104l71 130h130zM289 758
h-94l54 130h120z" />
    <glyph glyph-name="Obreve" unicode="&#x14e;" horiz-adv-x="676" 
d="M338 -14c-176 0 -288 100 -288 280v168c0 180 112 280 288 280s288 -100 288 -280v-168c0 -180 -112 -280 -288 -280zM338 104c99 0 156 62 156 158v176c0 96 -57 158 -156 158c-97 0 -156 -62 -156 -158v-176c0 -96 59 -158 156 -158zM338 752c-103 0 -164 51 -164 132
v4h102v-4c0 -32 18 -58 62 -58s62 26 62 58v4h102v-4c0 -81 -61 -132 -164 -132z" />
    <glyph glyph-name="Oslash" unicode="&#xd8;" horiz-adv-x="676" 
d="M338 -14c-176 0 -288 100 -288 280v168c0 180 112 280 288 280s288 -100 288 -280v-168c0 -180 -112 -280 -288 -280zM338 104c99 0 156 62 156 158v176c0 96 -57 158 -156 158c-97 0 -156 -62 -156 -158v-176c0 -96 59 -158 156 -158zM553 747l-346 -840l-83 34l346 840
z" />
    <glyph glyph-name="OE" unicode="&#x152;" horiz-adv-x="836" 
d="M804 0h-414v700h408v-120h-278v-167h250v-120h-250v-173h284v-120zM390 112v-112c-216 0 -340 113 -340 318v64c0 207 124 318 340 318v-112c-149 0 -208 -76 -208 -200v-76c0 -124 59 -200 208 -200z" />
    <glyph glyph-name="Racute" unicode="&#x154;" horiz-adv-x="632" 
d="M198 0h-132v700h304c135 0 218 -75 218 -187v-12c0 -84 -45 -135 -104 -159v-18c53 -3 84 -39 84 -95v-229h-132v210c0 32 -15 54 -54 54h-184v-264zM198 580v-196h158c63 0 100 37 100 93v10c0 56 -36 93 -100 93h-158zM335 758h-112l70 130h146z" />
    <glyph glyph-name="Rcaron" unicode="&#x158;" horiz-adv-x="632" 
d="M198 0h-132v700h304c135 0 218 -75 218 -187v-12c0 -84 -45 -135 -104 -159v-18c53 -3 84 -39 84 -95v-229h-132v210c0 32 -15 54 -54 54h-184v-264zM198 580v-196h158c63 0 100 37 100 93v10c0 56 -36 93 -100 93h-158zM379 758h-156l-114 130h134l49 -66h18l49 66h134z
" />
    <glyph glyph-name="uni1E5C" unicode="&#x1e5c;" horiz-adv-x="632" 
d="M198 0h-132v700h304c135 0 218 -75 218 -187v-12c0 -84 -45 -135 -104 -159v-18c53 -3 84 -39 84 -95v-229h-132v210c0 32 -15 54 -54 54h-184v-264zM198 580v-196h158c63 0 100 37 100 93v10c0 56 -36 93 -100 93h-158zM313 -214c-45 0 -81 32 -81 80s36 80 81 80
c47 0 81 -32 81 -80s-34 -80 -81 -80zM465 762h-328v100h328v-100z" />
    <glyph glyph-name="Sacute" unicode="&#x15a;" horiz-adv-x="606" 
d="M309 -14c-164 0 -275 92 -275 242v28h130v-28c0 -84 56 -126 145 -126c91 0 135 40 135 96c0 19 -5 35 -16 47c-22 24 -65 38 -125 51l-23 5c-48 11 -89 24 -123 41c-69 32 -107 83 -107 168c0 127 96 204 247 204c157 0 259 -80 259 -228v-30h-130v30
c0 79 -48 112 -129 112c-80 0 -117 -32 -117 -84c0 -53 41 -77 123 -95l23 -5c50 -11 94 -24 131 -41c74 -33 117 -86 117 -171c0 -129 -104 -216 -265 -216zM335 758h-112l70 130h146z" />
    <glyph glyph-name="Scircumflex" unicode="&#x15c;" horiz-adv-x="606" 
d="M309 -14c-164 0 -275 92 -275 242v28h130v-28c0 -84 56 -126 145 -126c91 0 135 40 135 96c0 19 -5 35 -16 47c-22 24 -65 38 -125 51l-23 5c-48 11 -89 24 -123 41c-69 32 -107 83 -107 168c0 127 96 204 247 204c157 0 259 -80 259 -228v-30h-130v30
c0 79 -48 112 -129 112c-80 0 -117 -32 -117 -84c0 -53 41 -77 123 -95l23 -5c50 -11 94 -24 131 -41c74 -33 117 -86 117 -171c0 -129 -104 -216 -265 -216zM243 758h-134l114 130h156l114 -130h-134l-49 66h-18z" />
    <glyph glyph-name="Scaron" unicode="&#x160;" horiz-adv-x="606" 
d="M309 -14c-164 0 -275 92 -275 242v28h130v-28c0 -84 56 -126 145 -126c91 0 135 40 135 96c0 19 -5 35 -16 47c-22 24 -65 38 -125 51l-23 5c-48 11 -89 24 -123 41c-69 32 -107 83 -107 168c0 127 96 204 247 204c157 0 259 -80 259 -228v-30h-130v30
c0 79 -48 112 -129 112c-80 0 -117 -32 -117 -84c0 -53 41 -77 123 -95l23 -5c50 -11 94 -24 131 -41c74 -33 117 -86 117 -171c0 -129 -104 -216 -265 -216zM379 758h-156l-114 130h134l49 -66h18l49 66h134z" />
    <glyph glyph-name="Scedilla" unicode="&#x15e;" horiz-adv-x="606" 
d="M309 -14c-164 0 -275 92 -275 242v28h130v-28c0 -84 56 -126 145 -126c91 0 135 40 135 96c0 19 -5 35 -16 47c-22 24 -65 38 -125 51l-23 5c-48 11 -89 24 -123 41c-69 32 -107 83 -107 168c0 127 96 204 247 204c157 0 259 -80 259 -228v-30h-130v30
c0 79 -48 112 -129 112c-80 0 -117 -32 -117 -84c0 -53 41 -77 123 -95l23 -5c50 -11 94 -24 131 -41c74 -33 117 -86 117 -171c0 -129 -104 -216 -265 -216zM315 -214c-43 0 -86 10 -115 19l20 75c25 -8 53 -16 89 -16c27 0 46 9 46 29c0 19 -14 27 -49 27h-38l7 100h86
l-4 -59c51 0 91 -28 91 -83c0 -61 -59 -92 -133 -92z" />
    <glyph glyph-name="Tcaron" unicode="&#x164;" horiz-adv-x="588" 
d="M360 0h-132v580h-204v120h540v-120h-204v-580zM102 888h134l49 -66h18l49 66h134l-114 -130h-156z" />
    <glyph glyph-name="Tbar" unicode="&#x166;" horiz-adv-x="588" 
d="M360 0h-132v306h-104v90h104v184h-204v120h540v-120h-204v-184h104v-90h-104v-306z" />
    <glyph glyph-name="Ugrave" unicode="&#xd9;" horiz-adv-x="672" 
d="M336 -14c-173 0 -274 99 -274 260v454h132v-458c0 -85 50 -138 142 -138s142 53 142 138v458h132v-454c0 -161 -101 -260 -274 -260zM414 758h-112l-104 130h146z" />
    <glyph glyph-name="Uacute" unicode="&#xda;" horiz-adv-x="672" 
d="M336 -14c-173 0 -274 99 -274 260v454h132v-458c0 -85 50 -138 142 -138s142 53 142 138v458h132v-454c0 -161 -101 -260 -274 -260zM370 758h-112l70 130h146z" />
    <glyph glyph-name="Ucircumflex" unicode="&#xdb;" horiz-adv-x="672" 
d="M336 -14c-173 0 -274 99 -274 260v454h132v-458c0 -85 50 -138 142 -138s142 53 142 138v458h132v-454c0 -161 -101 -260 -274 -260zM278 758h-134l114 130h156l114 -130h-134l-49 66h-18z" />
    <glyph glyph-name="Utilde" unicode="&#x168;" horiz-adv-x="672" 
d="M336 -14c-173 0 -274 99 -274 260v454h132v-458c0 -85 50 -138 142 -138s142 53 142 138v458h132v-454c0 -161 -101 -260 -274 -260zM236 768l-17 -22l-64 51l32 43c24 32 50 50 87 50c32 0 48 -9 71 -28c7 -5 14 -11 21 -16c7 -6 15 -9 25 -9c21 0 33 16 45 31l17 22
l64 -51l-32 -43c-24 -32 -50 -50 -87 -50c-32 0 -48 9 -71 28c-7 5 -13 11 -20 17c-7 5 -16 8 -26 8c-21 0 -33 -16 -45 -31z" />
    <glyph glyph-name="Udieresis" unicode="&#xdc;" horiz-adv-x="672" 
d="M336 -14c-173 0 -274 99 -274 260v454h132v-458c0 -85 50 -138 142 -138s142 53 142 138v458h132v-454c0 -161 -101 -260 -274 -260zM447 754c-45 0 -81 31 -81 80s36 80 81 80c47 0 81 -31 81 -80s-34 -80 -81 -80zM225 754c-45 0 -81 31 -81 80s36 80 81 80
c47 0 81 -31 81 -80s-34 -80 -81 -80z" />
    <glyph glyph-name="Umacron" unicode="&#x16a;" horiz-adv-x="672" 
d="M336 -14c-173 0 -274 99 -274 260v454h132v-458c0 -85 50 -138 142 -138s142 53 142 138v458h132v-454c0 -161 -101 -260 -274 -260zM500 762h-328v100h328v-100z" />
    <glyph glyph-name="Ubreve" unicode="&#x16c;" horiz-adv-x="672" 
d="M336 -14c-173 0 -274 99 -274 260v454h132v-458c0 -85 50 -138 142 -138s142 53 142 138v458h132v-454c0 -161 -101 -260 -274 -260zM336 752c-103 0 -164 51 -164 132v4h102v-4c0 -32 18 -58 62 -58s62 26 62 58v4h102v-4c0 -81 -61 -132 -164 -132z" />
    <glyph glyph-name="Uring" unicode="&#x16e;" horiz-adv-x="672" 
d="M336 -14c-173 0 -274 99 -274 260v454h132v-458c0 -85 50 -138 142 -138s142 53 142 138v458h132v-454c0 -161 -101 -260 -274 -260zM336 748c-57 0 -104 43 -104 100s45 100 104 100s104 -41 104 -100c0 -61 -49 -100 -104 -100zM336 818c19 0 30 13 30 30
s-11 30 -30 30c-17 0 -30 -13 -30 -30s13 -30 30 -30z" />
    <glyph glyph-name="Uhungarumlaut" unicode="&#x170;" horiz-adv-x="672" 
d="M336 -14c-173 0 -274 99 -274 260v454h132v-458c0 -85 50 -138 142 -138s142 53 142 138v458h132v-454c0 -161 -101 -260 -274 -260zM454 758h-104l71 130h130zM287 758h-94l54 130h120z" />
    <glyph glyph-name="Uogonek" unicode="&#x172;" horiz-adv-x="672" 
d="M336 -14c-173 0 -274 99 -274 260v454h132v-458c0 -85 50 -138 142 -138s142 53 142 138v458h132v-454c0 -161 -101 -260 -274 -260zM520 -170h-80c-45 0 -78 28 -78 69c0 20 4 44 9 65l13 56h81l-10 -55c-1 -5 -1 -10 -2 -15s-2 -9 -2 -14c0 -15 8 -22 23 -22h46v-84z
" />
    <glyph glyph-name="Wcircumflex" unicode="&#x174;" horiz-adv-x="898" 
d="M350 0h-228l-92 700h131l68 -608h18l88 608h228l88 -608h18l68 608h131l-92 -700h-228l-90 622h-18zM257 758l114 130h156l114 -130h-134l-49 66h-18l-49 -66h-134z" />
    <glyph glyph-name="Yacute" unicode="&#xdd;" horiz-adv-x="624" 
d="M378 0h-132v241l-238 459h147l148 -300h18l148 300h147l-238 -459v-241zM234 758l70 130h146l-104 -130h-112z" />
    <glyph glyph-name="Ycircumflex" unicode="&#x176;" horiz-adv-x="624" 
d="M378 0h-132v241l-238 459h147l148 -300h18l148 300h147l-238 -459v-241zM120 758l114 130h156l114 -130h-134l-49 66h-18l-49 -66h-134z" />
    <glyph glyph-name="Ydieresis" unicode="&#x178;" horiz-adv-x="624" 
d="M378 0h-132v241l-238 459h147l148 -300h18l148 300h147l-238 -459v-241zM423 754c-45 0 -81 31 -81 80s36 80 81 80c47 0 81 -31 81 -80s-34 -80 -81 -80zM201 754c-45 0 -81 31 -81 80s36 80 81 80c47 0 81 -31 81 -80s-34 -80 -81 -80z" />
    <glyph glyph-name="Zacute" unicode="&#x179;" horiz-adv-x="576" 
d="M532 0h-486v168l346 398v16h-336v118h474v-168l-346 -398v-16h348v-118zM215 758l70 130h146l-104 -130h-112z" />
    <glyph glyph-name="Zcaron" unicode="&#x17d;" horiz-adv-x="576" 
d="M532 0h-486v168l346 398v16h-336v118h474v-168l-346 -398v-16h348v-118zM101 888h134l49 -66h18l49 66h134l-114 -130h-156z" />
    <glyph glyph-name="Zdotaccent" unicode="&#x17b;" horiz-adv-x="576" 
d="M532 0h-486v168l346 398v16h-336v118h474v-168l-346 -398v-16h348v-118zM293 754c-45 0 -81 32 -81 80s36 80 81 80c47 0 81 -32 81 -80s-34 -80 -81 -80z" />
    <glyph glyph-name="Thorn" unicode="&#xde;" horiz-adv-x="604" 
d="M354 138h-156v120h143c63 0 105 37 105 97v10c0 60 -42 97 -105 97h-143v120h156c134 0 224 -84 224 -215v-14c0 -127 -90 -215 -224 -215zM198 0h-132v700h132v-700z" />
    <glyph glyph-name="Eng" unicode="&#x14a;" horiz-adv-x="670" 
d="M198 0h-132v700h251l137 -610h18v610h132v-700h-251l-137 610h-18v-610zM494 -200h-140v104h94c19 0 28 10 28 30v66h128v-88c0 -69 -43 -112 -110 -112z" />
    <glyph glyph-name="IJ" unicode="&#x132;" horiz-adv-x="730" 
d="M369 -14c-156 0 -253 83 -253 224v20h132v-20c0 -63 42 -100 117 -100c71 0 111 36 111 100v370h-80v120h292v-120h-80v-370c0 -145 -90 -224 -239 -224zM248 320h-132v260h-80v120h292v-120h-80v-260z" />
    <glyph glyph-name="uniE133" unicode="&#xe133;" horiz-adv-x="734" 
d="M369 -14c-156 0 -253 83 -253 224v20h132v-20c0 -63 42 -100 117 -100c71 0 111 36 111 100v370h-80v120h292v-120h-80v-370c0 -145 -90 -224 -239 -224zM248 320h-132v260h-80v120h292v-120h-80v-260zM216 758h-112l70 130h146zM576 758h-112l82 130h146z" />
    <glyph glyph-name="agrave" unicode="&#xe0;" horiz-adv-x="578" 
d="M224 -14c-111 0 -186 60 -186 159c0 98 70 155 192 155h136v28c0 47 -28 80 -92 80c-63 0 -91 -32 -100 -77l-116 39c25 80 95 140 218 140c131 0 212 -67 212 -191v-185c0 -20 9 -30 28 -30h40v-104h-84c-49 0 -85 26 -85 66v1h-19c-3 -8 -9 -18 -18 -31
c-19 -26 -57 -50 -126 -50zM246 88c71 0 120 43 120 108v10h-127c-47 0 -75 -21 -75 -57s29 -61 82 -61zM357 552h-110l-106 148h142z" />
    <glyph glyph-name="aacute" unicode="&#xe1;" horiz-adv-x="578" 
d="M224 -14c-111 0 -186 60 -186 159c0 98 70 155 192 155h136v28c0 47 -28 80 -92 80c-63 0 -91 -32 -100 -77l-116 39c25 80 95 140 218 140c131 0 212 -67 212 -191v-185c0 -20 9 -30 28 -30h40v-104h-84c-49 0 -85 26 -85 66v1h-19c-3 -8 -9 -18 -18 -31
c-19 -26 -57 -50 -126 -50zM246 88c71 0 120 43 120 108v10h-127c-47 0 -75 -21 -75 -57s29 -61 82 -61zM315 552h-110l74 148h142z" />
    <glyph glyph-name="acircumflex" unicode="&#xe2;" horiz-adv-x="578" 
d="M224 -14c-111 0 -186 60 -186 159c0 98 70 155 192 155h136v28c0 47 -28 80 -92 80c-63 0 -91 -32 -100 -77l-116 39c25 80 95 140 218 140c131 0 212 -67 212 -191v-185c0 -20 9 -30 28 -30h40v-104h-84c-49 0 -85 26 -85 66v1h-19c-3 -8 -9 -18 -18 -31
c-19 -26 -57 -50 -126 -50zM246 88c71 0 120 43 120 108v10h-127c-47 0 -75 -21 -75 -57s29 -61 82 -61zM216 552h-127l117 148h150l117 -148h-127l-56 74h-18z" />
    <glyph glyph-name="atilde" unicode="&#xe3;" horiz-adv-x="578" 
d="M224 -14c-111 0 -186 60 -186 159c0 98 70 155 192 155h136v28c0 47 -28 80 -92 80c-63 0 -91 -32 -100 -77l-116 39c25 80 95 140 218 140c131 0 212 -67 212 -191v-185c0 -20 9 -30 28 -30h40v-104h-84c-49 0 -85 26 -85 66v1h-19c-3 -8 -9 -18 -18 -31
c-19 -26 -57 -50 -126 -50zM246 88c71 0 120 43 120 108v10h-127c-47 0 -75 -21 -75 -57s29 -61 82 -61zM185 566l-16 -24l-69 44l33 57c20 35 50 49 83 49c29 0 50 -12 71 -31c12 -11 26 -24 43 -24c20 0 32 16 41 31l16 24l69 -44l-33 -57c-20 -33 -48 -49 -83 -49
c-29 0 -50 12 -71 31c-12 11 -24 24 -43 24c-20 0 -30 -16 -41 -31z" />
    <glyph glyph-name="adieresis" unicode="&#xe4;" horiz-adv-x="578" 
d="M224 -14c-111 0 -186 60 -186 159c0 98 70 155 192 155h136v28c0 47 -28 80 -92 80c-63 0 -91 -32 -100 -77l-116 39c25 80 95 140 218 140c131 0 212 -67 212 -191v-185c0 -20 9 -30 28 -30h40v-104h-84c-49 0 -85 26 -85 66v1h-19c-3 -8 -9 -18 -18 -31
c-19 -26 -57 -50 -126 -50zM246 88c71 0 120 43 120 108v10h-127c-47 0 -75 -21 -75 -57s29 -61 82 -61zM384 550c-45 0 -81 31 -81 80s36 80 81 80c47 0 81 -31 81 -80s-34 -80 -81 -80zM178 550c-45 0 -81 31 -81 80s36 80 81 80c47 0 81 -31 81 -80s-34 -80 -81 -80z" />
    <glyph glyph-name="amacron" unicode="&#x101;" horiz-adv-x="578" 
d="M224 -14c-111 0 -186 60 -186 159c0 98 70 155 192 155h136v28c0 47 -28 80 -92 80c-63 0 -91 -32 -100 -77l-116 39c25 80 95 140 218 140c131 0 212 -67 212 -191v-185c0 -20 9 -30 28 -30h40v-104h-84c-49 0 -85 26 -85 66v1h-19c-3 -8 -9 -18 -18 -31
c-19 -26 -57 -50 -126 -50zM246 88c71 0 120 43 120 108v10h-127c-47 0 -75 -21 -75 -57s29 -61 82 -61zM445 566h-328v100h328v-100z" />
    <glyph glyph-name="abreve" unicode="&#x103;" horiz-adv-x="578" 
d="M224 -14c-111 0 -186 60 -186 159c0 98 70 155 192 155h136v28c0 47 -28 80 -92 80c-63 0 -91 -32 -100 -77l-116 39c25 80 95 140 218 140c131 0 212 -67 212 -191v-185c0 -20 9 -30 28 -30h40v-104h-84c-49 0 -85 26 -85 66v1h-19c-3 -8 -9 -18 -18 -31
c-19 -26 -57 -50 -126 -50zM246 88c71 0 120 43 120 108v10h-127c-47 0 -75 -21 -75 -57s29 -61 82 -61zM281 548c-105 0 -166 55 -166 146v6h104v-4c0 -37 18 -66 62 -66s62 29 62 66v4h104v-6c0 -91 -61 -146 -166 -146z" />
    <glyph glyph-name="aring" unicode="&#xe5;" horiz-adv-x="578" 
d="M224 -14c-111 0 -186 60 -186 159c0 98 70 155 192 155h136v28c0 47 -28 80 -92 80c-63 0 -91 -32 -100 -77l-116 39c25 80 95 140 218 140c131 0 212 -67 212 -191v-185c0 -20 9 -30 28 -30h40v-104h-84c-49 0 -85 26 -85 66v1h-19c-3 -8 -9 -18 -18 -31
c-19 -26 -57 -50 -126 -50zM246 88c71 0 120 43 120 108v10h-127c-47 0 -75 -21 -75 -57s29 -61 82 -61zM281 539c-57 0 -104 43 -104 100s45 100 104 100s104 -41 104 -100c0 -61 -49 -100 -104 -100zM281 609c19 0 30 13 30 30s-11 30 -30 30c-17 0 -30 -13 -30 -30
s13 -30 30 -30z" />
    <glyph glyph-name="aogonek" unicode="&#x105;" horiz-adv-x="578" 
d="M224 -14c-111 0 -186 60 -186 159c0 98 70 155 192 155h136v28c0 47 -28 80 -92 80c-63 0 -91 -32 -100 -77l-116 39c25 80 95 140 218 140c131 0 212 -67 212 -191v-185c0 -20 9 -30 28 -30h40v-104h-84c-49 0 -85 26 -85 66v1h-19c-3 -8 -9 -18 -18 -31
c-19 -26 -57 -50 -126 -50zM246 88c71 0 120 43 120 108v10h-127c-47 0 -75 -21 -75 -57s29 -61 82 -61zM564 -170h-80c-45 0 -78 28 -78 69c0 20 4 44 9 65l13 56h81l-10 -55c-1 -5 -1 -10 -2 -15s-2 -9 -2 -14c0 -15 8 -22 23 -22h46v-84z" />
    <glyph glyph-name="ae" unicode="&#xe6;" horiz-adv-x="874" 
d="M615 -14c-47 0 -89 12 -124 36c-72 48 -113 133 -113 230c0 148 95 258 229 258c48 0 89 -11 122 -33c67 -44 103 -122 103 -211v-61h-341c3 -63 49 -109 118 -109c68 0 100 36 117 65l93 -67c-13 -18 -28 -35 -45 -52c-36 -33 -84 -56 -159 -56zM250 88
c71 0 118 45 118 110v7h-125c-51 0 -81 -20 -81 -56s31 -61 88 -61zM236 -14c-116 0 -198 57 -198 158c0 103 80 155 196 155h134v29c0 45 -34 80 -98 80c-61 0 -93 -33 -106 -77l-112 39c29 78 96 140 218 140c81 0 128 -28 160 -68h28l-22 -182l9 -185h-28
c-6 -10 -16 -22 -29 -36c-27 -28 -73 -53 -152 -53zM492 299h216c-1 63 -43 101 -106 101c-67 0 -107 -40 -110 -101z" />
    <glyph glyph-name="ccedilla" unicode="&#xe7;" horiz-adv-x="586" 
d="M303 -14c-153 0 -257 98 -257 255v14c0 157 104 255 257 255s228 -94 246 -192l-122 -26c-8 63 -48 106 -121 106c-78 0 -134 -51 -134 -145v-10c0 -94 56 -145 134 -145c76 0 113 43 124 107l122 -29c-9 -35 -23 -67 -44 -96c-42 -58 -110 -94 -205 -94zM303 -214
c-43 0 -86 10 -115 19l20 75c25 -8 53 -16 89 -16c27 0 46 9 46 29c0 19 -14 27 -49 27h-38l7 100h86l-4 -59c51 0 91 -28 91 -83c0 -61 -59 -92 -133 -92z" />
    <glyph glyph-name="cacute" unicode="&#x107;" horiz-adv-x="586" 
d="M303 -14c-153 0 -257 98 -257 255v14c0 157 104 255 257 255s228 -94 246 -192l-122 -26c-8 63 -48 106 -121 106c-78 0 -134 -51 -134 -145v-10c0 -94 56 -145 134 -145c76 0 113 43 124 107l122 -29c-9 -35 -23 -67 -44 -96c-42 -58 -110 -94 -205 -94zM337 552h-110
l74 148h142z" />
    <glyph glyph-name="ccircumflex" unicode="&#x109;" horiz-adv-x="586" 
d="M303 -14c-153 0 -257 98 -257 255v14c0 157 104 255 257 255s228 -94 246 -192l-122 -26c-8 63 -48 106 -121 106c-78 0 -134 -51 -134 -145v-10c0 -94 56 -145 134 -145c76 0 113 43 124 107l122 -29c-9 -35 -23 -67 -44 -96c-42 -58 -110 -94 -205 -94zM238 552h-127
l117 148h150l117 -148h-127l-56 74h-18z" />
    <glyph glyph-name="ccaron" unicode="&#x10d;" horiz-adv-x="586" 
d="M303 -14c-153 0 -257 98 -257 255v14c0 157 104 255 257 255s228 -94 246 -192l-122 -26c-8 63 -48 106 -121 106c-78 0 -134 -51 -134 -145v-10c0 -94 56 -145 134 -145c76 0 113 43 124 107l122 -29c-9 -35 -23 -67 -44 -96c-42 -58 -110 -94 -205 -94zM378 552h-150
l-117 148h127l56 -74h18l56 74h127z" />
    <glyph glyph-name="cdotaccent" unicode="&#x10b;" horiz-adv-x="586" 
d="M303 -14c-153 0 -257 98 -257 255v14c0 157 104 255 257 255s228 -94 246 -192l-122 -26c-8 63 -48 106 -121 106c-78 0 -134 -51 -134 -145v-10c0 -94 56 -145 134 -145c76 0 113 43 124 107l122 -29c-9 -35 -23 -67 -44 -96c-42 -58 -110 -94 -205 -94zM303 554
c-45 0 -81 32 -81 80s36 80 81 80c47 0 81 -32 81 -80s-34 -80 -81 -80z" />
    <glyph glyph-name="eth" unicode="&#xf0;" horiz-adv-x="616" 
d="M307 -14c-160 -2 -261 107 -261 256v10c0 147 99 246 225 248c68 1 111 -24 142 -60h18c-25 105 -114 184 -243 229l40 101c217 -72 340 -242 340 -481c0 -196 -102 -301 -261 -303zM306 98c79 0 134 55 134 147v4c0 95 -55 147 -134 147c-77 0 -134 -52 -134 -147v-4
c0 -93 57 -147 134 -147zM436 740l-154 -210l-58 43l153 211z" />
    <glyph glyph-name="dcaron" unicode="&#x10f;" horiz-adv-x="728" 
d="M270 -14c-39 0 -76 10 -110 30c-69 39 -114 116 -114 224v16c0 54 10 100 31 138c41 76 113 116 193 116c83 0 132 -32 154 -71h18v261h126v-700h-124v60h-18c-23 -37 -65 -74 -156 -74zM308 96c77 0 136 51 136 147v10c0 96 -57 147 -136 147c-77 0 -136 -51 -136 -147
v-10c0 -96 59 -147 136 -147zM710 498h-86l8 202h120z" />
    <glyph glyph-name="dcroat" unicode="&#x111;" horiz-adv-x="638" 
d="M270 -14c-39 0 -76 10 -110 30c-69 39 -114 116 -114 224v16c0 54 10 100 31 138c41 76 113 116 193 116c83 0 132 -32 154 -71h18v261h126v-700h-124v60h-18c-23 -37 -65 -74 -156 -74zM308 96c77 0 136 51 136 147v10c0 96 -57 147 -136 147c-77 0 -136 -51 -136 -147
v-10c0 -96 59 -147 136 -147zM638 556h-340v70h340v-70z" />
    <glyph glyph-name="egrave" unicode="&#xe8;" horiz-adv-x="577" 
d="M296 -14c-150 0 -250 100 -250 256v12c0 156 98 256 248 256c146 0 241 -103 241 -256v-43h-361c3 -68 57 -115 126 -115c71 0 99 37 116 74l103 -54c-9 -17 -23 -36 -40 -56c-36 -41 -92 -74 -183 -74zM175 305h232c-5 57 -49 95 -114 95c-68 0 -109 -38 -118 -95z
M370 552h-110l-106 148h142z" />
    <glyph glyph-name="eacute" unicode="&#xe9;" horiz-adv-x="577" 
d="M296 -14c-150 0 -250 100 -250 256v12c0 156 98 256 248 256c146 0 241 -103 241 -256v-43h-361c3 -68 57 -115 126 -115c71 0 99 37 116 74l103 -54c-9 -17 -23 -36 -40 -56c-36 -41 -92 -74 -183 -74zM175 305h232c-5 57 -49 95 -114 95c-68 0 -109 -38 -118 -95z
M328 552h-110l74 148h142z" />
    <glyph glyph-name="ecircumflex" unicode="&#xea;" horiz-adv-x="577" 
d="M296 -14c-150 0 -250 100 -250 256v12c0 156 98 256 248 256c146 0 241 -103 241 -256v-43h-361c3 -68 57 -115 126 -115c71 0 99 37 116 74l103 -54c-9 -17 -23 -36 -40 -56c-36 -41 -92 -74 -183 -74zM175 305h232c-5 57 -49 95 -114 95c-68 0 -109 -38 -118 -95z
M229 552h-127l117 148h150l117 -148h-127l-56 74h-18z" />
    <glyph glyph-name="ecaron" unicode="&#x11b;" horiz-adv-x="577" 
d="M296 -14c-150 0 -250 100 -250 256v12c0 156 98 256 248 256c146 0 241 -103 241 -256v-43h-361c3 -68 57 -115 126 -115c71 0 99 37 116 74l103 -54c-9 -17 -23 -36 -40 -56c-36 -41 -92 -74 -183 -74zM175 305h232c-5 57 -49 95 -114 95c-68 0 -109 -38 -118 -95z
M369 552h-150l-117 148h127l56 -74h18l56 74h127z" />
    <glyph glyph-name="edieresis" unicode="&#xeb;" horiz-adv-x="577" 
d="M296 -14c-150 0 -250 100 -250 256v12c0 156 98 256 248 256c146 0 241 -103 241 -256v-43h-361c3 -68 57 -115 126 -115c71 0 99 37 116 74l103 -54c-9 -17 -23 -36 -40 -56c-36 -41 -92 -74 -183 -74zM175 305h232c-5 57 -49 95 -114 95c-68 0 -109 -38 -118 -95z
M397 550c-45 0 -81 31 -81 80s36 80 81 80c47 0 81 -31 81 -80s-34 -80 -81 -80zM191 550c-45 0 -81 31 -81 80s36 80 81 80c47 0 81 -31 81 -80s-34 -80 -81 -80z" />
    <glyph glyph-name="emacron" unicode="&#x113;" horiz-adv-x="577" 
d="M296 -14c-150 0 -250 100 -250 256v12c0 156 98 256 248 256c146 0 241 -103 241 -256v-43h-361c3 -68 57 -115 126 -115c71 0 99 37 116 74l103 -54c-9 -17 -23 -36 -40 -56c-36 -41 -92 -74 -183 -74zM175 305h232c-5 57 -49 95 -114 95c-68 0 -109 -38 -118 -95z
M458 566h-328v100h328v-100z" />
    <glyph glyph-name="ebreve" unicode="&#x115;" horiz-adv-x="577" 
d="M296 -14c-150 0 -250 100 -250 256v12c0 156 98 256 248 256c146 0 241 -103 241 -256v-43h-361c3 -68 57 -115 126 -115c71 0 99 37 116 74l103 -54c-9 -17 -23 -36 -40 -56c-36 -41 -92 -74 -183 -74zM175 305h232c-5 57 -49 95 -114 95c-68 0 -109 -38 -118 -95z
M294 548c-105 0 -166 55 -166 146v6h104v-4c0 -37 18 -66 62 -66s62 29 62 66v4h104v-6c0 -91 -61 -146 -166 -146z" />
    <glyph glyph-name="eogonek" unicode="&#x119;" horiz-adv-x="577" 
d="M296 -14c-150 0 -250 100 -250 256v12c0 156 98 256 248 256c146 0 241 -103 241 -256v-43h-361c3 -68 57 -115 126 -115c71 0 99 37 116 74l103 -54c-9 -17 -23 -36 -40 -56c-36 -41 -92 -74 -183 -74zM175 305h232c-5 57 -49 95 -114 95c-68 0 -109 -38 -118 -95z
M480 -170h-80c-45 0 -78 28 -78 69c0 20 4 44 9 65l13 56h81l-10 -55c-1 -5 -1 -10 -2 -15s-2 -9 -2 -14c0 -15 8 -22 23 -22h46v-84z" />
    <glyph glyph-name="edotaccent" unicode="&#x117;" horiz-adv-x="577" 
d="M296 -14c-150 0 -250 100 -250 256v12c0 156 98 256 248 256c146 0 241 -103 241 -256v-43h-361c3 -68 57 -115 126 -115c71 0 99 37 116 74l103 -54c-9 -17 -23 -36 -40 -56c-36 -41 -92 -74 -183 -74zM175 305h232c-5 57 -49 95 -114 95c-68 0 -109 -38 -118 -95z
M294 554c-45 0 -81 32 -81 80s36 80 81 80c47 0 81 -32 81 -80s-34 -80 -81 -80z" />
    <glyph glyph-name="gcircumflex" unicode="&#x11d;" horiz-adv-x="638" 
d="M46 246v16c0 52 10 97 31 134c41 74 114 114 195 114c91 0 133 -39 154 -74h18v60h124v-544c0 -68 -43 -112 -110 -112h-332v110h288c19 0 28 10 28 30v89h-18c-22 -36 -66 -71 -152 -71c-41 0 -78 10 -112 30c-69 39 -114 114 -114 218zM308 108c77 0 136 52 136 141v10
c0 91 -57 141 -136 141c-77 0 -136 -50 -136 -141v-10c0 -89 59 -141 136 -141zM263 552h-127l117 148h150l117 -148h-127l-56 74h-18z" />
    <glyph glyph-name="gbreve" unicode="&#x11f;" horiz-adv-x="638" 
d="M46 246v16c0 52 10 97 31 134c41 74 114 114 195 114c91 0 133 -39 154 -74h18v60h124v-544c0 -68 -43 -112 -110 -112h-332v110h288c19 0 28 10 28 30v89h-18c-22 -36 -66 -71 -152 -71c-41 0 -78 10 -112 30c-69 39 -114 114 -114 218zM308 108c77 0 136 52 136 141v10
c0 91 -57 141 -136 141c-77 0 -136 -50 -136 -141v-10c0 -89 59 -141 136 -141zM328 548c-105 0 -166 55 -166 146v6h104v-4c0 -37 18 -66 62 -66s62 29 62 66v4h104v-6c0 -91 -61 -146 -166 -146z" />
    <glyph glyph-name="gdotaccent" unicode="&#x121;" horiz-adv-x="638" 
d="M46 246v16c0 52 10 97 31 134c41 74 114 114 195 114c91 0 133 -39 154 -74h18v60h124v-544c0 -68 -43 -112 -110 -112h-332v110h288c19 0 28 10 28 30v89h-18c-22 -36 -66 -71 -152 -71c-41 0 -78 10 -112 30c-69 39 -114 114 -114 218zM308 108c77 0 136 52 136 141v10
c0 91 -57 141 -136 141c-77 0 -136 -50 -136 -141v-10c0 -89 59 -141 136 -141zM328 554c-45 0 -81 32 -81 80s36 80 81 80c47 0 81 -32 81 -80s-34 -80 -81 -80z" />
    <glyph glyph-name="hcircumflex" unicode="&#x125;" horiz-adv-x="616" 
d="M196 0h-126v700h126v-265h18c18 35 61 69 143 69c114 0 193 -81 193 -208v-296h-126v286c0 75 -38 112 -106 112c-77 0 -122 -54 -122 -146v-252zM75 758h-134l114 130h156l114 -130h-134l-49 66h-18z" />
    <glyph glyph-name="hbar" unicode="&#x127;" horiz-adv-x="616" 
d="M196 0h-126v700h126v-265h18c18 35 61 69 143 69c114 0 193 -81 193 -208v-296h-126v286c0 75 -38 112 -106 112c-77 0 -122 -54 -122 -146v-252zM340 556h-340v70h340v-70z" />
    <glyph glyph-name="igrave" unicode="&#xec;" horiz-adv-x="266" 
d="M196 0h-126v496h126v-496zM-7 700h142l74 -148h-110z" />
    <glyph glyph-name="iacute" unicode="&#xed;" horiz-adv-x="266" 
d="M196 0h-126v496h126v-496zM57 552l74 148h142l-106 -148h-110z" />
    <glyph glyph-name="icircumflex" unicode="&#xee;" horiz-adv-x="266" 
d="M196 0h-126v496h126v-496zM-59 552l117 148h150l117 -148h-127l-56 74h-18l-56 -74h-127z" />
    <glyph glyph-name="itilde" unicode="&#x129;" horiz-adv-x="266" 
d="M196 0h-126v496h126v-496zM37 566l-16 -24l-69 44l33 57c20 35 50 49 83 49c29 0 50 -12 71 -31c12 -11 26 -24 43 -24c20 0 32 16 41 31l16 24l69 -44l-33 -57c-20 -33 -48 -49 -83 -49c-29 0 -50 12 -71 31c-12 11 -24 24 -43 24c-20 0 -30 -16 -41 -31z" />
    <glyph glyph-name="idieresis" unicode="&#xef;" horiz-adv-x="266" 
d="M196 0h-126v496h126v-496zM236 550c-45 0 -81 31 -81 80s36 80 81 80c47 0 81 -31 81 -80s-34 -80 -81 -80zM30 550c-45 0 -81 31 -81 80s36 80 81 80c47 0 81 -31 81 -80s-34 -80 -81 -80z" />
    <glyph glyph-name="imacron" unicode="&#x12b;" horiz-adv-x="266" 
d="M196 0h-126v496h126v-496zM-31 566v100h328v-100h-328z" />
    <glyph glyph-name="iogonek" unicode="&#x12f;" horiz-adv-x="266" 
d="M196 0h-126v496h126v-496zM133 554c-45 0 -81 32 -81 80s36 80 81 80c47 0 81 -32 81 -80s-34 -80 -81 -80zM229 -170h-80c-45 0 -78 28 -78 69c0 20 4 44 9 65l13 56h81l-10 -55c-1 -5 -1 -10 -2 -15s-2 -9 -2 -14c0 -15 8 -22 23 -22h46v-84z" />
    <glyph glyph-name="ibreve" unicode="&#x12d;" horiz-adv-x="266" 
d="M196 0h-126v496h126v-496zM133 548c-105 0 -166 55 -166 146v6h104v-4c0 -37 18 -66 62 -66s62 29 62 66v4h104v-6c0 -91 -61 -146 -166 -146z" />
    <glyph glyph-name="jcircumflex" unicode="&#x135;" horiz-adv-x="268" 
d="M88 -200h-110v108h66c19 0 28 10 28 30v558h126v-584c0 -68 -43 -112 -110 -112zM70 552h-127l117 148h150l117 -148h-127l-56 74h-18z" />
    <glyph glyph-name="kgreenlandic" unicode="&#x138;" horiz-adv-x="564" 
d="M196 0h-126v496h126v-183h18l164 183h164l-229 -240l237 -256h-162l-174 197h-18v-197z" />
    <glyph glyph-name="lacute" unicode="&#x13a;" horiz-adv-x="266" 
d="M196 0h-126v700h126v-700zM55 758l70 130h146l-104 -130h-112z" />
    <glyph glyph-name="lcaron" unicode="&#x13e;" horiz-adv-x="356" 
d="M196 0h-126v700h126v-700zM252 498l8 202h120l-42 -202h-86z" />
    <glyph glyph-name="uni1E39" unicode="&#x1e39;" horiz-adv-x="266" 
d="M196 0h-126v700h126v-700zM133 -214c-45 0 -81 32 -81 80s36 80 81 80c47 0 81 -32 81 -80s-34 -80 -81 -80zM297 762h-328v100h328v-100z" />
    <glyph glyph-name="lslash" unicode="&#x142;" horiz-adv-x="420" 
d="M404 359l-131 -64v-295h-126v233l-94 -46l-37 75l131 64v374h126v-312l94 46z" />
    <glyph glyph-name="ldot" unicode="&#x140;" horiz-adv-x="448" 
d="M196 0h-126v700h126v-700zM357 178c-45 0 -81 32 -81 80s36 80 81 80c47 0 81 -32 81 -80s-34 -80 -81 -80z" />
    <glyph glyph-name="nacute" unicode="&#x144;" horiz-adv-x="616" 
d="M196 0h-126v496h124v-65h18c16 35 56 73 145 73c114 0 193 -81 193 -208v-296h-126v286c0 75 -38 112 -106 112c-77 0 -122 -54 -122 -146v-252zM337 552h-110l74 148h142z" />
    <glyph glyph-name="ncaron" unicode="&#x148;" horiz-adv-x="616" 
d="M196 0h-126v496h124v-65h18c16 35 56 73 145 73c114 0 193 -81 193 -208v-296h-126v286c0 75 -38 112 -106 112c-77 0 -122 -54 -122 -146v-252zM378 552h-150l-117 148h127l56 -74h18l56 74h127z" />
    <glyph glyph-name="ntilde" unicode="&#xf1;" horiz-adv-x="616" 
d="M196 0h-126v496h124v-65h18c16 35 56 73 145 73c114 0 193 -81 193 -208v-296h-126v286c0 75 -38 112 -106 112c-77 0 -122 -54 -122 -146v-252zM207 566l-16 -24l-69 44l33 57c20 35 50 49 83 49c29 0 50 -12 71 -31c12 -11 26 -24 43 -24c20 0 32 16 41 31l16 24
l69 -44l-33 -57c-20 -33 -48 -49 -83 -49c-29 0 -50 12 -71 31c-12 11 -24 24 -43 24c-20 0 -30 -16 -41 -31z" />
    <glyph glyph-name="napostrophe" unicode="&#x149;" horiz-adv-x="616" 
d="M196 0h-126v496h124v-65h18c16 35 56 73 145 73c114 0 193 -81 193 -208v-296h-126v286c0 75 -38 112 -106 112c-77 0 -122 -54 -122 -146v-252zM103 550h-33v59h30c31 0 41 11 41 40v20h-11c-45 0 -77 30 -77 73c0 47 32 78 77 78c47 0 77 -31 77 -82v-88
c0 -67 -35 -100 -104 -100z" />
    <glyph glyph-name="ograve" unicode="&#xf2;" horiz-adv-x="612" 
d="M306 -14c-156 0 -260 98 -260 254v16c0 156 104 254 260 254s260 -98 260 -254v-16c0 -156 -104 -254 -260 -254zM306 98c77 0 134 52 134 145v10c0 93 -55 145 -134 145c-77 0 -134 -52 -134 -145v-10c0 -93 57 -145 134 -145zM382 552h-110l-106 148h142z" />
    <glyph glyph-name="oacute" unicode="&#xf3;" horiz-adv-x="612" 
d="M306 -14c-156 0 -260 98 -260 254v16c0 156 104 254 260 254s260 -98 260 -254v-16c0 -156 -104 -254 -260 -254zM306 98c77 0 134 52 134 145v10c0 93 -55 145 -134 145c-77 0 -134 -52 -134 -145v-10c0 -93 57 -145 134 -145zM340 552h-110l74 148h142z" />
    <glyph glyph-name="ocircumflex" unicode="&#xf4;" horiz-adv-x="612" 
d="M306 -14c-156 0 -260 98 -260 254v16c0 156 104 254 260 254s260 -98 260 -254v-16c0 -156 -104 -254 -260 -254zM306 98c77 0 134 52 134 145v10c0 93 -55 145 -134 145c-77 0 -134 -52 -134 -145v-10c0 -93 57 -145 134 -145zM241 552h-127l117 148h150l117 -148h-127
l-56 74h-18z" />
    <glyph glyph-name="otilde" unicode="&#xf5;" horiz-adv-x="612" 
d="M306 -14c-156 0 -260 98 -260 254v16c0 156 104 254 260 254s260 -98 260 -254v-16c0 -156 -104 -254 -260 -254zM306 98c77 0 134 52 134 145v10c0 93 -55 145 -134 145c-77 0 -134 -52 -134 -145v-10c0 -93 57 -145 134 -145zM210 566l-16 -24l-69 44l33 57
c20 35 50 49 83 49c29 0 50 -12 71 -31c12 -11 26 -24 43 -24c20 0 32 16 41 31l16 24l69 -44l-33 -57c-20 -33 -48 -49 -83 -49c-29 0 -50 12 -71 31c-12 11 -24 24 -43 24c-20 0 -30 -16 -41 -31z" />
    <glyph glyph-name="odieresis" unicode="&#xf6;" horiz-adv-x="612" 
d="M306 -14c-156 0 -260 98 -260 254v16c0 156 104 254 260 254s260 -98 260 -254v-16c0 -156 -104 -254 -260 -254zM306 98c77 0 134 52 134 145v10c0 93 -55 145 -134 145c-77 0 -134 -52 -134 -145v-10c0 -93 57 -145 134 -145zM409 550c-45 0 -81 31 -81 80s36 80 81 80
c47 0 81 -31 81 -80s-34 -80 -81 -80zM203 550c-45 0 -81 31 -81 80s36 80 81 80c47 0 81 -31 81 -80s-34 -80 -81 -80z" />
    <glyph glyph-name="omacron" unicode="&#x14d;" horiz-adv-x="612" 
d="M306 -14c-156 0 -260 98 -260 254v16c0 156 104 254 260 254s260 -98 260 -254v-16c0 -156 -104 -254 -260 -254zM306 98c77 0 134 52 134 145v10c0 93 -55 145 -134 145c-77 0 -134 -52 -134 -145v-10c0 -93 57 -145 134 -145zM470 566h-328v100h328v-100z" />
    <glyph glyph-name="ohungarumlaut" unicode="&#x151;" horiz-adv-x="612" 
d="M306 -14c-156 0 -260 98 -260 254v16c0 156 104 254 260 254s260 -98 260 -254v-16c0 -156 -104 -254 -260 -254zM306 98c77 0 134 52 134 145v10c0 93 -55 145 -134 145c-77 0 -134 -52 -134 -145v-10c0 -93 57 -145 134 -145zM424 552h-100l60 148h130zM261 552h-98
l48 148h118z" />
    <glyph glyph-name="obreve" unicode="&#x14f;" horiz-adv-x="612" 
d="M306 -14c-156 0 -260 98 -260 254v16c0 156 104 254 260 254s260 -98 260 -254v-16c0 -156 -104 -254 -260 -254zM306 98c77 0 134 52 134 145v10c0 93 -55 145 -134 145c-77 0 -134 -52 -134 -145v-10c0 -93 57 -145 134 -145zM306 548c-105 0 -166 55 -166 146v6h104
v-4c0 -37 18 -66 62 -66s62 29 62 66v4h104v-6c0 -91 -61 -146 -166 -146z" />
    <glyph glyph-name="oslash" unicode="&#xf8;" horiz-adv-x="612" 
d="M306 -14c-156 0 -260 98 -260 254v16c0 156 104 254 260 254s260 -98 260 -254v-16c0 -156 -104 -254 -260 -254zM306 98c77 0 134 52 134 145v10c0 93 -55 145 -134 145c-77 0 -134 -52 -134 -145v-10c0 -93 57 -145 134 -145zM534 517l-386 -588l-70 46l386 588z" />
    <glyph glyph-name="oe" unicode="&#x153;" horiz-adv-x="984" 
d="M299 -14c-150 0 -253 99 -253 254v16c0 155 103 254 253 254c95 0 159 -38 198 -98h18c40 60 106 98 186 98c146 0 241 -103 241 -256v-43h-361c3 -68 57 -115 126 -115c71 0 99 37 116 74l103 -54c-9 -17 -23 -36 -40 -56c-35 -41 -91 -74 -179 -74
c-89 0 -159 39 -192 98h-18c-39 -60 -103 -98 -198 -98zM306 98c77 0 134 52 134 145v10c0 93 -55 145 -134 145c-77 0 -134 -52 -134 -145v-10c0 -93 57 -145 134 -145zM582 305h232c-5 57 -49 95 -114 95c-68 0 -110 -40 -118 -95z" />
    <glyph glyph-name="racute" unicode="&#x155;" horiz-adv-x="396" 
d="M196 0h-126v496h124v-56h18c15 40 51 58 96 58h60v-112h-62c-64 0 -110 -33 -110 -104v-282zM250 552h-110l74 148h142z" />
    <glyph glyph-name="rcaron" unicode="&#x159;" horiz-adv-x="396" 
d="M196 0h-126v496h124v-56h18c15 40 51 58 96 58h60v-112h-62c-64 0 -110 -33 -110 -104v-282zM291 552h-150l-117 148h127l56 -74h18l56 74h127z" />
    <glyph glyph-name="uni1E5D" unicode="&#x1e5d;" horiz-adv-x="396" 
d="M196 0h-126v496h124v-56h18c15 40 51 58 96 58h60v-112h-62c-64 0 -110 -33 -110 -104v-282zM135 -214c-45 0 -81 32 -81 80s36 80 81 80c47 0 81 -32 81 -80s-34 -80 -81 -80zM380 566h-328v100h328v-100z" />
    <glyph glyph-name="sacute" unicode="&#x15b;" horiz-adv-x="524" 
d="M276 -14c-129 0 -217 58 -234 162l116 30c14 -69 58 -92 118 -92c59 0 86 23 86 54s-25 45 -84 56l-28 5c-35 7 -66 16 -95 28c-57 23 -95 63 -95 128c0 99 79 153 196 153c111 0 187 -54 210 -134l-117 -36c-11 51 -45 70 -93 70s-74 -18 -74 -47c0 -32 29 -45 74 -53
l28 -5c37 -7 71 -15 102 -26c60 -22 98 -61 98 -130c0 -104 -81 -163 -208 -163zM295 552h-110l74 148h142z" />
    <glyph glyph-name="scircumflex" unicode="&#x15d;" horiz-adv-x="524" 
d="M276 -14c-129 0 -217 58 -234 162l116 30c14 -69 58 -92 118 -92c59 0 86 23 86 54s-25 45 -84 56l-28 5c-35 7 -66 16 -95 28c-57 23 -95 63 -95 128c0 99 79 153 196 153c111 0 187 -54 210 -134l-117 -36c-11 51 -45 70 -93 70s-74 -18 -74 -47c0 -32 29 -45 74 -53
l28 -5c37 -7 71 -15 102 -26c60 -22 98 -61 98 -130c0 -104 -81 -163 -208 -163zM196 552h-127l117 148h150l117 -148h-127l-56 74h-18z" />
    <glyph glyph-name="scaron" unicode="&#x161;" horiz-adv-x="524" 
d="M276 -14c-129 0 -217 58 -234 162l116 30c14 -69 58 -92 118 -92c59 0 86 23 86 54s-25 45 -84 56l-28 5c-35 7 -66 16 -95 28c-57 23 -95 63 -95 128c0 99 79 153 196 153c111 0 187 -54 210 -134l-117 -36c-11 51 -45 70 -93 70s-74 -18 -74 -47c0 -32 29 -45 74 -53
l28 -5c37 -7 71 -15 102 -26c60 -22 98 -61 98 -130c0 -104 -81 -163 -208 -163zM336 552h-150l-117 148h127l56 -74h18l56 74h127z" />
    <glyph glyph-name="scedilla" unicode="&#x15f;" horiz-adv-x="524" 
d="M276 -14c-129 0 -217 58 -234 162l116 30c14 -69 58 -92 118 -92c59 0 86 23 86 54s-25 45 -84 56l-28 5c-35 7 -66 16 -95 28c-57 23 -95 63 -95 128c0 99 79 153 196 153c111 0 187 -54 210 -134l-117 -36c-11 51 -45 70 -93 70s-74 -18 -74 -47c0 -32 29 -45 74 -53
l28 -5c37 -7 71 -15 102 -26c60 -22 98 -61 98 -130c0 -104 -81 -163 -208 -163zM265 -214c-43 0 -86 10 -115 19l20 75c25 -8 53 -16 89 -16c27 0 46 9 46 29c0 19 -14 27 -49 27h-38l7 100h86l-4 -59c51 0 91 -28 91 -83c0 -61 -59 -92 -133 -92z" />
    <glyph glyph-name="germandbls" unicode="&#xdf;" horiz-adv-x="651" 
d="M426 -14c-42 0 -77 7 -106 22c-57 28 -89 75 -101 119l114 37c11 -45 40 -76 93 -76c48 0 77 31 77 71s-28 58 -76 74l-42 15c-59 21 -85 55 -85 99c0 47 22 72 65 103c32 23 63 52 63 93c0 39 -37 65 -92 65c-22 0 -44 -5 -65 -16c-44 -22 -75 -71 -75 -158v-434h-126
v430c0 175 104 284 266 284c129 0 216 -74 216 -167c0 -29 -5 -53 -15 -73c-20 -41 -55 -68 -91 -92c-11 -7 -17 -13 -17 -22s9 -17 26 -23l25 -9c28 -10 53 -22 76 -36c44 -28 71 -69 71 -134c0 -100 -77 -172 -201 -172z" />
    <glyph glyph-name="longs" unicode="&#x17f;" horiz-adv-x="370" 
d="M258 0h-126v392h-106v104h106v92c0 68 45 112 110 112h130v-104h-86c-19 0 -28 -10 -28 -30v-566z" />
    <glyph glyph-name="tcaron" unicode="&#x165;" horiz-adv-x="456" 
d="M400 0h-140c-65 0 -110 44 -110 112v280h-124v104h124v154h126v-154h136v-104h-136v-258c0 -20 9 -30 28 -30h96v-104zM422 555h-86l8 202h120z" />
    <glyph glyph-name="tbar" unicode="&#x167;" horiz-adv-x="456" 
d="M400 0h-140c-65 0 -110 44 -110 112v280h-124v104h124v154h126v-154h136v-104h-136v-258c0 -20 9 -30 28 -30h96v-104zM412 208h-386v84h386v-84z" />
    <glyph glyph-name="ugrave" unicode="&#xf9;" horiz-adv-x="616" 
d="M259 -8c-113 0 -193 81 -193 208v296h126v-286c0 -75 38 -112 106 -112c77 0 122 54 122 146v252h126v-496h-124v65h-18c-16 -33 -56 -73 -145 -73zM382 552h-110l-106 148h142z" />
    <glyph glyph-name="uacute" unicode="&#xfa;" horiz-adv-x="616" 
d="M259 -8c-113 0 -193 81 -193 208v296h126v-286c0 -75 38 -112 106 -112c77 0 122 54 122 146v252h126v-496h-124v65h-18c-16 -33 -56 -73 -145 -73zM340 552h-110l74 148h142z" />
    <glyph glyph-name="ucircumflex" unicode="&#xfb;" horiz-adv-x="616" 
d="M259 -8c-113 0 -193 81 -193 208v296h126v-286c0 -75 38 -112 106 -112c77 0 122 54 122 146v252h126v-496h-124v65h-18c-16 -33 -56 -73 -145 -73zM241 552h-127l117 148h150l117 -148h-127l-56 74h-18z" />
    <glyph glyph-name="utilde" unicode="&#x169;" horiz-adv-x="616" 
d="M259 -8c-113 0 -193 81 -193 208v296h126v-286c0 -75 38 -112 106 -112c77 0 122 54 122 146v252h126v-496h-124v65h-18c-16 -33 -56 -73 -145 -73zM210 566l-16 -24l-69 44l33 57c20 35 50 49 83 49c29 0 50 -12 71 -31c12 -11 26 -24 43 -24c20 0 32 16 41 31l16 24
l69 -44l-33 -57c-20 -33 -48 -49 -83 -49c-29 0 -50 12 -71 31c-12 11 -24 24 -43 24c-20 0 -30 -16 -41 -31z" />
    <glyph glyph-name="udieresis" unicode="&#xfc;" horiz-adv-x="616" 
d="M259 -8c-113 0 -193 81 -193 208v296h126v-286c0 -75 38 -112 106 -112c77 0 122 54 122 146v252h126v-496h-124v65h-18c-16 -33 -56 -73 -145 -73zM409 550c-45 0 -81 31 -81 80s36 80 81 80c47 0 81 -31 81 -80s-34 -80 -81 -80zM203 550c-45 0 -81 31 -81 80
s36 80 81 80c47 0 81 -31 81 -80s-34 -80 -81 -80z" />
    <glyph glyph-name="umacron" unicode="&#x16b;" horiz-adv-x="616" 
d="M259 -8c-113 0 -193 81 -193 208v296h126v-286c0 -75 38 -112 106 -112c77 0 122 54 122 146v252h126v-496h-124v65h-18c-16 -33 -56 -73 -145 -73zM470 566h-328v100h328v-100z" />
    <glyph glyph-name="ubreve" unicode="&#x16d;" horiz-adv-x="616" 
d="M259 -8c-113 0 -193 81 -193 208v296h126v-286c0 -75 38 -112 106 -112c77 0 122 54 122 146v252h126v-496h-124v65h-18c-16 -33 -56 -73 -145 -73zM306 548c-105 0 -166 55 -166 146v6h104v-4c0 -37 18 -66 62 -66s62 29 62 66v4h104v-6c0 -91 -61 -146 -166 -146z" />
    <glyph glyph-name="uring" unicode="&#x16f;" horiz-adv-x="616" 
d="M259 -8c-113 0 -193 81 -193 208v296h126v-286c0 -75 38 -112 106 -112c77 0 122 54 122 146v252h126v-496h-124v65h-18c-16 -33 -56 -73 -145 -73zM306 539c-57 0 -104 43 -104 100s45 100 104 100s104 -41 104 -100c0 -61 -49 -100 -104 -100zM306 609
c19 0 30 13 30 30s-11 30 -30 30c-17 0 -30 -13 -30 -30s13 -30 30 -30z" />
    <glyph glyph-name="uhungarumlaut" unicode="&#x171;" horiz-adv-x="616" 
d="M259 -8c-113 0 -193 81 -193 208v296h126v-286c0 -75 38 -112 106 -112c77 0 122 54 122 146v252h126v-496h-124v65h-18c-16 -33 -56 -73 -145 -73zM424 552h-100l60 148h130zM261 552h-98l48 148h118z" />
    <glyph glyph-name="uogonek" unicode="&#x173;" horiz-adv-x="616" 
d="M259 -8c-113 0 -193 81 -193 208v296h126v-286c0 -75 38 -112 106 -112c77 0 122 54 122 146v252h126v-496h-124v65h-18c-16 -33 -56 -73 -145 -73zM580 -170h-80c-45 0 -78 28 -78 69c0 20 4 44 9 65l13 56h81l-10 -55c-1 -5 -1 -10 -2 -15s-2 -9 -2 -14
c0 -15 8 -22 23 -22h46v-84z" />
    <glyph glyph-name="wcircumflex" unicode="&#x175;" horiz-adv-x="784" 
d="M319 0h-209l-70 496h125l44 -411h18l64 411h202l64 -411h18l44 411h125l-70 -496h-209l-64 411h-18zM200 552l117 148h150l117 -148h-127l-56 74h-18l-56 -74h-127z" />
    <glyph glyph-name="yacute" unicode="&#xfd;" horiz-adv-x="616" 
d="M436 -160h-312v110h270c19 0 28 10 28 30v85h-18c-18 -38 -61 -73 -145 -73c-113 0 -193 81 -193 208v296h126v-286c0 -75 38 -112 106 -112c77 0 122 54 122 146v252h126v-544c0 -68 -43 -112 -110 -112zM340 552h-110l74 148h142z" />
    <glyph glyph-name="ycircumflex" unicode="&#x177;" horiz-adv-x="616" 
d="M436 -160h-312v110h270c19 0 28 10 28 30v85h-18c-18 -38 -61 -73 -145 -73c-113 0 -193 81 -193 208v296h126v-286c0 -75 38 -112 106 -112c77 0 122 54 122 146v252h126v-544c0 -68 -43 -112 -110 -112zM241 552h-127l117 148h150l117 -148h-127l-56 74h-18z" />
    <glyph glyph-name="ydieresis" unicode="&#xff;" horiz-adv-x="616" 
d="M436 -160h-312v110h270c19 0 28 10 28 30v85h-18c-18 -38 -61 -73 -145 -73c-113 0 -193 81 -193 208v296h126v-286c0 -75 38 -112 106 -112c77 0 122 54 122 146v252h126v-544c0 -68 -43 -112 -110 -112zM409 550c-45 0 -81 31 -81 80s36 80 81 80c47 0 81 -31 81 -80
s-34 -80 -81 -80zM203 550c-45 0 -81 31 -81 80s36 80 81 80c47 0 81 -31 81 -80s-34 -80 -81 -80z" />
    <glyph glyph-name="zacute" unicode="&#x17a;" horiz-adv-x="518" 
d="M470 0h-418v150l272 226v16h-262v104h400v-150l-272 -226v-16h280v-104zM184 552l74 148h142l-106 -148h-110z" />
    <glyph glyph-name="zcaron" unicode="&#x17e;" horiz-adv-x="518" 
d="M470 0h-418v150l272 226v16h-262v104h400v-150l-272 -226v-16h280v-104zM68 700h127l56 -74h18l56 74h127l-117 -148h-150z" />
    <glyph glyph-name="zdotaccent" unicode="&#x17c;" horiz-adv-x="518" 
d="M470 0h-418v150l272 226v16h-262v104h400v-150l-272 -226v-16h280v-104zM260 554c-45 0 -81 32 -81 80s36 80 81 80c47 0 81 -32 81 -80s-34 -80 -81 -80z" />
    <glyph glyph-name="thorn" unicode="&#xfe;" horiz-adv-x="638" 
d="M196 -200h-126v900h126v-261h18c24 39 69 71 154 71c40 0 77 -10 111 -29c68 -40 113 -117 113 -225v-16c0 -54 -10 -100 -31 -138c-41 -76 -113 -116 -193 -116c-89 0 -131 35 -154 71h-18v-257zM330 96c79 0 136 51 136 147v10c0 96 -57 147 -136 147
c-77 0 -136 -51 -136 -147v-10c0 -96 59 -147 136 -147z" />
    <glyph glyph-name="eng" unicode="&#x14b;" horiz-adv-x="616" 
d="M196 0h-126v496h124v-65h18c16 35 56 73 145 73c114 0 193 -81 193 -208v-296h-126v286c0 75 -38 112 -106 112c-77 0 -122 -54 -122 -146v-252zM440 -200h-126v108h82c19 0 28 10 28 30v62h126v-88c0 -67 -43 -112 -110 -112z" />
    <glyph glyph-name="ij" unicode="&#x133;" horiz-adv-x="534" 
d="M196 0h-126v496h126v-496zM133 554c-45 0 -81 32 -81 80s36 80 81 80c47 0 81 -32 81 -80s-34 -80 -81 -80zM354 -200h-110v108h66c19 0 28 10 28 30v558h126v-584c0 -68 -43 -112 -110 -112zM401 554c-45 0 -81 32 -81 80s36 80 81 80c47 0 81 -32 81 -80
s-34 -80 -81 -80z" />
    <glyph glyph-name="uniE132" unicode="&#xe132;" horiz-adv-x="534" 
d="M196 0h-126v496h126v-496zM167 552h-110l74 148h142zM354 -200h-110v108h66c19 0 28 10 28 30v558h126v-584c0 -68 -43 -112 -110 -112zM435 552h-110l74 148h142z" />
    <glyph glyph-name="uni0251" unicode="&#x251;" horiz-adv-x="660" 
d="M270 -14c-40 0 -77 10 -111 30c-68 39 -113 116 -113 224v16c0 54 10 100 31 138c41 76 114 116 193 116c91 0 133 -35 156 -74h18v60h124v-362c0 -20 9 -30 28 -30h40v-104h-100c-48 0 -83 28 -83 75v1h-18c-23 -49 -68 -90 -165 -90zM308 96c79 0 136 51 136 147v10
c0 96 -59 147 -136 147s-136 -51 -136 -147v-10c0 -96 59 -147 136 -147z" />
    <glyph glyph-name="pi" unicode="&#x3c0;" horiz-adv-x="578" 
d="M230 0h-126v392h-78v104h514v-104h-78v-258c0 -20 9 -30 28 -30h50v-104h-94c-65 0 -110 44 -110 112v280h-106v-392z" />
    <glyph glyph-name="ordfeminine" unicode="&#xaa;" horiz-adv-x="419" 
d="M161 340c-73 0 -127 39 -127 112c0 71 55 110 132 110h89v16c0 35 -16 58 -59 58c-41 0 -61 -23 -68 -50l-81 27c15 53 64 97 152 97s148 -44 148 -136v-131c0 -14 6 -21 19 -21h33v-72h-66c-35 0 -56 17 -59 45h-12c-7 -22 -40 -55 -101 -55zM179 414c47 0 76 22 76 71
v11h-80c-29 0 -49 -17 -49 -40c0 -24 20 -42 53 -42z" />
    <glyph glyph-name="ordmasculine" unicode="&#xba;" horiz-adv-x="436" 
d="M218 340c-112 0 -186 68 -186 185c0 119 74 185 186 185s186 -66 186 -185c0 -117 -74 -185 -186 -185zM218 416c56 0 92 37 92 109s-36 109 -92 109s-92 -37 -92 -109s36 -109 92 -109z" />
    <glyph glyph-name="dagger" unicode="&#x2020;" horiz-adv-x="570" 
d="M348 0h-126v392h-160v104h160v204h126v-204h160v-104h-160v-392z" />
    <glyph glyph-name="daggerdbl" unicode="&#x2021;" horiz-adv-x="570" 
d="M348 0h-126v180h-160v104h160v134h-160v104h160v178h126v-178h160v-104h-160v-134h160v-104h-160v-180z" />
    <glyph glyph-name="section" unicode="&#xa7;" horiz-adv-x="474" 
d="M240 -14c-129 0 -210 79 -210 198v14h108v-12c0 -59 32 -98 101 -98c57 0 85 21 85 64c0 40 -22 60 -93 73c-112 20 -179 69 -179 165c0 32 8 59 21 82c-14 22 -21 48 -21 78v6c0 98 74 158 180 158c115 0 194 -63 194 -166v-22h-108v12c0 42 -23 74 -83 74
c-45 0 -73 -21 -73 -56c0 -43 44 -58 101 -69c120 -21 171 -75 171 -163c0 -33 -6 -62 -18 -86c12 -21 18 -46 18 -74v-8c0 -100 -70 -170 -194 -170zM320 309c1 1 1 3 1 5v6c0 35 -19 57 -90 69c-23 4 -44 10 -65 17c-2 -4 -3 -9 -3 -16c0 -41 45 -56 100 -67
c23 -4 38 -7 57 -14z" />
    <glyph glyph-name="paragraph" unicode="&#xb6;" horiz-adv-x="614" 
d="M362 0h-108v284h-26c-125 0 -212 85 -212 202v12c0 121 90 202 218 202h314v-700h-108v598h-78v-598zM222 386h32v212h-32c-57 0 -98 -40 -98 -103v-6c0 -63 45 -103 98 -103z" />
    <glyph glyph-name="copyright" unicode="&#xa9;" horiz-adv-x="720" 
d="M370 -12h-20c-186 0 -300 112 -300 302v120c0 190 114 302 300 302h20c186 0 300 -112 300 -302v-120c0 -190 -114 -302 -300 -302zM352 84h16c128 0 200 72 200 204v124c0 132 -72 204 -200 204h-16c-128 0 -200 -72 -200 -204v-124c0 -132 72 -204 200 -204zM362 154
c-85 0 -140 54 -140 150v94c0 96 55 150 140 150c95 0 138 -56 138 -140v-14h-94v20c0 27 -13 44 -44 44c-29 0 -44 -17 -44 -44v-126c0 -27 15 -44 44 -44c31 0 44 17 44 44v20h94v-14c0 -84 -43 -140 -138 -140z" />
    <glyph glyph-name="registered" unicode="&#xae;" horiz-adv-x="516" 
d="M258 298c-122 0 -210 85 -210 208s88 208 210 208s210 -85 210 -208s-88 -208 -210 -208zM258 340c100 0 166 66 166 166s-66 166 -166 166s-166 -66 -166 -166s66 -166 166 -166zM228 397h-42v222h85c49 0 75 -28 75 -60c0 -25 -12 -45 -40 -56v-10c23 -1 32 -15 32 -38
v-58h-42v60c0 14 -7 21 -21 21h-47v-81zM228 581v-65h43c23 0 33 16 33 33c0 19 -10 32 -33 32h-43z" />
    <glyph glyph-name="trademark" unicode="&#x2122;" horiz-adv-x="552" 
d="M294 478h-42v222h80l42 -184h10l42 184h80v-222h-42v184h-10l-42 -184h-66l-42 184h-10v-184zM32 662v38h190v-38h-74v-184h-42v184h-74z" />
    <glyph glyph-name="uni2120" unicode="&#x2120;" horiz-adv-x="546" 
d="M288 478h-42v222h80l42 -184h10l42 184h80v-222h-42v184h-10l-42 -184h-66l-42 184h-10v-184zM129 474c-52 0 -87 27 -87 76v9h40v-9c0 -25 18 -41 47 -41c28 0 42 15 42 32c0 19 -16 27 -44 32l-10 2c-45 9 -70 25 -70 66c0 40 31 63 78 63s81 -23 81 -71v-10h-40v10
c0 24 -14 36 -41 36c-25 0 -37 -9 -37 -28c0 -15 13 -26 39 -31l10 -2c43 -9 75 -22 75 -66c0 -41 -32 -68 -83 -68z" />
    <glyph glyph-name="numbersign" unicode="#" horiz-adv-x="636" 
d="M262 0h-114v186h-108v108h108v112h-108v108h108v186h114v-186h112v186h114v-186h108v-108h-108v-112h108v-108h-108v-186h-114v186h-112v-186zM262 294h112v112h-112v-112z" />
    <glyph glyph-name="currency" unicode="&#xa4;" 
d="M176 139l-61 -61l-77 77l61 61c-25 39 -39 83 -39 134c0 49 14 95 39 134l-61 61l77 77l61 -61c39 24 83 39 134 39c49 0 95 -15 134 -39l61 61l77 -77l-61 -61c24 -39 39 -85 39 -134c0 -51 -15 -95 -39 -134l61 -61l-77 -77l-61 61c-39 -25 -85 -39 -134 -39
c-51 0 -95 14 -134 39zM310 208c81 0 142 61 142 142s-61 142 -142 142c-76 0 -142 -58 -142 -142c0 -76 58 -142 142 -142z" />
    <glyph glyph-name="dollar" unicode="$" horiz-adv-x="606" 
d="M309 -14c-164 0 -275 92 -275 242v28h130v-28c0 -84 56 -126 145 -126c91 0 135 40 135 96c0 19 -5 35 -16 47c-21 24 -63 38 -123 51l-23 5c-48 11 -89 24 -123 41c-69 32 -107 83 -107 168c0 127 96 204 247 204c157 0 259 -80 259 -228v-30h-130v30
c0 79 -48 112 -129 112c-80 0 -117 -32 -117 -84c0 -53 41 -77 123 -95l23 -5c50 -11 93 -24 130 -41c73 -33 116 -86 116 -171c0 -129 -104 -216 -265 -216zM368 -116h-120v932h120v-932z" />
    <glyph glyph-name="sterling" unicode="&#xa3;" horiz-adv-x="638" 
d="M586 0h-534v114h74v172h-70v102h70v106c0 139 88 220 228 220s228 -81 228 -220v-62h-126v66c0 64 -39 102 -102 102c-61 0 -102 -38 -102 -102v-110h100v-102h-100v-172h334v-114z" />
    <glyph glyph-name="yen" unicode="&#xa5;" 
d="M376 0h-132v106h-161v102h161v54h-161v102h94l-179 336h150l153 -298h18l153 298h150l-179 -336h94v-102h-161v-54h161v-102h-161v-106z" />
    <glyph glyph-name="cent" unicode="&#xa2;" horiz-adv-x="598" 
d="M307 -14c-153 0 -257 98 -257 255v14c0 157 104 255 257 255s228 -94 246 -192l-122 -26c-8 63 -48 106 -121 106c-78 0 -134 -51 -134 -145v-10c0 -94 56 -145 134 -145c76 0 113 43 124 107l122 -29c-9 -35 -23 -67 -44 -96c-42 -58 -110 -94 -205 -94zM365 -116h-112
v728h112v-728z" />
    <glyph glyph-name="fraction" unicode="&#x2044;" horiz-adv-x="638" 
d="M622 655l-539 -665l-67 55l539 665z" />
    <glyph glyph-name="percent" unicode="%" horiz-adv-x="758" 
d="M686 652l-538 -665l-76 61l538 665zM570 -10c-101 0 -162 58 -162 151v7c0 95 61 152 162 152c99 0 162 -57 162 -152v-7c0 -93 -61 -151 -162 -151zM570 72c39 0 62 26 62 65v16c0 39 -23 65 -62 65s-62 -26 -62 -65v-16c0 -39 23 -65 62 -65zM188 400
c-101 0 -162 58 -162 151v7c0 95 61 152 162 152c99 0 162 -57 162 -152v-7c0 -93 -61 -151 -162 -151zM188 482c39 0 62 26 62 65v16c0 39 -23 65 -62 65s-62 -26 -62 -65v-16c0 -39 23 -65 62 -65z" />
    <glyph glyph-name="perthousand" unicode="&#x2030;" horiz-adv-x="954" 
d="M686 652l-538 -665l-76 61l538 665zM551 -10c-89 0 -141 59 -141 152v6c0 95 52 152 141 152s135 -57 135 -152v-6c0 -93 -46 -152 -135 -152zM562 72c35 0 58 27 58 67v12c0 40 -23 67 -58 67s-58 -27 -58 -67v-12c0 -40 23 -67 58 -67zM188 400
c-101 0 -162 58 -162 151v7c0 95 61 152 162 152c99 0 162 -57 162 -152v-7c0 -93 -61 -151 -162 -151zM188 482c39 0 62 26 62 65v16c0 39 -23 65 -62 65s-62 -26 -62 -65v-16c0 -39 23 -65 62 -65zM678 42h-18v206h18v-206zM776 72c35 0 58 27 58 67v12
c0 40 -23 67 -58 67s-58 -27 -58 -67v-12c0 -40 23 -67 58 -67zM787 -10c-89 0 -135 59 -135 152v6c0 95 46 152 135 152c91 0 141 -57 141 -152v-6c0 -93 -50 -152 -141 -152z" />
    <glyph glyph-name="onequarter" unicode="&#xbc;" horiz-adv-x="830" 
d="M222 350h-92v272h-14l-15 -78h-85l38 156h168v-350zM78 45l539 665l67 -55l-539 -665zM458 71v88l133 191h163v-203h60v-76h-60v-71h-94v71h-202zM558 147h102v139h-14l-88 -127v-12z" />
    <glyph glyph-name="onehalf" unicode="&#xbd;" horiz-adv-x="824" 
d="M222 350h-92v272h-14l-15 -78h-85l38 156h168v-350zM684 655l-539 -665l-67 55l539 665zM794 0h-308v44c0 80 42 123 131 143c59 13 85 29 85 57c0 27 -24 42 -56 42s-59 -15 -62 -56l-94 7c7 81 69 125 156 125s150 -47 150 -119s-54 -103 -139 -122
c-27 -5 -45 -11 -55 -18c-11 -7 -16 -16 -16 -27h208v-76z" />
    <glyph glyph-name="threequarters" unicode="&#xbe;" horiz-adv-x="891" 
d="M181 338c-88 0 -154 45 -161 122l93 10c4 -33 33 -56 68 -56c39 0 62 23 62 51c0 29 -23 45 -64 45h-66v66l85 36v14h-171v74h308v-78l-106 -50v-14c68 -3 108 -33 108 -97c0 -72 -68 -123 -156 -123zM745 655l-539 -665l-67 55l539 665zM815 0h-94v71h-202v88l133 191
h163v-203h60v-76h-60v-71zM619 159v-12h102v139h-14z" />
    <glyph glyph-name="uni2153" unicode="&#x2153;" horiz-adv-x="863" 
d="M222 350h-92v272h-14l-15 -78h-85l38 156h168v-350zM684 655l-539 -665l-67 55l539 665zM681 -12c-88 0 -154 45 -161 122l93 10c4 -33 33 -56 68 -56c39 0 62 23 62 51c0 29 -23 45 -64 45h-66v66l85 36v14h-171v74h308v-78l-106 -50v-14c68 -3 108 -33 108 -97
c0 -72 -68 -123 -156 -123z" />
    <glyph glyph-name="uni2154" unicode="&#x2154;" horiz-adv-x="945" 
d="M334 350h-308v44c0 80 42 123 131 143c59 13 85 29 85 57c0 27 -24 42 -56 42s-59 -15 -62 -56l-94 7c7 81 69 125 156 125s150 -47 150 -119s-54 -103 -139 -122c-27 -5 -45 -11 -55 -18c-11 -7 -16 -16 -16 -27h208v-76zM766 655l-539 -665l-67 55l539 665zM763 -12
c-88 0 -154 45 -161 122l93 10c4 -33 33 -56 68 -56c39 0 62 23 62 51c0 29 -23 45 -64 45h-66v66l85 36v14h-171v74h308v-78l-106 -50v-14c68 -3 108 -33 108 -97c0 -72 -68 -123 -156 -123z" />
    <glyph glyph-name="oneeighth" unicode="&#x215b;" horiz-adv-x="838" 
d="M222 350h-92v272h-14l-15 -78h-85l38 156h168v-350zM684 655l-539 -665l-67 55l539 665zM653 -12c-103 0 -159 44 -159 105c0 59 42 77 59 82v14c-19 7 -53 27 -53 75c0 59 59 98 152 98s152 -39 152 -98c0 -48 -34 -68 -53 -75v-14c17 -5 59 -23 59 -82
c0 -61 -56 -105 -157 -105zM652 64c41 0 66 15 66 39s-25 39 -66 39s-66 -15 -66 -39s25 -39 66 -39zM652 218c39 0 60 15 60 35s-22 33 -59 33c-39 0 -61 -13 -61 -33s23 -35 60 -35z" />
    <glyph glyph-name="threeeighths" unicode="&#x215c;" horiz-adv-x="899" 
d="M181 338c-88 0 -154 45 -161 122l93 10c4 -33 33 -56 68 -56c39 0 62 23 62 51c0 29 -23 45 -64 45h-66v66l85 36v14h-171v74h308v-78l-106 -50v-14c68 -3 108 -33 108 -97c0 -72 -68 -123 -156 -123zM745 655l-539 -665l-67 55l539 665zM714 -12
c-103 0 -159 44 -159 105c0 59 42 77 59 82v14c-19 7 -53 27 -53 75c0 59 59 98 152 98s152 -39 152 -98c0 -48 -34 -68 -53 -75v-14c17 -5 59 -23 59 -82c0 -61 -56 -105 -157 -105zM713 64c41 0 66 15 66 39s-25 39 -66 39s-66 -15 -66 -39s25 -39 66 -39zM713 218
c39 0 60 15 60 35s-22 33 -59 33c-39 0 -61 -13 -61 -33s23 -35 60 -35z" />
    <glyph glyph-name="fiveeighths" unicode="&#x215d;" horiz-adv-x="896" 
d="M182 338c-93 0 -150 50 -158 115l94 7c5 -25 29 -46 64 -46c36 0 60 21 60 52s-24 47 -53 47c-28 0 -42 -13 -50 -22h-105v209h292v-76h-198v-68h14c13 12 34 26 78 26c70 0 116 -45 116 -115c0 -75 -55 -129 -154 -129zM742 655l-539 -665l-67 55l539 665zM711 -12
c-103 0 -159 44 -159 105c0 59 42 77 59 82v14c-19 7 -53 27 -53 75c0 59 59 98 152 98s152 -39 152 -98c0 -48 -34 -68 -53 -75v-14c17 -5 59 -23 59 -82c0 -61 -56 -105 -157 -105zM710 64c41 0 66 15 66 39s-25 39 -66 39s-66 -15 -66 -39s25 -39 66 -39zM710 218
c39 0 60 15 60 35s-22 33 -59 33c-39 0 -61 -13 -61 -33s23 -35 60 -35z" />
    <glyph glyph-name="seveneighths" unicode="&#x215e;" horiz-adv-x="816" 
d="M169 350h-92c0 44 6 70 35 109l113 151v14h-213v76h310v-106l-132 -178c-17 -25 -21 -37 -21 -66zM662 655l-539 -665l-67 55l539 665zM631 -12c-103 0 -159 44 -159 105c0 59 42 77 59 82v14c-19 7 -53 27 -53 75c0 59 59 98 152 98s152 -39 152 -98
c0 -48 -34 -68 -53 -75v-14c17 -5 59 -23 59 -82c0 -61 -56 -105 -157 -105zM630 64c41 0 66 15 66 39s-25 39 -66 39s-66 -15 -66 -39s25 -39 66 -39zM630 218c39 0 60 15 60 35s-22 33 -59 33c-39 0 -61 -13 -61 -33s23 -35 60 -35z" />
    <glyph glyph-name="plus" unicode="+" 
d="M369 141h-118v152h-150v114h150v152h118v-152h150v-114h-150v-152z" />
    <glyph glyph-name="minus" unicode="&#x2212;" 
d="M519 293h-418v114h418v-114z" />
    <glyph glyph-name="multiply" unicode="&#xd7;" 
d="M310 269l-133 -131l-81 81l132 131l-132 131l81 81l133 -131l133 131l81 -81l-132 -131l132 -131l-81 -81z" />
    <glyph glyph-name="divide" unicode="&#xf7;" 
d="M519 293h-418v114h418v-114zM310 73c-48 0 -86 39 -86 86s38 86 86 86s86 -39 86 -86s-38 -86 -86 -86zM310 455c-48 0 -86 39 -86 86s38 86 86 86s86 -39 86 -86s-38 -86 -86 -86z" />
    <glyph glyph-name="equal" unicode="=" 
d="M519 380h-418v114h418v-114zM101 206v114h418v-114h-418z" />
    <glyph glyph-name="less" unicode="&#x3c;" 
d="M520 250v-120l-420 142v156l420 142v-120l-298 -91v-18z" />
    <glyph glyph-name="greater" unicode="&#x3e;" 
d="M520 272l-420 -142v120l298 91v18l-298 91v120l420 -142v-156z" />
    <glyph glyph-name="lessequal" unicode="&#x2264;" 
d="M520 250v-120l-420 142v156l420 142v-120l-298 -91v-18zM101 0v108h418v-108h-418z" />
    <glyph glyph-name="greaterequal" unicode="&#x2265;" 
d="M520 272l-420 -142v120l298 91v18l-298 91v120l420 -142v-156zM101 0v108h418v-108h-418z" />
    <glyph glyph-name="plusminus" unicode="&#xb1;" 
d="M369 162h-118v132h-150v114h150v132h118v-132h150v-114h-150v-132zM101 0v114h418v-114h-418z" />
    <glyph glyph-name="asciicircum" unicode="^" 
d="M210 424h-140l146 276h188l146 -276h-140l-91 196h-18z" />
    <glyph glyph-name="notequal" unicode="&#x2260;" 
d="M441 558l-21 -64h99v-114h-137l-20 -60h157v-114h-194l-33 -99l-113 35l21 64h-99v114h137l20 60h-157v114h194l33 99z" />
    <glyph glyph-name="asciitilde" unicode="~" 
d="M192 296l-79 -59l-70 93l120 90c27 21 55 37 94 37s64 -17 81 -41c19 -25 26 -35 43 -35c16 0 29 10 46 23l79 59l70 -93l-120 -90c-27 -21 -55 -37 -94 -37s-64 17 -81 41c-19 27 -24 35 -43 35c-16 0 -29 -10 -46 -23z" />
    <glyph glyph-name="approxequal" unicode="&#x2248;" 
d="M192 406l-79 -59l-70 93l120 90c27 21 55 37 94 37s64 -17 81 -41c19 -25 26 -35 43 -35c16 0 29 10 46 23l79 59l70 -93l-120 -90c-27 -21 -55 -37 -94 -37s-64 17 -81 41c-19 27 -24 35 -43 35c-16 0 -29 -10 -46 -23zM192 186l-79 -59l-70 93l120 90
c27 21 55 37 94 37s64 -17 81 -41c19 -25 26 -35 43 -35c16 0 29 10 46 23l79 59l70 -93l-120 -90c-27 -21 -55 -37 -94 -37s-64 17 -81 41c-19 27 -24 35 -43 35c-16 0 -29 -10 -46 -23z" />
    <glyph glyph-name="logicalnot" unicode="&#xac;" 
d="M520 162h-112v131h-308v114h420v-245z" />
    <glyph glyph-name="infinity" unicode="&#x221e;" 
d="M196 187c-93 0 -160 67 -160 163c0 94 64 163 160 163c45 0 84 -16 105 -48h18c21 32 60 48 105 48c96 0 160 -69 160 -163c0 -96 -67 -163 -160 -163c-45 0 -84 16 -105 48h-18c-21 -32 -60 -48 -105 -48zM201 293c31 0 55 22 55 57s-24 57 -55 57s-55 -22 -55 -57
s24 -57 55 -57zM419 293c31 0 55 22 55 57s-24 57 -55 57s-55 -22 -55 -57s24 -57 55 -57z" />
    <glyph glyph-name="degree" unicode="&#xb0;" horiz-adv-x="394" 
d="M197 394c-98 0 -165 70 -165 161c0 93 71 159 165 159s165 -66 165 -160c0 -90 -67 -160 -165 -160zM197 490c37 0 65 27 65 64c0 39 -28 64 -65 64s-65 -25 -65 -64c0 -37 28 -64 65 -64z" />
    <glyph glyph-name="partialdiff" unicode="&#x2202;" 
d="M305 -14c-149 0 -254 106 -254 256v12c0 151 93 256 220 256c63 0 97 -14 124 -46h18c-36 91 -133 136 -262 150l20 114c259 -27 398 -178 398 -437c0 -189 -100 -305 -264 -305zM306 106c79 0 130 50 130 148c0 82 -50 136 -130 136c-78 0 -129 -54 -129 -139v-6
c0 -87 51 -139 129 -139z" />
    <glyph glyph-name="lozenge" unicode="&#x25ca;" 
d="M411 0h-202l-165 350l165 350h202l165 -350zM184 350l117 -252h18l117 252l-117 252h-18z" />
    <glyph glyph-name="integral" unicode="&#x222b;" 
d="M272 -200h-150v114h98c18 0 27 10 27 30v654c0 57 44 102 101 102h150v-114h-98c-18 0 -27 -10 -27 -30v-654c0 -57 -44 -102 -101 -102z" />
    <glyph glyph-name="radical" unicode="&#x221a;" 
d="M424 0h-227l-56 298h-109v114h213l58 -327h16l144 771h131z" />
    <glyph glyph-name="summation" unicode="&#x2211;" 
d="M580 -200h-520v156l238 294l-238 294v156h520v-114h-379v-16l259 -320l-259 -320v-16h379v-114z" />
    <glyph glyph-name="product" unicode="&#x220f;" 
d="M184 -200h-126v900h504v-900h-126v786h-252v-786z" />
    <glyph glyph-name="uni03A9" unicode="&#x3a9;" 
d="M274 0h-234v114h98v18c-49 31 -86 85 -86 182v122c0 169 97 278 258 278c159 0 258 -105 258 -278v-122c0 -99 -35 -151 -86 -182v-18h98v-114h-234v144c28 7 49 19 62 34c27 31 32 79 32 154v106c0 107 -50 160 -130 160s-130 -53 -130 -160v-106c0 -37 2 -68 6 -93
c8 -50 32 -80 88 -95v-144z" />
    <glyph glyph-name="uni0394" unicode="&#x394;" 
d="M594 0h-568l173 700h222zM182 116h256l-119 481h-18z" />
    <glyph glyph-name="grave" unicode="`" horiz-adv-x="296" 
d="M256 552h-110l-106 148h142z" />
    <glyph glyph-name="acute" unicode="&#xb4;" horiz-adv-x="296" 
d="M150 552h-110l74 148h142z" />
    <glyph glyph-name="circumflex" unicode="&#x2c6;" horiz-adv-x="464" 
d="M167 552h-127l117 148h150l117 -148h-127l-56 74h-18z" />
    <glyph glyph-name="caron" unicode="&#x2c7;" horiz-adv-x="464" 
d="M307 552h-150l-117 148h127l56 -74h18l56 74h127z" />
    <glyph glyph-name="tilde" unicode="&#x2dc;" horiz-adv-x="436" 
d="M125 566l-16 -24l-69 44l33 57c20 35 50 49 83 49c29 0 50 -12 71 -31c12 -11 26 -24 43 -24c20 0 32 16 41 31l16 24l69 -44l-33 -57c-20 -33 -48 -49 -83 -49c-29 0 -50 12 -71 31c-12 11 -24 24 -43 24c-20 0 -30 -16 -41 -31z" />
    <glyph glyph-name="dieresis" unicode="&#xa8;" horiz-adv-x="448" 
d="M327 550c-45 0 -81 31 -81 80s36 80 81 80c47 0 81 -31 81 -80s-34 -80 -81 -80zM121 550c-45 0 -81 31 -81 80s36 80 81 80c47 0 81 -31 81 -80s-34 -80 -81 -80z" />
    <glyph glyph-name="macron" unicode="&#xaf;" horiz-adv-x="408" 
d="M368 566h-328v100h328v-100z" />
    <glyph glyph-name="breve" unicode="&#x2d8;" horiz-adv-x="412" 
d="M206 548c-105 0 -166 55 -166 146v6h104v-4c0 -37 18 -66 62 -66s62 29 62 66v4h104v-6c0 -91 -61 -146 -166 -146z" />
    <glyph glyph-name="ring" unicode="&#x2da;" horiz-adv-x="288" 
d="M144 539c-57 0 -104 43 -104 100s45 100 104 100s104 -41 104 -100c0 -61 -49 -100 -104 -100zM144 609c19 0 30 13 30 30s-11 30 -30 30c-17 0 -30 -13 -30 -30s13 -30 30 -30z" />
    <glyph glyph-name="hungarumlaut" unicode="&#x2dd;" horiz-adv-x="431" 
d="M301 552h-100l60 148h130zM40 552l48 148h118l-68 -148h-98z" />
    <glyph glyph-name="dotaccent" unicode="&#x2d9;" horiz-adv-x="242" 
d="M121 554c-45 0 -81 32 -81 80s36 80 81 80c47 0 81 -32 81 -80s-34 -80 -81 -80z" />
    <glyph glyph-name="cedilla" unicode="&#xb8;" horiz-adv-x="328" 
d="M155 -214c-43 0 -86 10 -115 19l20 75c25 -8 53 -16 89 -16c27 0 46 9 46 29c0 19 -14 27 -49 27h-38l7 100h86l-4 -59c51 0 91 -28 91 -83c0 -61 -59 -92 -133 -92z" />
    <glyph glyph-name="ogonek" unicode="&#x2db;" horiz-adv-x="238" 
d="M198 -170h-80c-45 0 -78 28 -78 69c0 20 4 44 9 65l13 56h81l-10 -55c-1 -5 -1 -10 -2 -15s-2 -9 -2 -14c0 -15 8 -22 23 -22h46v-84z" />
    <glyph glyph-name="florin" unicode="&#x192;" 
d="M271 0h-207v120h155c18 0 27 10 27 30v192h-141v120h141v136c0 57 44 102 101 102h222v-120h-170c-18 0 -27 -10 -27 -30v-88h145v-120h-145v-240c0 -57 -44 -102 -101 -102z" />
    <glyph glyph-name="acutecomb" unicode="&#x301;" horiz-adv-x="0" 
d="M150 552h-110l74 148h142z" />
    <glyph glyph-name="uni00B9" unicode="&#xb9;" horiz-adv-x="262" 
d="M222 350h-92v272h-14l-15 -78h-85l38 156h168v-350z" />
    <glyph glyph-name="uni00B2" unicode="&#xb2;" horiz-adv-x="364" 
d="M334 350h-308v44c0 80 42 123 131 143c59 13 85 29 85 57c0 27 -24 42 -56 42s-59 -15 -62 -56l-94 7c7 81 69 125 156 125s150 -47 150 -119s-54 -103 -139 -122c-27 -5 -45 -11 -55 -18c-11 -7 -16 -16 -16 -27h208v-76z" />
    <glyph glyph-name="uni00B3" unicode="&#xb3;" horiz-adv-x="363" 
d="M181 338c-88 0 -154 45 -161 122l93 10c4 -33 33 -56 68 -56c39 0 62 23 62 51c0 29 -23 45 -64 45h-66v66l85 36v14h-171v74h308v-78l-106 -50v-14c68 -3 108 -33 108 -97c0 -72 -68 -123 -156 -123z" />
    <glyph glyph-name="uni2071" unicode="&#x2071;" horiz-adv-x="200" 
d="M147 350h-94v350h94v-350zM100 746c-36 0 -64 27 -64 62s28 62 64 62s64 -27 64 -62s-28 -62 -64 -62z" />
    <glyph glyph-name="uni207F" unicode="&#x207f;" horiz-adv-x="446" 
d="M144 350h-94v350h92v-46h14c12 24 43 54 104 54c87 0 140 -62 140 -150v-208h-94v200c0 53 -25 80 -75 80c-55 0 -87 -39 -87 -104v-176z" />
    <glyph glyph-name="uni2094" unicode="&#x2094;" horiz-adv-x="413" 
d="M205 -210c-105 0 -173 71 -173 175v38h260c0 43 -37 83 -89 83s-73 -22 -88 -51l-70 37c25 43 72 88 161 88c103 0 175 -72 175 -183v-8c0 -105 -69 -179 -176 -179zM206 -136c55 0 82 34 86 73h-169c3 -39 31 -73 83 -73z" />
    <glyph glyph-name="AEacute" unicode="&#x1fc;" horiz-adv-x="821" 
d="M789 0h-414v154h-172l-50 -154h-135l234 700h531v-120h-278v-167h250v-120h-250v-173h284v-120zM242 276h133v354h-18zM347 758l70 130h146l-104 -130h-112z" />
    <glyph glyph-name="uni1EAE" unicode="&#x1eae;" horiz-adv-x="634" 
d="M154 0h-136l184 700h230l184 -700h-136l-38 154h-250zM308 617l-85 -341h188l-85 341h-18zM317 752c-103 0 -164 51 -164 132v4h102v-4c0 -32 18 -58 62 -58s62 26 62 58v4h102v-4c0 -81 -61 -132 -164 -132zM357 924h-112l70 130h146z" />
    <glyph glyph-name="uni1EB6" unicode="&#x1eb6;" horiz-adv-x="634" 
d="M154 0h-136l184 700h230l184 -700h-136l-38 154h-250zM308 617l-85 -341h188l-85 341h-18zM317 -214c-45 0 -81 32 -81 80s36 80 81 80c47 0 81 -32 81 -80s-34 -80 -81 -80zM317 752c-103 0 -164 51 -164 132v4h102v-4c0 -32 18 -58 62 -58s62 26 62 58v4h102v-4
c0 -81 -61 -132 -164 -132z" />
    <glyph glyph-name="uni1EB0" unicode="&#x1eb0;" horiz-adv-x="634" 
d="M154 0h-136l184 700h230l184 -700h-136l-38 154h-250zM308 617l-85 -341h188l-85 341h-18zM317 752c-103 0 -164 51 -164 132v4h102v-4c0 -32 18 -58 62 -58s62 26 62 58v4h102v-4c0 -81 -61 -132 -164 -132zM389 924h-112l-104 130h146z" />
    <glyph glyph-name="uni1EB2" unicode="&#x1eb2;" horiz-adv-x="634" 
d="M154 0h-136l184 700h230l184 -700h-136l-38 154h-250zM308 617l-85 -341h188l-85 341h-18zM317 752c-103 0 -164 51 -164 132v4h102v-4c0 -32 18 -58 62 -58s62 26 62 58v4h102v-4c0 -81 -61 -132 -164 -132zM364 916h-87l-5 80h38c35 0 49 10 49 29c0 21 -19 31 -46 31
c-36 0 -64 -8 -89 -16l-20 75c29 11 72 19 115 19c74 0 133 -32 133 -94c0 -53 -40 -85 -91 -85z" />
    <glyph glyph-name="uni1EB4" unicode="&#x1eb4;" horiz-adv-x="634" 
d="M154 0h-136l184 700h230l184 -700h-136l-38 154h-250zM308 617l-85 -341h188l-85 341h-18zM317 752c-103 0 -164 51 -164 132v4h102v-4c0 -32 18 -58 62 -58s62 26 62 58v4h102v-4c0 -81 -61 -132 -164 -132zM217 948l-17 -22l-64 51l32 43c24 32 50 50 87 50
c32 0 48 -9 71 -28c7 -5 14 -11 21 -16c7 -6 15 -9 25 -9c21 0 33 16 45 31l17 22l64 -51l-32 -43c-24 -32 -50 -50 -87 -50c-32 0 -48 9 -71 28c-7 5 -13 11 -20 17c-7 5 -16 8 -26 8c-21 0 -33 -16 -45 -31z" />
    <glyph glyph-name="uni01CD" unicode="&#x1cd;" horiz-adv-x="634" 
d="M154 0h-136l184 700h230l184 -700h-136l-38 154h-250zM125 888h134l49 -66h18l49 66h134l-114 -130h-156zM223 276h188l-85 341h-18z" />
    <glyph glyph-name="uni1EA4" unicode="&#x1ea4;" horiz-adv-x="634" 
d="M154 0h-136l184 700h230l184 -700h-136l-38 154h-250zM125 758l114 130h156l114 -130h-134l-49 66h-18l-49 -66h-134zM223 276h188l-85 341h-18zM463 850l40 132h116l-62 -132h-94z" />
    <glyph glyph-name="uni1EAC" unicode="&#x1eac;" horiz-adv-x="634" 
d="M154 0h-136l184 700h230l184 -700h-136l-38 154h-250zM308 617l-85 -341h188l-85 341h-18zM317 -214c-45 0 -81 32 -81 80s36 80 81 80c47 0 81 -32 81 -80s-34 -80 -81 -80zM259 758h-134l114 130h156l114 -130h-134l-49 66h-18z" />
    <glyph glyph-name="uni1EA6" unicode="&#x1ea6;" horiz-adv-x="634" 
d="M154 0h-136l184 700h230l184 -700h-136l-38 154h-250zM125 758l114 130h156l114 -130h-134l-49 66h-18l-49 -66h-134zM223 276h188l-85 341h-18zM416 982h116l42 -132h-94z" />
    <glyph glyph-name="uni1EA8" unicode="&#x1ea8;" horiz-adv-x="634" 
d="M154 0h-136l184 700h230l184 -700h-136l-38 154h-250zM308 617l-85 -341h188l-85 341h-18zM259 758h-134l114 130h156l114 -130h-134l-49 66h-18zM549 856h-87l-5 80h38c35 0 49 10 49 29c0 21 -19 31 -46 31c-36 0 -64 -8 -89 -16l-20 75c29 11 72 19 115 19
c74 0 133 -32 133 -94c0 -53 -40 -85 -91 -85z" />
    <glyph glyph-name="uni1EAA" unicode="&#x1eaa;" horiz-adv-x="634" 
d="M154 0h-136l184 700h230l184 -700h-136l-38 154h-250zM308 617l-85 -341h188l-85 341h-18zM259 758h-134l114 130h156l114 -130h-134l-49 66h-18zM217 946l-17 -22l-64 51l32 43c24 32 50 50 87 50c32 0 48 -9 71 -28c7 -5 14 -11 21 -16c7 -6 15 -9 25 -9
c21 0 33 16 45 31l17 22l64 -51l-32 -43c-24 -32 -50 -50 -87 -50c-32 0 -48 9 -71 28c-7 5 -13 11 -20 17c-7 5 -16 8 -26 8c-21 0 -33 -16 -45 -31z" />
    <glyph glyph-name="uni0200" unicode="&#x200;" horiz-adv-x="634" 
d="M154 0h-136l184 700h230l184 -700h-136l-38 154h-250zM102 888h130l71 -130h-104zM223 276h188l-85 341h-18zM286 888h120l54 -130h-94z" />
    <glyph glyph-name="uni1EA0" unicode="&#x1ea0;" horiz-adv-x="634" 
d="M154 0h-136l184 700h230l184 -700h-136l-38 154h-250zM308 617l-85 -341h188l-85 341h-18zM317 -214c-45 0 -81 32 -81 80s36 80 81 80c47 0 81 -32 81 -80s-34 -80 -81 -80z" />
    <glyph glyph-name="uni1EA2" unicode="&#x1ea2;" horiz-adv-x="634" 
d="M154 0h-136l184 700h230l184 -700h-136l-38 154h-250zM308 617l-85 -341h188l-85 341h-18zM367 748h-87l-5 80h38c35 0 49 10 49 29c0 21 -19 31 -46 31c-36 0 -64 -8 -89 -16l-20 75c29 11 72 19 115 19c74 0 133 -32 133 -94c0 -53 -40 -85 -91 -85z" />
    <glyph glyph-name="uni0202" unicode="&#x202;" horiz-adv-x="634" 
d="M154 0h-136l184 700h230l184 -700h-136l-38 154h-250zM308 617l-85 -341h188l-85 341h-18zM255 756h-104v6c0 91 61 146 166 146s166 -55 166 -146v-6h-104v4c0 37 -18 66 -62 66s-62 -29 -62 -66v-4z" />
    <glyph glyph-name="Aringacute" unicode="&#x1fa;" horiz-adv-x="634" 
d="M154 0h-136l184 700h230l184 -700h-136l-38 154h-250zM308 617l-85 -341h188l-85 341h-18zM397 898h-96l80 138h120zM317 748c-57 0 -104 43 -104 100s45 100 104 100s104 -41 104 -100c0 -61 -49 -100 -104 -100zM317 818c19 0 30 13 30 30s-11 30 -30 30
c-17 0 -30 -13 -30 -30s13 -30 30 -30z" />
    <glyph glyph-name="B.ss04" horiz-adv-x="638" 
d="M384 0h-318v700h314c128 0 212 -68 212 -177v-10c0 -32 -6 -58 -18 -78c-24 -41 -60 -62 -89 -71v-18c15 -4 31 -11 48 -22c35 -22 63 -62 63 -129v-10c0 -114 -83 -185 -212 -185zM198 292v-172h170c57 0 96 29 96 81v10c0 52 -37 81 -96 81h-170zM198 580v-168h168
c55 0 94 30 94 79v10c0 51 -38 79 -94 79h-168z" />
    <glyph glyph-name="uni0243" unicode="&#x243;" horiz-adv-x="664" 
d="M332 0h-285v116v0v468v0v116h281c128 0 212 -68 212 -177v-10c0 -32 -6 -58 -18 -78c-24 -41 -60 -62 -89 -71v-18c15 -4 31 -11 48 -22c35 -22 63 -62 63 -129v-10c0 -114 -83 -185 -212 -185zM179 292v-172h137c57 0 96 29 96 81v10c0 52 -37 81 -96 81h-137zM179 580
v-168h135c55 0 94 30 94 79v10c0 51 -38 79 -94 79h-135zM386 160h-340v90h340v-90z" />
    <glyph glyph-name="uni0243.ss04" horiz-adv-x="638" 
d="M384 0h-318v700h314c128 0 212 -68 212 -177v-10c0 -32 -6 -58 -18 -78c-24 -41 -60 -62 -89 -71v-18c15 -4 31 -11 48 -22c35 -22 63 -62 63 -129v-10c0 -114 -83 -185 -212 -185zM198 292v-172h170c57 0 96 29 96 81v10c0 52 -37 81 -96 81h-170zM198 580v-168h168
c55 0 94 30 94 79v10c0 51 -38 79 -94 79h-168zM328 160h-340v90h340v-90z" />
    <glyph glyph-name="uni1E08" unicode="&#x1e08;" horiz-adv-x="644" 
d="M332 -14c-173 0 -282 100 -282 280v168c0 180 109 280 282 280c172 0 270 -100 270 -264v-6h-130v10c0 83 -45 142 -140 142c-93 0 -150 -61 -150 -160v-172c0 -97 57 -160 150 -160c95 0 140 61 140 142v18h130v-14c0 -164 -98 -264 -270 -264zM332 -214
c-43 0 -86 10 -115 19l20 75c25 -8 53 -16 89 -16c27 0 46 9 46 29c0 19 -14 27 -49 27h-38l7 100h86l-4 -59c51 0 91 -28 91 -83c0 -61 -59 -92 -133 -92zM366 758h-112l70 130h146z" />
    <glyph glyph-name="D.ss04" horiz-adv-x="644" 
d="M306 0h-240v700h240c188 0 288 -96 288 -284v-132c0 -188 -100 -284 -288 -284zM198 580v-460h110c107 0 154 59 154 160v140c0 103 -47 160 -154 160h-110z" />
    <glyph glyph-name="uni01C4" unicode="&#x1c4;" horiz-adv-x="1230" 
d="M296 0h-223v116v0v468v0v116h223c188 0 288 -96 288 -284v-132c0 -188 -100 -284 -288 -284zM205 580v-460h93c107 0 154 59 154 160v140c0 103 -47 160 -154 160h-93zM1186 0h-486v168l346 398v16h-336v118h474v-168l-346 -398v-16h348v-118zM1025 758h-156l-114 130
h134l49 -66h18l49 66h134z" />
    <glyph glyph-name="uni01C4.ss04" horiz-adv-x="1208" 
d="M306 0h-240v700h240c188 0 288 -96 288 -284v-132c0 -188 -100 -284 -288 -284zM198 580v-460h110c107 0 154 59 154 160v140c0 103 -47 160 -154 160h-110zM1164 0h-486v168l346 398v16h-336v118h474v-168l-346 -398v-16h348v-118zM1003 758h-156l-114 130h134l49 -66
h18l49 66h134z" />
    <glyph glyph-name="Dcaron.ss04" horiz-adv-x="644" 
d="M306 0h-240v700h240c188 0 288 -96 288 -284v-132c0 -188 -100 -284 -288 -284zM198 580v-460h110c107 0 154 59 154 160v140c0 103 -47 160 -154 160h-110zM379 758h-156l-114 130h134l49 -66h18l49 66h134z" />
    <glyph glyph-name="Dcroat.ss04" horiz-adv-x="690" 
d="M358 0h-240v700h240c188 0 288 -96 288 -284v-132c0 -188 -100 -284 -288 -284zM250 580v-460h110c107 0 154 59 154 160v140c0 103 -47 160 -154 160h-110zM366 306h-340v90h340v-90z" />
    <glyph glyph-name="uni1E0C" unicode="&#x1e0c;" horiz-adv-x="666" 
d="M296 0h-223v116v0v468v0v116h223c188 0 288 -96 288 -284v-132c0 -188 -100 -284 -288 -284zM205 580v-460h93c107 0 154 59 154 160v140c0 103 -47 160 -154 160h-93zM320 -214c-45 0 -81 32 -81 80s36 80 81 80c47 0 81 -32 81 -80s-34 -80 -81 -80z" />
    <glyph glyph-name="uni1E0C.ss04" horiz-adv-x="644" 
d="M306 0h-240v700h240c188 0 288 -96 288 -284v-132c0 -188 -100 -284 -288 -284zM198 580v-460h110c107 0 154 59 154 160v140c0 103 -47 160 -154 160h-110zM301 -214c-45 0 -81 32 -81 80s36 80 81 80c47 0 81 -32 81 -80s-34 -80 -81 -80z" />
    <glyph glyph-name="uni1E0E" unicode="&#x1e0e;" horiz-adv-x="666" 
d="M296 0h-223v116v0v468v0v116h223c188 0 288 -96 288 -284v-132c0 -188 -100 -284 -288 -284zM205 580v-460h93c107 0 154 59 154 160v140c0 103 -47 160 -154 160h-93zM484 -170h-328v100h328v-100z" />
    <glyph glyph-name="uni1E0E.ss04" horiz-adv-x="644" 
d="M306 0h-240v700h240c188 0 288 -96 288 -284v-132c0 -188 -100 -284 -288 -284zM198 580v-460h110c107 0 154 59 154 160v140c0 103 -47 160 -154 160h-110zM465 -170h-328v100h328v-100z" />
    <glyph glyph-name="uni01C5" unicode="&#x1c5;" horiz-adv-x="1184" 
d="M296 0h-223v116v0v468v0v116h223c188 0 288 -96 288 -284v-132c0 -188 -100 -284 -288 -284zM205 580v-460h93c107 0 154 59 154 160v140c0 103 -47 160 -154 160h-93zM1136 0h-418v150l272 226v16h-262v104h400v-150l-272 -226v-16h280v-104zM1001 552h-150l-117 148
h127l56 -74h18l56 74h127z" />
    <glyph glyph-name="uni01C5.ss04" horiz-adv-x="1162" 
d="M306 0h-240v700h240c188 0 288 -96 288 -284v-132c0 -188 -100 -284 -288 -284zM198 580v-460h110c107 0 154 59 154 160v140c0 103 -47 160 -154 160h-110zM1114 0h-418v150l272 226v16h-262v104h400v-150l-272 -226v-16h280v-104zM979 552h-150l-117 148h127l56 -74h18
l56 74h127z" />
    <glyph glyph-name="uni1E1C" unicode="&#x1e1c;" horiz-adv-x="554" 
d="M522 0h-456v700h450v-120h-318v-167h290v-120h-290v-173h324v-120zM294 -214c-43 0 -86 10 -115 19l20 75c25 -8 53 -16 89 -16c27 0 46 9 46 29c0 19 -14 27 -49 27h-38l7 100h86l-4 -59c51 0 91 -28 91 -83c0 -61 -59 -92 -133 -92zM296 752c-103 0 -164 51 -164 132v4
h102v-4c0 -32 18 -58 62 -58s62 26 62 58v4h102v-4c0 -81 -61 -132 -164 -132z" />
    <glyph glyph-name="uni1EBE" unicode="&#x1ebe;" horiz-adv-x="554" 
d="M522 0h-456v700h450v-120h-318v-167h290v-120h-290v-173h324v-120zM104 758l114 130h156l114 -130h-134l-49 66h-18l-49 -66h-134zM442 850l40 132h116l-62 -132h-94z" />
    <glyph glyph-name="uni1EC6" unicode="&#x1ec6;" horiz-adv-x="554" 
d="M522 0h-456v700h450v-120h-318v-167h290v-120h-290v-173h324v-120zM294 -214c-45 0 -81 32 -81 80s36 80 81 80c47 0 81 -32 81 -80s-34 -80 -81 -80zM238 758h-134l114 130h156l114 -130h-134l-49 66h-18z" />
    <glyph glyph-name="uni1EC0" unicode="&#x1ec0;" horiz-adv-x="554" 
d="M522 0h-456v700h450v-120h-318v-167h290v-120h-290v-173h324v-120zM104 758l114 130h156l114 -130h-134l-49 66h-18l-49 -66h-134zM395 982h116l42 -132h-94z" />
    <glyph glyph-name="uni1EC2" unicode="&#x1ec2;" horiz-adv-x="554" 
d="M522 0h-456v700h450v-120h-318v-167h290v-120h-290v-173h324v-120zM238 758h-134l114 130h156l114 -130h-134l-49 66h-18zM528 856h-87l-5 80h38c35 0 49 10 49 29c0 21 -19 31 -46 31c-36 0 -64 -8 -89 -16l-20 75c29 11 72 19 115 19c74 0 133 -32 133 -94
c0 -53 -40 -85 -91 -85z" />
    <glyph glyph-name="uni1EC4" unicode="&#x1ec4;" horiz-adv-x="554" 
d="M522 0h-456v700h450v-120h-318v-167h290v-120h-290v-173h324v-120zM238 758h-134l114 130h156l114 -130h-134l-49 66h-18zM196 946l-17 -22l-64 51l32 43c24 32 50 50 87 50c32 0 48 -9 71 -28c7 -5 14 -11 21 -16c7 -6 15 -9 25 -9c21 0 33 16 45 31l17 22l64 -51
l-32 -43c-24 -32 -50 -50 -87 -50c-32 0 -48 9 -71 28c-7 5 -13 11 -20 17c-7 5 -16 8 -26 8c-21 0 -33 -16 -45 -31z" />
    <glyph glyph-name="uni0204" unicode="&#x204;" horiz-adv-x="554" 
d="M522 0h-456v700h450v-120h-318v-167h290v-120h-290v-173h324v-120zM81 888h130l71 -130h-104zM265 888h120l54 -130h-94z" />
    <glyph glyph-name="uni1EB8" unicode="&#x1eb8;" horiz-adv-x="554" 
d="M522 0h-456v700h450v-120h-318v-167h290v-120h-290v-173h324v-120zM294 -214c-45 0 -81 32 -81 80s36 80 81 80c47 0 81 -32 81 -80s-34 -80 -81 -80z" />
    <glyph glyph-name="uni1EBA" unicode="&#x1eba;" horiz-adv-x="554" 
d="M522 0h-456v700h450v-120h-318v-167h290v-120h-290v-173h324v-120zM346 748h-87l-5 80h38c35 0 49 10 49 29c0 21 -19 31 -46 31c-36 0 -64 -8 -89 -16l-20 75c29 11 72 19 115 19c74 0 133 -32 133 -94c0 -53 -40 -85 -91 -85z" />
    <glyph glyph-name="uni0206" unicode="&#x206;" horiz-adv-x="554" 
d="M522 0h-456v700h450v-120h-318v-167h290v-120h-290v-173h324v-120zM234 756h-104v6c0 91 61 146 166 146s166 -55 166 -146v-6h-104v4c0 37 -18 66 -62 66s-62 -29 -62 -66v-4z" />
    <glyph glyph-name="uni1E16" unicode="&#x1e16;" horiz-adv-x="554" 
d="M522 0h-456v700h450v-120h-318v-167h290v-120h-290v-173h324v-120zM132 762v100h328v-100h-328zM218 912l70 130h146l-104 -130h-112z" />
    <glyph glyph-name="uni1E14" unicode="&#x1e14;" horiz-adv-x="554" 
d="M522 0h-456v700h450v-120h-318v-167h290v-120h-290v-173h324v-120zM132 762v100h328v-100h-328zM158 1042h146l70 -130h-112z" />
    <glyph glyph-name="Eth.ss04" horiz-adv-x="690" 
d="M358 0h-240v700h240c188 0 288 -96 288 -284v-132c0 -188 -100 -284 -288 -284zM250 580v-460h110c107 0 154 59 154 160v140c0 103 -47 160 -154 160h-110zM366 306h-340v90h340v-90z" />
    <glyph glyph-name="uni1EBC" unicode="&#x1ebc;" horiz-adv-x="554" 
d="M522 0h-456v700h450v-120h-318v-167h290v-120h-290v-173h324v-120zM196 768l-17 -22l-64 51l32 43c24 32 50 50 87 50c32 0 48 -9 71 -28c7 -5 14 -11 21 -16c7 -6 15 -9 25 -9c21 0 33 16 45 31l17 22l64 -51l-32 -43c-24 -32 -50 -50 -87 -50c-32 0 -48 9 -71 28
c-7 5 -13 11 -20 17c-7 5 -16 8 -26 8c-21 0 -33 -16 -45 -31z" />
    <glyph glyph-name="Gcaron" unicode="&#x1e6;" horiz-adv-x="662" 
d="M308 -14c-48 0 -91 11 -130 33c-78 43 -128 127 -128 247v168c0 180 109 280 282 280c172 0 270 -98 270 -254v-4h-130v8c0 78 -50 132 -140 132c-93 0 -150 -61 -150 -160v-172c0 -97 56 -162 152 -162s138 57 138 134v10h-166v112h296v-358h-122v67h-18
c-5 -11 -12 -23 -22 -36c-21 -25 -60 -45 -132 -45zM413 758h-156l-114 130h134l49 -66h18l49 66h134z" />
    <glyph glyph-name="uni0122" unicode="&#x122;" horiz-adv-x="662" 
d="M308 -14c-48 0 -91 11 -130 33c-78 43 -128 127 -128 247v168c0 180 109 280 282 280c172 0 270 -98 270 -254v-4h-130v8c0 78 -50 132 -140 132c-93 0 -150 -61 -150 -160v-172c0 -97 56 -162 152 -162s138 57 138 134v10h-166v112h296v-358h-122v67h-18
c-5 -11 -12 -23 -22 -36c-21 -25 -60 -45 -132 -45zM309 -292h-33v59h30c31 0 41 11 41 38v6h-13c-47 0 -75 28 -75 69c0 43 31 70 76 70c47 0 78 -28 78 -80v-68c0 -60 -36 -94 -104 -94z" />
    <glyph glyph-name="uni1E9E" unicode="&#x1e9e;" horiz-adv-x="651" 
d="M430 -14c-125 0 -198 74 -198 182h130c0 -41 28 -64 68 -64s63 23 63 55c0 35 -29 50 -64 65l-48 21c-55 24 -78 66 -78 113s21 84 62 121l101 89v16h-132c-22 0 -44 -5 -65 -15c-44 -21 -75 -66 -75 -149v-420h-132v416c0 176 105 284 272 284h266v-164l-148 -134
c-9 -9 -19 -16 -19 -31c0 -13 14 -19 29 -26l34 -14c71 -28 127 -75 127 -170c0 -101 -66 -175 -193 -175z" />
    <glyph glyph-name="uni1E20" unicode="&#x1e20;" horiz-adv-x="662" 
d="M308 -14c-48 0 -91 11 -130 33c-78 43 -128 127 -128 247v168c0 180 109 280 282 280c172 0 270 -98 270 -254v-4h-130v8c0 78 -50 132 -140 132c-93 0 -150 -61 -150 -160v-172c0 -97 56 -162 152 -162s138 57 138 134v10h-166v112h296v-358h-122v67h-18
c-5 -11 -12 -23 -22 -36c-21 -25 -60 -45 -132 -45zM499 762h-328v100h328v-100z" />
    <glyph glyph-name="uni1E2A" unicode="&#x1e2a;" horiz-adv-x="656" 
d="M198 0h-132v700h132v-289h260v289h132v-700h-132v291h-260v-291zM328 -214c-105 0 -166 55 -166 146v6h104v-4c0 -37 18 -66 62 -66s62 29 62 66v4h104v-6c0 -91 -61 -146 -166 -146z" />
    <glyph glyph-name="uni1E24" unicode="&#x1e24;" horiz-adv-x="656" 
d="M198 0h-132v700h132v-289h260v289h132v-700h-132v291h-260v-291zM328 -214c-45 0 -81 32 -81 80s36 80 81 80c47 0 81 -32 81 -80s-34 -80 -81 -80z" />
    <glyph glyph-name="I.ss05" horiz-adv-x="444" 
d="M398 0h-352v116h110v468h-110v116h352v-116h-110v-468h110v-116z" />
    <glyph glyph-name="IJ.ss04" horiz-adv-x="580" 
d="M297 -14c-144 0 -235 83 -235 224v20h132v-20c0 -65 36 -104 99 -104c59 0 93 39 93 104v490h132v-490c0 -145 -84 -224 -221 -224zM194 320h-132v380h132v-380z" />
    <glyph glyph-name="IJacute.ss04" horiz-adv-x="600" 
d="M301 -14c-144 0 -235 83 -235 224v20h132v-20c0 -65 36 -104 99 -104c59 0 93 39 93 104v490h132v-490c0 -145 -84 -224 -221 -224zM198 320h-132v380h132v-380zM166 758h-112l70 130h146zM490 758h-112l82 130h146z" />
    <glyph glyph-name="Iacute.ss05" horiz-adv-x="444" 
d="M398 0h-352v116h110v468h-110v116h352v-116h-110v-468h110v-116zM144 758l70 130h146l-104 -130h-112z" />
    <glyph glyph-name="Ibreve.ss05" horiz-adv-x="444" 
d="M398 0h-352v116h110v468h-110v116h352v-116h-110v-468h110v-116zM222 752c-103 0 -164 51 -164 132v4h102v-4c0 -32 18 -58 62 -58s62 26 62 58v4h102v-4c0 -81 -61 -132 -164 -132z" />
    <glyph glyph-name="uni01CF" unicode="&#x1cf;" horiz-adv-x="264" 
d="M198 0h-132v700h132v-700zM-60 888h134l49 -66h18l49 66h134l-114 -130h-156z" />
    <glyph glyph-name="uni01CF.ss05" horiz-adv-x="444" 
d="M398 0h-352v116h110v468h-110v116h352v-116h-110v-468h110v-116zM30 888h134l49 -66h18l49 66h134l-114 -130h-156z" />
    <glyph glyph-name="Icircumflex.ss05" horiz-adv-x="444" 
d="M398 0h-352v116h110v468h-110v116h352v-116h-110v-468h110v-116zM30 758l114 130h156l114 -130h-134l-49 66h-18l-49 -66h-134z" />
    <glyph glyph-name="uni0208" unicode="&#x208;" horiz-adv-x="264" 
d="M198 0h-132v700h132v-700zM-83 888h130l71 -130h-104zM101 888h120l54 -130h-94z" />
    <glyph glyph-name="uni0208.ss05" horiz-adv-x="444" 
d="M398 0h-352v116h110v468h-110v116h352v-116h-110v-468h110v-116zM7 888h130l71 -130h-104zM191 888h120l54 -130h-94z" />
    <glyph glyph-name="Idieresis.ss05" horiz-adv-x="444" 
d="M398 0h-352v116h110v468h-110v116h352v-116h-110v-468h110v-116zM333 754c-45 0 -81 31 -81 80s36 80 81 80c47 0 81 -31 81 -80s-34 -80 -81 -80zM111 754c-45 0 -81 31 -81 80s36 80 81 80c47 0 81 -31 81 -80s-34 -80 -81 -80z" />
    <glyph glyph-name="uni1E2E" unicode="&#x1e2e;" horiz-adv-x="264" 
d="M198 0h-132v700h132v-700zM243 754c-45 0 -81 31 -81 80s36 80 81 80c47 0 81 -31 81 -80s-34 -80 -81 -80zM21 754c-45 0 -81 31 -81 80s36 80 81 80c47 0 81 -31 81 -80s-34 -80 -81 -80zM166 956h-112l70 130h146z" />
    <glyph glyph-name="uni1E2E.ss05" horiz-adv-x="444" 
d="M398 0h-352v116h110v468h-110v116h352v-116h-110v-468h110v-116zM333 754c-45 0 -81 31 -81 80s36 80 81 80c47 0 81 -31 81 -80s-34 -80 -81 -80zM111 754c-45 0 -81 31 -81 80s36 80 81 80c47 0 81 -31 81 -80s-34 -80 -81 -80zM256 956h-112l70 130h146z" />
    <glyph glyph-name="Idotaccent.ss05" horiz-adv-x="444" 
d="M398 0h-352v116h110v468h-110v116h352v-116h-110v-468h110v-116zM222 754c-45 0 -81 32 -81 80s36 80 81 80c47 0 81 -32 81 -80s-34 -80 -81 -80z" />
    <glyph glyph-name="uni1ECA" unicode="&#x1eca;" horiz-adv-x="264" 
d="M198 0h-132v700h132v-700zM132 -214c-45 0 -81 32 -81 80s36 80 81 80c47 0 81 -32 81 -80s-34 -80 -81 -80z" />
    <glyph glyph-name="uni1ECA.ss05" horiz-adv-x="444" 
d="M398 0h-352v116h110v468h-110v116h352v-116h-110v-468h110v-116zM222 -214c-45 0 -81 32 -81 80s36 80 81 80c47 0 81 -32 81 -80s-34 -80 -81 -80z" />
    <glyph glyph-name="Igrave.ss05" horiz-adv-x="444" 
d="M398 0h-352v116h110v468h-110v116h352v-116h-110v-468h110v-116zM84 888h146l70 -130h-112z" />
    <glyph glyph-name="uni1EC8" unicode="&#x1ec8;" horiz-adv-x="264" 
d="M198 0h-132v700h132v-700zM182 748h-87l-5 80h38c35 0 49 10 49 29c0 21 -19 31 -46 31c-36 0 -64 -8 -89 -16l-20 75c29 11 72 19 115 19c74 0 133 -32 133 -94c0 -53 -40 -85 -91 -85z" />
    <glyph glyph-name="uni1EC8.ss05" horiz-adv-x="444" 
d="M398 0h-352v116h110v468h-110v116h352v-116h-110v-468h110v-116zM272 748h-87l-5 80h38c35 0 49 10 49 29c0 21 -19 31 -46 31c-36 0 -64 -8 -89 -16l-20 75c29 11 72 19 115 19c74 0 133 -32 133 -94c0 -53 -40 -85 -91 -85z" />
    <glyph glyph-name="uni020A" unicode="&#x20a;" horiz-adv-x="264" 
d="M198 0h-132v700h132v-700zM70 756h-104v6c0 91 61 146 166 146s166 -55 166 -146v-6h-104v4c0 37 -18 66 -62 66s-62 -29 -62 -66v-4z" />
    <glyph glyph-name="uni020A.ss05" horiz-adv-x="444" 
d="M398 0h-352v116h110v468h-110v116h352v-116h-110v-468h110v-116zM160 756h-104v6c0 91 61 146 166 146s166 -55 166 -146v-6h-104v4c0 37 -18 66 -62 66s-62 -29 -62 -66v-4z" />
    <glyph glyph-name="Imacron.ss05" horiz-adv-x="444" 
d="M398 0h-352v116h110v468h-110v116h352v-116h-110v-468h110v-116zM58 762v100h328v-100h-328z" />
    <glyph glyph-name="Iogonek.ss05" horiz-adv-x="444" 
d="M398 0h-352v116h110v468h-110v116h352v-116h-110v-468h110v-116zM318 -170h-80c-45 0 -78 28 -78 69c0 20 4 44 9 65l13 56h81l-10 -55c-1 -5 -1 -10 -2 -15s-2 -9 -2 -14c0 -15 8 -22 23 -22h46v-84z" />
    <glyph glyph-name="Itilde.ss05" horiz-adv-x="444" 
d="M398 0h-352v116h110v468h-110v116h352v-116h-110v-468h110v-116zM122 768l-17 -22l-64 51l32 43c24 32 50 50 87 50c32 0 48 -9 71 -28c7 -5 14 -11 21 -16c7 -6 15 -9 25 -9c21 0 33 16 45 31l17 22l64 -51l-32 -43c-24 -32 -50 -50 -87 -50c-32 0 -48 9 -71 28
c-7 5 -13 11 -20 17c-7 5 -16 8 -26 8c-21 0 -33 -16 -45 -31z" />
    <glyph glyph-name="J.ss04" horiz-adv-x="550" 
d="M267 -14c-144 0 -235 83 -235 224v66h132v-66c0 -65 36 -104 99 -104c59 0 93 39 93 104v490h132v-490c0 -145 -84 -224 -221 -224z" />
    <glyph glyph-name="currency_acutecomb" horiz-adv-x="610" 
d="M267 -14c-144 0 -235 83 -235 224v66h132v-66c0 -63 36 -100 99 -100c59 0 93 36 93 100v370h-120v120h332v-120h-80v-370c0 -145 -84 -224 -221 -224zM446 758h-112l70 130h146z" />
    <glyph glyph-name="currency_acutecomb.ss04" horiz-adv-x="550" 
d="M267 -14c-144 0 -235 83 -235 224v66h132v-66c0 -65 36 -104 99 -104c59 0 93 39 93 104v490h132v-490c0 -145 -84 -224 -221 -224zM456 758h-112l70 130h146z" />
    <glyph glyph-name="Jcircumflex.ss04" horiz-adv-x="550" 
d="M267 -14c-144 0 -235 83 -235 224v66h132v-66c0 -65 36 -104 99 -104c59 0 93 39 93 104v490h132v-490c0 -145 -84 -224 -221 -224zM364 758h-134l114 130h156l114 -130h-134l-49 66h-18z" />
    <glyph glyph-name="uni0136" unicode="&#x136;" horiz-adv-x="626" 
d="M198 0h-132v700h132v-278h18l227 278h169l-292 -345l302 -355h-174l-232 284h-18v-284zM284 -292h-33v59h30c31 0 41 11 41 38v6h-13c-47 0 -75 28 -75 69c0 43 31 70 76 70c47 0 78 -28 78 -80v-68c0 -60 -36 -94 -104 -94z" />
    <glyph glyph-name="uni01C7" unicode="&#x1c7;" horiz-adv-x="1152" 
d="M518 0h-452v700h132v-580h320v-120zM809 -14c-144 0 -235 83 -235 224v66h132v-66c0 -63 36 -100 99 -100c59 0 93 36 93 100v370h-120v120h332v-120h-80v-370c0 -145 -84 -224 -221 -224z" />
    <glyph glyph-name="uni01C7.ss04" horiz-adv-x="1092" 
d="M518 0h-452v700h132v-580h320v-120zM809 -14c-144 0 -235 83 -235 224v66h132v-66c0 -65 36 -104 99 -104c59 0 93 39 93 104v490h132v-490c0 -145 -84 -224 -221 -224z" />
    <glyph glyph-name="uni013B" unicode="&#x13b;" horiz-adv-x="542" 
d="M518 0h-452v700h132v-580h320v-120zM265 -292h-33v59h30c31 0 41 11 41 38v6h-13c-47 0 -75 28 -75 69c0 43 31 70 76 70c47 0 78 -28 78 -80v-68c0 -60 -36 -94 -104 -94z" />
    <glyph glyph-name="uni1E36" unicode="&#x1e36;" horiz-adv-x="542" 
d="M518 0h-452v700h132v-580h320v-120zM292 -214c-45 0 -81 32 -81 80s36 80 81 80c47 0 81 -32 81 -80s-34 -80 -81 -80z" />
    <glyph glyph-name="uni01C8" unicode="&#x1c8;" horiz-adv-x="810" 
d="M518 0h-452v700h132v-580h320v-120zM630 -200h-110v108h66c19 0 28 10 28 30v558h126v-584c0 -68 -43 -112 -110 -112zM677 554c-45 0 -81 32 -81 80s36 80 81 80c47 0 81 -32 81 -80s-34 -80 -81 -80z" />
    <glyph glyph-name="uni1E3A" unicode="&#x1e3a;" horiz-adv-x="542" 
d="M518 0h-452v700h132v-580h320v-120zM128 -170v100h328v-100h-328z" />
    <glyph glyph-name="uni1E42" unicode="&#x1e42;" horiz-adv-x="882" 
d="M194 0h-128v700h245l121 -610h18l121 610h245v-700h-128v603h-18l-120 -603h-218l-120 603h-18v-603zM441 -214c-45 0 -81 32 -81 80s36 80 81 80c47 0 81 -32 81 -80s-34 -80 -81 -80z" />
    <glyph glyph-name="uni01CA" unicode="&#x1ca;" horiz-adv-x="1280" 
d="M196 0h-130v700h251l139 -610h18v610h130v-700h-251l-139 610h-18v-610zM937 -14c-144 0 -235 83 -235 224v66h132v-66c0 -63 36 -100 99 -100c59 0 93 36 93 100v370h-120v120h332v-120h-80v-370c0 -145 -84 -224 -221 -224z" />
    <glyph glyph-name="uni01CA.ss04" horiz-adv-x="1220" 
d="M196 0h-130v700h251l139 -610h18v610h130v-700h-251l-139 610h-18v-610zM937 -14c-144 0 -235 83 -235 224v66h132v-66c0 -65 36 -104 99 -104c59 0 93 39 93 104v490h132v-490c0 -145 -84 -224 -221 -224z" />
    <glyph glyph-name="uni0145" unicode="&#x145;" horiz-adv-x="670" 
d="M196 0h-130v700h251l139 -610h18v610h130v-700h-251l-139 610h-18v-610zM309 -292h-33v59h30c31 0 41 11 41 38v6h-13c-47 0 -75 28 -75 69c0 43 31 70 76 70c47 0 78 -28 78 -80v-68c0 -60 -36 -94 -104 -94z" />
    <glyph glyph-name="uni1E44" unicode="&#x1e44;" horiz-adv-x="670" 
d="M196 0h-130v700h251l139 -610h18v610h130v-700h-251l-139 610h-18v-610zM334 754c-45 0 -81 32 -81 80s36 80 81 80c47 0 81 -32 81 -80s-34 -80 -81 -80z" />
    <glyph glyph-name="uni1E46" unicode="&#x1e46;" horiz-adv-x="670" 
d="M196 0h-130v700h251l139 -610h18v610h130v-700h-251l-139 610h-18v-610zM336 -214c-45 0 -81 32 -81 80s36 80 81 80c47 0 81 -32 81 -80s-34 -80 -81 -80z" />
    <glyph glyph-name="uni01CB" unicode="&#x1cb;" horiz-adv-x="938" 
d="M196 0h-130v700h251l139 -610h18v610h130v-700h-251l-139 610h-18v-610zM758 -200h-110v108h66c19 0 28 10 28 30v558h126v-584c0 -68 -43 -112 -110 -112zM805 554c-45 0 -81 32 -81 80s36 80 81 80c47 0 81 -32 81 -80s-34 -80 -81 -80z" />
    <glyph glyph-name="uni1E48" unicode="&#x1e48;" horiz-adv-x="670" 
d="M196 0h-130v700h251l139 -610h18v610h130v-700h-251l-139 610h-18v-610zM172 -170v100h328v-100h-328z" />
    <glyph glyph-name="uni01D1" unicode="&#x1d1;" horiz-adv-x="676" 
d="M338 -14c-176 0 -288 100 -288 280v168c0 180 112 280 288 280s288 -100 288 -280v-168c0 -180 -112 -280 -288 -280zM338 104c99 0 156 62 156 158v176c0 96 -57 158 -156 158c-97 0 -156 -62 -156 -158v-176c0 -96 59 -158 156 -158zM416 758h-156l-114 130h134l49 -66
h18l49 66h134z" />
    <glyph glyph-name="uni1ED0" unicode="&#x1ed0;" horiz-adv-x="676" 
d="M338 -14c-176 0 -288 100 -288 280v168c0 180 112 280 288 280s288 -100 288 -280v-168c0 -180 -112 -280 -288 -280zM338 104c99 0 156 62 156 158v176c0 96 -57 158 -156 158c-97 0 -156 -62 -156 -158v-176c0 -96 59 -158 156 -158zM280 758h-134l114 130h156
l114 -130h-134l-49 66h-18zM578 850h-94l40 132h116z" />
    <glyph glyph-name="uni1ED8" unicode="&#x1ed8;" horiz-adv-x="676" 
d="M338 -14c-176 0 -288 100 -288 280v168c0 180 112 280 288 280s288 -100 288 -280v-168c0 -180 -112 -280 -288 -280zM338 104c99 0 156 62 156 158v176c0 96 -57 158 -156 158c-97 0 -156 -62 -156 -158v-176c0 -96 59 -158 156 -158zM338 -214c-45 0 -81 32 -81 80
s36 80 81 80c47 0 81 -32 81 -80s-34 -80 -81 -80zM280 758h-134l114 130h156l114 -130h-134l-49 66h-18z" />
    <glyph glyph-name="uni1ED2" unicode="&#x1ed2;" horiz-adv-x="676" 
d="M338 -14c-176 0 -288 100 -288 280v168c0 180 112 280 288 280s288 -100 288 -280v-168c0 -180 -112 -280 -288 -280zM338 104c99 0 156 62 156 158v176c0 96 -57 158 -156 158c-97 0 -156 -62 -156 -158v-176c0 -96 59 -158 156 -158zM280 758h-134l114 130h156
l114 -130h-134l-49 66h-18zM595 850h-94l-64 132h116z" />
    <glyph glyph-name="uni1ED4" unicode="&#x1ed4;" horiz-adv-x="676" 
d="M338 -14c-176 0 -288 100 -288 280v168c0 180 112 280 288 280s288 -100 288 -280v-168c0 -180 -112 -280 -288 -280zM338 104c99 0 156 62 156 158v176c0 96 -57 158 -156 158c-97 0 -156 -62 -156 -158v-176c0 -96 59 -158 156 -158zM280 758h-134l114 130h156
l114 -130h-134l-49 66h-18zM570 856h-87l-5 80h38c35 0 49 10 49 29c0 21 -19 31 -46 31c-36 0 -64 -8 -89 -16l-20 75c29 11 72 19 115 19c74 0 133 -32 133 -94c0 -53 -40 -85 -91 -85z" />
    <glyph glyph-name="uni1ED6" unicode="&#x1ed6;" horiz-adv-x="676" 
d="M338 -14c-176 0 -288 100 -288 280v168c0 180 112 280 288 280s288 -100 288 -280v-168c0 -180 -112 -280 -288 -280zM338 104c99 0 156 62 156 158v176c0 96 -57 158 -156 158c-97 0 -156 -62 -156 -158v-176c0 -96 59 -158 156 -158zM280 758h-134l114 130h156
l114 -130h-134l-49 66h-18zM238 946l-17 -22l-64 51l32 43c24 32 50 50 87 50c32 0 48 -9 71 -28c7 -5 14 -11 21 -16c7 -6 15 -9 25 -9c21 0 33 16 45 31l17 22l64 -51l-32 -43c-24 -32 -50 -50 -87 -50c-32 0 -48 9 -71 28c-7 5 -13 11 -20 17c-7 5 -16 8 -26 8
c-21 0 -33 -16 -45 -31z" />
    <glyph glyph-name="uni020C" unicode="&#x20c;" horiz-adv-x="676" 
d="M338 -14c-176 0 -288 100 -288 280v168c0 180 112 280 288 280s288 -100 288 -280v-168c0 -180 -112 -280 -288 -280zM338 104c99 0 156 62 156 158v176c0 96 -57 158 -156 158c-97 0 -156 -62 -156 -158v-176c0 -96 59 -158 156 -158zM324 758h-104l-97 130h130z
M481 758h-94l-80 130h120z" />
    <glyph glyph-name="uni022A" unicode="&#x22a;" horiz-adv-x="676" 
d="M338 -14c-176 0 -288 100 -288 280v168c0 180 112 280 288 280s288 -100 288 -280v-168c0 -180 -112 -280 -288 -280zM338 104c99 0 156 62 156 158v176c0 96 -57 158 -156 158c-97 0 -156 -62 -156 -158v-176c0 -96 59 -158 156 -158zM449 754c-45 0 -81 31 -81 80
s36 80 81 80c47 0 81 -31 81 -80s-34 -80 -81 -80zM227 754c-45 0 -81 31 -81 80s36 80 81 80c47 0 81 -31 81 -80s-34 -80 -81 -80zM502 960h-328v100h328v-100z" />
    <glyph glyph-name="uni0230" unicode="&#x230;" horiz-adv-x="676" 
d="M338 -14c-176 0 -288 100 -288 280v168c0 180 112 280 288 280s288 -100 288 -280v-168c0 -180 -112 -280 -288 -280zM338 104c99 0 156 62 156 158v176c0 96 -57 158 -156 158c-97 0 -156 -62 -156 -158v-176c0 -96 59 -158 156 -158zM338 754c-45 0 -81 32 -81 80
s36 80 81 80c47 0 81 -32 81 -80s-34 -80 -81 -80zM502 950h-328v100h328v-100z" />
    <glyph glyph-name="uni1ECC" unicode="&#x1ecc;" horiz-adv-x="676" 
d="M338 -14c-176 0 -288 100 -288 280v168c0 180 112 280 288 280s288 -100 288 -280v-168c0 -180 -112 -280 -288 -280zM338 104c99 0 156 62 156 158v176c0 96 -57 158 -156 158c-97 0 -156 -62 -156 -158v-176c0 -96 59 -158 156 -158zM338 -214c-45 0 -81 32 -81 80
s36 80 81 80c47 0 81 -32 81 -80s-34 -80 -81 -80z" />
    <glyph glyph-name="uni2126" unicode="&#x2126;" 
d="M274 0h-234v114h98v18c-49 31 -86 85 -86 182v122c0 169 97 278 258 278c159 0 258 -105 258 -278v-122c0 -99 -35 -151 -86 -182v-18h98v-114h-234v144c28 7 49 19 62 34c27 31 32 79 32 154v106c0 107 -50 160 -130 160s-130 -53 -130 -160v-106c0 -37 2 -68 6 -93
c8 -50 32 -80 88 -95v-144z" />
    <glyph glyph-name="uni1ECE" unicode="&#x1ece;" horiz-adv-x="676" 
d="M338 -14c-176 0 -288 100 -288 280v168c0 180 112 280 288 280s288 -100 288 -280v-168c0 -180 -112 -280 -288 -280zM338 104c99 0 156 62 156 158v176c0 96 -57 158 -156 158c-97 0 -156 -62 -156 -158v-176c0 -96 59 -158 156 -158zM388 748h-87l-5 80h38
c35 0 49 10 49 29c0 21 -19 31 -46 31c-36 0 -64 -8 -89 -16l-20 75c29 11 72 19 115 19c74 0 133 -32 133 -94c0 -53 -40 -85 -91 -85z" />
    <glyph glyph-name="Ohorn" unicode="&#x1a0;" horiz-adv-x="692" 
d="M338 -14c-176 0 -288 100 -288 280v168c0 180 112 280 288 280s288 -100 288 -280v-168c0 -180 -112 -280 -288 -280zM338 104c99 0 156 62 156 158v176c0 96 -57 158 -156 158c-97 0 -156 -62 -156 -158v-176c0 -96 59 -158 156 -158zM533 586l-48 79c57 3 81 21 81 81
v48h118v-52c0 -118 -55 -158 -151 -156z" />
    <glyph glyph-name="uni1EDA" unicode="&#x1eda;" horiz-adv-x="692" 
d="M338 -14c-176 0 -288 100 -288 280v168c0 180 112 280 288 280s288 -100 288 -280v-168c0 -180 -112 -280 -288 -280zM338 104c99 0 156 62 156 158v176c0 96 -57 158 -156 158c-97 0 -156 -62 -156 -158v-176c0 -96 59 -158 156 -158zM533 586l-48 79c57 3 81 21 81 81
v48h118v-52c0 -118 -55 -158 -151 -156zM372 758h-112l70 130h146z" />
    <glyph glyph-name="uni1EE2" unicode="&#x1ee2;" horiz-adv-x="692" 
d="M338 -14c-176 0 -288 100 -288 280v168c0 180 112 280 288 280s288 -100 288 -280v-168c0 -180 -112 -280 -288 -280zM338 104c99 0 156 62 156 158v176c0 96 -57 158 -156 158c-97 0 -156 -62 -156 -158v-176c0 -96 59 -158 156 -158zM533 586l-48 79c57 3 81 21 81 81
v48h118v-52c0 -118 -55 -158 -151 -156zM338 -214c-45 0 -81 32 -81 80s36 80 81 80c47 0 81 -32 81 -80s-34 -80 -81 -80z" />
    <glyph glyph-name="uni1EDC" unicode="&#x1edc;" horiz-adv-x="692" 
d="M338 -14c-176 0 -288 100 -288 280v168c0 180 112 280 288 280s288 -100 288 -280v-168c0 -180 -112 -280 -288 -280zM338 104c99 0 156 62 156 158v176c0 96 -57 158 -156 158c-97 0 -156 -62 -156 -158v-176c0 -96 59 -158 156 -158zM533 586l-48 79c57 3 81 21 81 81
v48h118v-52c0 -118 -55 -158 -151 -156zM416 758h-112l-104 130h146z" />
    <glyph glyph-name="uni1EDE" unicode="&#x1ede;" horiz-adv-x="692" 
d="M338 -14c-176 0 -288 100 -288 280v168c0 180 112 280 288 280s288 -100 288 -280v-168c0 -180 -112 -280 -288 -280zM338 104c99 0 156 62 156 158v176c0 96 -57 158 -156 158c-97 0 -156 -62 -156 -158v-176c0 -96 59 -158 156 -158zM533 586l-48 79c57 3 81 21 81 81
v48h118v-52c0 -118 -55 -158 -151 -156zM388 748h-87l-5 80h38c35 0 49 10 49 29c0 21 -19 31 -46 31c-36 0 -64 -8 -89 -16l-20 75c29 11 72 19 115 19c74 0 133 -32 133 -94c0 -53 -40 -85 -91 -85z" />
    <glyph glyph-name="uni1EE0" unicode="&#x1ee0;" horiz-adv-x="692" 
d="M338 -14c-176 0 -288 100 -288 280v168c0 180 112 280 288 280s288 -100 288 -280v-168c0 -180 -112 -280 -288 -280zM338 104c99 0 156 62 156 158v176c0 96 -57 158 -156 158c-97 0 -156 -62 -156 -158v-176c0 -96 59 -158 156 -158zM533 586l-48 79c57 3 81 21 81 81
v48h118v-52c0 -118 -55 -158 -151 -156zM238 768l-17 -22l-64 51l32 43c24 32 50 50 87 50c32 0 48 -9 71 -28c7 -5 14 -11 21 -16c7 -6 15 -9 25 -9c21 0 33 16 45 31l17 22l64 -51l-32 -43c-24 -32 -50 -50 -87 -50c-32 0 -48 9 -71 28c-7 5 -13 11 -20 17
c-7 5 -16 8 -26 8c-21 0 -33 -16 -45 -31z" />
    <glyph glyph-name="uni020E" unicode="&#x20e;" horiz-adv-x="676" 
d="M338 -14c-176 0 -288 100 -288 280v168c0 180 112 280 288 280s288 -100 288 -280v-168c0 -180 -112 -280 -288 -280zM338 104c99 0 156 62 156 158v176c0 96 -57 158 -156 158c-97 0 -156 -62 -156 -158v-176c0 -96 59 -158 156 -158zM276 756h-104v6
c0 91 61 146 166 146s166 -55 166 -146v-6h-104v4c0 37 -18 66 -62 66s-62 -29 -62 -66v-4z" />
    <glyph glyph-name="uni1E52" unicode="&#x1e52;" horiz-adv-x="676" 
d="M338 -14c-176 0 -288 100 -288 280v168c0 180 112 280 288 280s288 -100 288 -280v-168c0 -180 -112 -280 -288 -280zM338 104c99 0 156 62 156 158v176c0 96 -57 158 -156 158c-97 0 -156 -62 -156 -158v-176c0 -96 59 -158 156 -158zM502 762h-328v100h328v-100z
M372 912h-112l70 130h146z" />
    <glyph glyph-name="uni1E50" unicode="&#x1e50;" horiz-adv-x="676" 
d="M338 -14c-176 0 -288 100 -288 280v168c0 180 112 280 288 280s288 -100 288 -280v-168c0 -180 -112 -280 -288 -280zM338 104c99 0 156 62 156 158v176c0 96 -57 158 -156 158c-97 0 -156 -62 -156 -158v-176c0 -96 59 -158 156 -158zM502 762h-328v100h328v-100z
M416 912h-112l-104 130h146z" />
    <glyph glyph-name="uni01EA" unicode="&#x1ea;" horiz-adv-x="676" 
d="M338 -14c-176 0 -288 100 -288 280v168c0 180 112 280 288 280s288 -100 288 -280v-168c0 -180 -112 -280 -288 -280zM338 104c99 0 156 62 156 158v176c0 96 -57 158 -156 158c-97 0 -156 -62 -156 -158v-176c0 -96 59 -158 156 -158zM448 -170h-80c-45 0 -78 28 -78 69
c0 20 4 44 9 65l13 56h81l-10 -55c-1 -5 -1 -10 -2 -15s-2 -9 -2 -14c0 -15 8 -22 23 -22h46v-84z" />
    <glyph glyph-name="Oslashacute" unicode="&#x1fe;" horiz-adv-x="676" 
d="M338 -14c-176 0 -288 100 -288 280v168c0 180 112 280 288 280s288 -100 288 -280v-168c0 -180 -112 -280 -288 -280zM338 104c99 0 156 62 156 158v176c0 96 -57 158 -156 158c-97 0 -156 -62 -156 -158v-176c0 -96 59 -158 156 -158zM553 747l-346 -840l-83 34l346 840
zM372 758h-112l70 130h146z" />
    <glyph glyph-name="uni1E4C" unicode="&#x1e4c;" horiz-adv-x="676" 
d="M338 -14c-176 0 -288 100 -288 280v168c0 180 112 280 288 280s288 -100 288 -280v-168c0 -180 -112 -280 -288 -280zM338 104c99 0 156 62 156 158v176c0 96 -57 158 -156 158c-97 0 -156 -62 -156 -158v-176c0 -96 59 -158 156 -158zM238 768l-17 -22l-64 51l32 43
c24 32 50 50 87 50c32 0 48 -9 71 -28c7 -5 14 -11 21 -16c7 -6 15 -9 25 -9c21 0 33 16 45 31l17 22l64 -51l-32 -43c-24 -32 -50 -50 -87 -50c-32 0 -48 9 -71 28c-7 5 -13 11 -20 17c-7 5 -16 8 -26 8c-21 0 -33 -16 -45 -31zM372 922h-112l70 130h146z" />
    <glyph glyph-name="uni1E4E" unicode="&#x1e4e;" horiz-adv-x="676" 
d="M338 -14c-176 0 -288 100 -288 280v168c0 180 112 280 288 280s288 -100 288 -280v-168c0 -180 -112 -280 -288 -280zM338 104c99 0 156 62 156 158v176c0 96 -57 158 -156 158c-97 0 -156 -62 -156 -158v-176c0 -96 59 -158 156 -158zM238 768l-17 -22l-64 51l32 43
c24 32 50 50 87 50c32 0 48 -9 71 -28c7 -5 14 -11 21 -16c7 -6 15 -9 25 -9c21 0 33 16 45 31l17 22l64 -51l-32 -43c-24 -32 -50 -50 -87 -50c-32 0 -48 9 -71 28c-7 5 -13 11 -20 17c-7 5 -16 8 -26 8c-21 0 -33 -16 -45 -31zM449 918c-45 0 -81 31 -81 80s36 80 81 80
c47 0 81 -31 81 -80s-34 -80 -81 -80zM227 918c-45 0 -81 31 -81 80s36 80 81 80c47 0 81 -31 81 -80s-34 -80 -81 -80z" />
    <glyph glyph-name="uni022C" unicode="&#x22c;" horiz-adv-x="676" 
d="M338 -14c-176 0 -288 100 -288 280v168c0 180 112 280 288 280s288 -100 288 -280v-168c0 -180 -112 -280 -288 -280zM338 104c99 0 156 62 156 158v176c0 96 -57 158 -156 158c-97 0 -156 -62 -156 -158v-176c0 -96 59 -158 156 -158zM238 768l-17 -22l-64 51l32 43
c24 32 50 50 87 50c32 0 48 -9 71 -28c7 -5 14 -11 21 -16c7 -6 15 -9 25 -9c21 0 33 16 45 31l17 22l64 -51l-32 -43c-24 -32 -50 -50 -87 -50c-32 0 -48 9 -71 28c-7 5 -13 11 -20 17c-7 5 -16 8 -26 8c-21 0 -33 -16 -45 -31zM502 926h-328v100h328v-100z" />
    <glyph glyph-name="uni0156" unicode="&#x156;" horiz-adv-x="632" 
d="M198 0h-132v700h304c135 0 218 -75 218 -187v-12c0 -84 -45 -135 -104 -159v-18c53 -3 84 -39 84 -95v-229h-132v210c0 32 -15 54 -54 54h-184v-264zM198 580v-196h158c63 0 100 37 100 93v10c0 56 -36 93 -100 93h-158zM286 -292h-33v59h30c31 0 41 11 41 38v6h-13
c-47 0 -75 28 -75 69c0 43 31 70 76 70c47 0 78 -28 78 -80v-68c0 -60 -36 -94 -104 -94z" />
    <glyph glyph-name="uni0210" unicode="&#x210;" horiz-adv-x="632" 
d="M198 0h-132v700h304c135 0 218 -75 218 -187v-12c0 -84 -45 -135 -104 -159v-18c53 -3 84 -39 84 -95v-229h-132v210c0 32 -15 54 -54 54h-184v-264zM198 580v-196h158c63 0 100 37 100 93v10c0 56 -36 93 -100 93h-158zM287 758h-104l-97 130h130zM444 758h-94l-80 130
h120z" />
    <glyph glyph-name="uni1E5A" unicode="&#x1e5a;" horiz-adv-x="632" 
d="M198 0h-132v700h304c135 0 218 -75 218 -187v-12c0 -84 -45 -135 -104 -159v-18c53 -3 84 -39 84 -95v-229h-132v210c0 32 -15 54 -54 54h-184v-264zM198 580v-196h158c63 0 100 37 100 93v10c0 56 -36 93 -100 93h-158zM313 -214c-45 0 -81 32 -81 80s36 80 81 80
c47 0 81 -32 81 -80s-34 -80 -81 -80z" />
    <glyph glyph-name="uni0212" unicode="&#x212;" horiz-adv-x="632" 
d="M198 0h-132v700h304c135 0 218 -75 218 -187v-12c0 -84 -45 -135 -104 -159v-18c53 -3 84 -39 84 -95v-229h-132v210c0 32 -15 54 -54 54h-184v-264zM198 580v-196h158c63 0 100 37 100 93v10c0 56 -36 93 -100 93h-158zM239 756h-104v6c0 91 61 146 166 146
s166 -55 166 -146v-6h-104v4c0 37 -18 66 -62 66s-62 -29 -62 -66v-4z" />
    <glyph glyph-name="uni1E5E" unicode="&#x1e5e;" horiz-adv-x="632" 
d="M198 0h-132v700h304c135 0 218 -75 218 -187v-12c0 -84 -45 -135 -104 -159v-18c53 -3 84 -39 84 -95v-229h-132v210c0 32 -15 54 -54 54h-184v-264zM198 580v-196h158c63 0 100 37 100 93v10c0 56 -36 93 -100 93h-158zM477 -170h-328v100h328v-100z" />
    <glyph glyph-name="uni1E64" unicode="&#x1e64;" horiz-adv-x="606" 
d="M309 -14c-164 0 -275 92 -275 242v28h130v-28c0 -84 56 -126 145 -126c91 0 135 40 135 96c0 19 -5 35 -16 47c-22 24 -65 38 -125 51l-23 5c-48 11 -89 24 -123 41c-69 32 -107 83 -107 168c0 127 96 204 247 204c157 0 259 -80 259 -228v-30h-130v30
c0 79 -48 112 -129 112c-80 0 -117 -32 -117 -84c0 -53 41 -77 123 -95l23 -5c50 -11 94 -24 131 -41c74 -33 117 -86 117 -171c0 -129 -104 -216 -265 -216zM425 766h-112l70 130h146zM211 754c-45 0 -81 32 -81 80s36 80 81 80c47 0 81 -32 81 -80s-34 -80 -81 -80z" />
    <glyph glyph-name="uni1E66" unicode="&#x1e66;" horiz-adv-x="606" 
d="M309 -14c-164 0 -275 92 -275 242v28h130v-28c0 -84 56 -126 145 -126c91 0 135 40 135 96c0 19 -5 35 -16 47c-22 24 -65 38 -125 51l-23 5c-48 11 -89 24 -123 41c-69 32 -107 83 -107 168c0 127 96 204 247 204c157 0 259 -80 259 -228v-30h-130v30
c0 79 -48 112 -129 112c-80 0 -117 -32 -117 -84c0 -53 41 -77 123 -95l23 -5c50 -11 94 -24 131 -41c74 -33 117 -86 117 -171c0 -129 -104 -216 -265 -216zM379 758h-156l-114 130h134l49 -66h18l49 66h134zM301 913c-45 0 -81 32 -81 80s36 80 81 80c47 0 81 -32 81 -80
s-34 -80 -81 -80z" />
    <glyph glyph-name="uni018F" unicode="&#x18f;" horiz-adv-x="652" 
d="M325 -14c-172 0 -275 101 -275 274v128h420v-120h-290v-14c0 -97 49 -150 145 -150s145 53 145 150v202c0 87 -50 140 -145 140c-93 0 -145 -54 -145 -126v-2h-130v2c0 151 103 244 275 244c175 0 277 -93 277 -260v-194c0 -173 -105 -274 -277 -274z" />
    <glyph glyph-name="uni0218" unicode="&#x218;" horiz-adv-x="606" 
d="M309 -14c-164 0 -275 92 -275 242v28h130v-28c0 -84 56 -126 145 -126c91 0 135 40 135 96c0 19 -5 35 -16 47c-22 24 -65 38 -125 51l-23 5c-48 11 -89 24 -123 41c-69 32 -107 83 -107 168c0 127 96 204 247 204c157 0 259 -80 259 -228v-30h-130v30
c0 79 -48 112 -129 112c-80 0 -117 -32 -117 -84c0 -53 41 -77 123 -95l23 -5c50 -11 94 -24 131 -41c74 -33 117 -86 117 -171c0 -129 -104 -216 -265 -216zM288 -292h-33v59h30c31 0 41 11 41 38v6h-13c-47 0 -75 28 -75 69c0 43 31 70 76 70c47 0 78 -28 78 -80v-68
c0 -60 -36 -94 -104 -94z" />
    <glyph glyph-name="uni1E60" unicode="&#x1e60;" horiz-adv-x="606" 
d="M309 -14c-164 0 -275 92 -275 242v28h130v-28c0 -84 56 -126 145 -126c91 0 135 40 135 96c0 19 -5 35 -16 47c-22 24 -65 38 -125 51l-23 5c-48 11 -89 24 -123 41c-69 32 -107 83 -107 168c0 127 96 204 247 204c157 0 259 -80 259 -228v-30h-130v30
c0 79 -48 112 -129 112c-80 0 -117 -32 -117 -84c0 -53 41 -77 123 -95l23 -5c50 -11 94 -24 131 -41c74 -33 117 -86 117 -171c0 -129 -104 -216 -265 -216zM301 754c-45 0 -81 32 -81 80s36 80 81 80c47 0 81 -32 81 -80s-34 -80 -81 -80z" />
    <glyph glyph-name="uni1E62" unicode="&#x1e62;" horiz-adv-x="606" 
d="M309 -14c-164 0 -275 92 -275 242v28h130v-28c0 -84 56 -126 145 -126c91 0 135 40 135 96c0 19 -5 35 -16 47c-22 24 -65 38 -125 51l-23 5c-48 11 -89 24 -123 41c-69 32 -107 83 -107 168c0 127 96 204 247 204c157 0 259 -80 259 -228v-30h-130v30
c0 79 -48 112 -129 112c-80 0 -117 -32 -117 -84c0 -53 41 -77 123 -95l23 -5c50 -11 94 -24 131 -41c74 -33 117 -86 117 -171c0 -129 -104 -216 -265 -216zM315 -214c-45 0 -81 32 -81 80s36 80 81 80c47 0 81 -32 81 -80s-34 -80 -81 -80z" />
    <glyph glyph-name="uni1E68" unicode="&#x1e68;" horiz-adv-x="606" 
d="M309 -14c-164 0 -275 92 -275 242v28h130v-28c0 -84 56 -126 145 -126c91 0 135 40 135 96c0 19 -5 35 -16 47c-22 24 -65 38 -125 51l-23 5c-48 11 -89 24 -123 41c-69 32 -107 83 -107 168c0 127 96 204 247 204c157 0 259 -80 259 -228v-30h-130v30
c0 79 -48 112 -129 112c-80 0 -117 -32 -117 -84c0 -53 41 -77 123 -95l23 -5c50 -11 94 -24 131 -41c74 -33 117 -86 117 -171c0 -129 -104 -216 -265 -216zM315 -214c-45 0 -81 32 -81 80s36 80 81 80c47 0 81 -32 81 -80s-34 -80 -81 -80zM301 754c-45 0 -81 32 -81 80
s36 80 81 80c47 0 81 -32 81 -80s-34 -80 -81 -80z" />
    <glyph glyph-name="uni0162" unicode="&#x162;" horiz-adv-x="588" 
d="M360 0h-132v580h-204v120h540v-120h-204v-580zM294 -214c-43 0 -86 10 -115 19l20 75c25 -8 53 -16 89 -16c27 0 46 9 46 29c0 19 -14 27 -49 27h-38l7 100h86l-4 -59c51 0 91 -28 91 -83c0 -61 -59 -92 -133 -92z" />
    <glyph glyph-name="uni021A" unicode="&#x21a;" horiz-adv-x="588" 
d="M360 0h-132v580h-204v120h540v-120h-204v-580zM267 -292h-33v59h30c31 0 41 11 41 38v6h-13c-47 0 -75 28 -75 69c0 43 31 70 76 70c47 0 78 -28 78 -80v-68c0 -60 -36 -94 -104 -94z" />
    <glyph glyph-name="uni1E6C" unicode="&#x1e6c;" horiz-adv-x="588" 
d="M360 0h-132v580h-204v120h540v-120h-204v-580zM294 -214c-45 0 -81 32 -81 80s36 80 81 80c47 0 81 -32 81 -80s-34 -80 -81 -80z" />
    <glyph glyph-name="uni1E6E" unicode="&#x1e6e;" horiz-adv-x="588" 
d="M360 0h-132v580h-204v120h540v-120h-204v-580zM130 -170v100h328v-100h-328z" />
    <glyph glyph-name="uni01D3" unicode="&#x1d3;" horiz-adv-x="672" 
d="M336 -14c-173 0 -274 99 -274 260v454h132v-458c0 -85 50 -138 142 -138s142 53 142 138v458h132v-454c0 -161 -101 -260 -274 -260zM414 758h-156l-114 130h134l49 -66h18l49 66h134z" />
    <glyph glyph-name="uni0214" unicode="&#x214;" horiz-adv-x="672" 
d="M336 -14c-173 0 -274 99 -274 260v454h132v-458c0 -85 50 -138 142 -138s142 53 142 138v458h132v-454c0 -161 -101 -260 -274 -260zM322 758h-104l-97 130h130zM479 758h-94l-80 130h120z" />
    <glyph glyph-name="uni01D7" unicode="&#x1d7;" horiz-adv-x="672" 
d="M336 -14c-173 0 -274 99 -274 260v454h132v-458c0 -85 50 -138 142 -138s142 53 142 138v458h132v-454c0 -161 -101 -260 -274 -260zM447 754c-45 0 -81 31 -81 80s36 80 81 80c47 0 81 -31 81 -80s-34 -80 -81 -80zM225 754c-45 0 -81 31 -81 80s36 80 81 80
c47 0 81 -31 81 -80s-34 -80 -81 -80zM370 956h-112l70 130h146z" />
    <glyph glyph-name="uni01D9" unicode="&#x1d9;" horiz-adv-x="672" 
d="M336 -14c-173 0 -274 99 -274 260v454h132v-458c0 -85 50 -138 142 -138s142 53 142 138v458h132v-454c0 -161 -101 -260 -274 -260zM447 754c-45 0 -81 31 -81 80s36 80 81 80c47 0 81 -31 81 -80s-34 -80 -81 -80zM225 754c-45 0 -81 31 -81 80s36 80 81 80
c47 0 81 -31 81 -80s-34 -80 -81 -80zM414 956h-156l-114 130h134l49 -66h18l49 66h134z" />
    <glyph glyph-name="uni01DB" unicode="&#x1db;" horiz-adv-x="672" 
d="M336 -14c-173 0 -274 99 -274 260v454h132v-458c0 -85 50 -138 142 -138s142 53 142 138v458h132v-454c0 -161 -101 -260 -274 -260zM447 754c-45 0 -81 31 -81 80s36 80 81 80c47 0 81 -31 81 -80s-34 -80 -81 -80zM225 754c-45 0 -81 31 -81 80s36 80 81 80
c47 0 81 -31 81 -80s-34 -80 -81 -80zM414 956h-112l-104 130h146z" />
    <glyph glyph-name="uni01D5" unicode="&#x1d5;" horiz-adv-x="672" 
d="M336 -14c-173 0 -274 99 -274 260v454h132v-458c0 -85 50 -138 142 -138s142 53 142 138v458h132v-454c0 -161 -101 -260 -274 -260zM447 754c-45 0 -81 31 -81 80s36 80 81 80c47 0 81 -31 81 -80s-34 -80 -81 -80zM225 754c-45 0 -81 31 -81 80s36 80 81 80
c47 0 81 -31 81 -80s-34 -80 -81 -80zM500 960h-328v100h328v-100z" />
    <glyph glyph-name="uni1EE4" unicode="&#x1ee4;" horiz-adv-x="672" 
d="M336 -14c-173 0 -274 99 -274 260v454h132v-458c0 -85 50 -138 142 -138s142 53 142 138v458h132v-454c0 -161 -101 -260 -274 -260zM336 -214c-45 0 -81 32 -81 80s36 80 81 80c47 0 81 -32 81 -80s-34 -80 -81 -80z" />
    <glyph glyph-name="uni1EE6" unicode="&#x1ee6;" horiz-adv-x="672" 
d="M336 -14c-173 0 -274 99 -274 260v454h132v-458c0 -85 50 -138 142 -138s142 53 142 138v458h132v-454c0 -161 -101 -260 -274 -260zM386 738h-87l-5 80h38c35 0 49 10 49 29c0 21 -19 31 -46 31c-36 0 -64 -8 -89 -16l-20 75c29 11 72 19 115 19c74 0 133 -32 133 -94
c0 -53 -40 -85 -91 -85z" />
    <glyph glyph-name="Uhorn" unicode="&#x1af;" horiz-adv-x="744" 
d="M336 -14c-173 0 -274 99 -274 260v454h132v-458c0 -85 50 -138 142 -138s142 53 142 138v458h132v-454c0 -161 -101 -260 -274 -260zM611 610h-29v90h9c27 0 40 14 40 42v68h119l-1 -68c-1 -89 -47 -132 -138 -132z" />
    <glyph glyph-name="uni1EE8" unicode="&#x1ee8;" horiz-adv-x="744" 
d="M336 -14c-173 0 -274 99 -274 260v454h132v-458c0 -85 50 -138 142 -138s142 53 142 138v458h132v-454c0 -161 -101 -260 -274 -260zM611 610h-29v90h9c27 0 40 14 40 42v68h119l-1 -68c-1 -89 -47 -132 -138 -132zM370 758h-112l70 130h146z" />
    <glyph glyph-name="uni1EF0" unicode="&#x1ef0;" horiz-adv-x="744" 
d="M336 -14c-173 0 -274 99 -274 260v454h132v-458c0 -85 50 -138 142 -138s142 53 142 138v458h132v-454c0 -161 -101 -260 -274 -260zM611 610h-29v90h9c27 0 40 14 40 42v68h119l-1 -68c-1 -89 -47 -132 -138 -132zM336 -214c-45 0 -81 32 -81 80s36 80 81 80
c47 0 81 -32 81 -80s-34 -80 -81 -80z" />
    <glyph glyph-name="uni1EEA" unicode="&#x1eea;" horiz-adv-x="744" 
d="M336 -14c-173 0 -274 99 -274 260v454h132v-458c0 -85 50 -138 142 -138s142 53 142 138v458h132v-454c0 -161 -101 -260 -274 -260zM611 610h-29v90h9c27 0 40 14 40 42v68h119l-1 -68c-1 -89 -47 -132 -138 -132zM414 758h-112l-104 130h146z" />
    <glyph glyph-name="uni1EEC" unicode="&#x1eec;" horiz-adv-x="744" 
d="M336 -14c-173 0 -274 99 -274 260v454h132v-458c0 -85 50 -138 142 -138s142 53 142 138v458h132v-454c0 -161 -101 -260 -274 -260zM611 610h-29v90h9c27 0 40 14 40 42v68h119l-1 -68c-1 -89 -47 -132 -138 -132zM386 738h-87l-5 80h38c35 0 49 10 49 29
c0 21 -19 31 -46 31c-36 0 -64 -8 -89 -16l-20 75c29 11 72 19 115 19c74 0 133 -32 133 -94c0 -53 -40 -85 -91 -85z" />
    <glyph glyph-name="uni1EEE" unicode="&#x1eee;" horiz-adv-x="744" 
d="M336 -14c-173 0 -274 99 -274 260v454h132v-458c0 -85 50 -138 142 -138s142 53 142 138v458h132v-454c0 -161 -101 -260 -274 -260zM611 610h-29v90h9c27 0 40 14 40 42v68h119l-1 -68c-1 -89 -47 -132 -138 -132zM236 768l-17 -22l-64 51l32 43c24 32 50 50 87 50
c32 0 48 -9 71 -28c7 -5 14 -11 21 -16c7 -6 15 -9 25 -9c21 0 33 16 45 31l17 22l64 -51l-32 -43c-24 -32 -50 -50 -87 -50c-32 0 -48 9 -71 28c-7 5 -13 11 -20 17c-7 5 -16 8 -26 8c-21 0 -33 -16 -45 -31z" />
    <glyph glyph-name="uni0216" unicode="&#x216;" horiz-adv-x="672" 
d="M336 -14c-173 0 -274 99 -274 260v454h132v-458c0 -85 50 -138 142 -138s142 53 142 138v458h132v-454c0 -161 -101 -260 -274 -260zM274 756h-104v6c0 91 61 146 166 146s166 -55 166 -146v-6h-104v4c0 37 -18 66 -62 66s-62 -29 -62 -66v-4z" />
    <glyph glyph-name="uni1E7A" unicode="&#x1e7a;" horiz-adv-x="672" 
d="M336 -14c-173 0 -274 99 -274 260v454h132v-458c0 -85 50 -138 142 -138s142 53 142 138v458h132v-454c0 -161 -101 -260 -274 -260zM500 762h-328v100h328v-100zM447 908c-45 0 -81 31 -81 80s36 80 81 80c47 0 81 -31 81 -80s-34 -80 -81 -80zM225 908
c-45 0 -81 31 -81 80s36 80 81 80c47 0 81 -31 81 -80s-34 -80 -81 -80z" />
    <glyph glyph-name="uni1E78" unicode="&#x1e78;" horiz-adv-x="672" 
d="M336 -14c-173 0 -274 99 -274 260v454h132v-458c0 -85 50 -138 142 -138s142 53 142 138v458h132v-454c0 -161 -101 -260 -274 -260zM236 768l-17 -22l-64 51l32 43c24 32 50 50 87 50c32 0 48 -9 71 -28c7 -5 14 -11 21 -16c7 -6 15 -9 25 -9c21 0 33 16 45 31l17 22
l64 -51l-32 -43c-24 -32 -50 -50 -87 -50c-32 0 -48 9 -71 28c-7 5 -13 11 -20 17c-7 5 -16 8 -26 8c-21 0 -33 -16 -45 -31zM370 922h-112l70 130h146z" />
    <glyph glyph-name="Wacute" unicode="&#x1e82;" horiz-adv-x="898" 
d="M350 0h-228l-92 700h131l68 -608h18l88 608h228l88 -608h18l68 608h131l-92 -700h-228l-90 622h-18zM371 758l70 130h146l-104 -130h-112z" />
    <glyph glyph-name="Wdieresis" unicode="&#x1e84;" horiz-adv-x="898" 
d="M350 0h-228l-92 700h131l68 -608h18l88 608h228l88 -608h18l68 608h131l-92 -700h-228l-90 622h-18zM560 754c-45 0 -81 31 -81 80s36 80 81 80c47 0 81 -31 81 -80s-34 -80 -81 -80zM338 754c-45 0 -81 31 -81 80s36 80 81 80c47 0 81 -31 81 -80s-34 -80 -81 -80z" />
    <glyph glyph-name="Wgrave" unicode="&#x1e80;" horiz-adv-x="898" 
d="M350 0h-228l-92 700h131l68 -608h18l88 608h228l88 -608h18l68 608h131l-92 -700h-228l-90 622h-18zM311 888h146l70 -130h-112z" />
    <glyph glyph-name="uni1E8E" unicode="&#x1e8e;" horiz-adv-x="624" 
d="M378 0h-132v241l-238 459h147l148 -300h18l148 300h147l-238 -459v-241zM312 754c-45 0 -81 32 -81 80s36 80 81 80c47 0 81 -32 81 -80s-34 -80 -81 -80z" />
    <glyph glyph-name="uni1EF4" unicode="&#x1ef4;" horiz-adv-x="624" 
d="M378 0h-132v241l-238 459h147l148 -300h18l148 300h147l-238 -459v-241zM312 -214c-45 0 -81 32 -81 80s36 80 81 80c47 0 81 -32 81 -80s-34 -80 -81 -80z" />
    <glyph glyph-name="Ygrave" unicode="&#x1ef2;" horiz-adv-x="624" 
d="M378 0h-132v241l-238 459h147l148 -300h18l148 300h147l-238 -459v-241zM174 888h146l70 -130h-112z" />
    <glyph glyph-name="uni1EF6" unicode="&#x1ef6;" horiz-adv-x="624" 
d="M378 0h-132v241l-238 459h147l148 -300h18l148 300h147l-238 -459v-241zM362 738h-87l-5 80h38c35 0 49 10 49 29c0 21 -19 31 -46 31c-36 0 -64 -8 -89 -16l-20 75c29 11 72 19 115 19c74 0 133 -32 133 -94c0 -53 -40 -85 -91 -85z" />
    <glyph glyph-name="uni0232" unicode="&#x232;" horiz-adv-x="624" 
d="M378 0h-132v241l-238 459h147l148 -300h18l148 300h147l-238 -459v-241zM148 762v100h328v-100h-328z" />
    <glyph glyph-name="uni1EF8" unicode="&#x1ef8;" horiz-adv-x="624" 
d="M378 0h-132v241l-238 459h147l148 -300h18l148 300h147l-238 -459v-241zM212 768l-17 -22l-64 51l32 43c24 32 50 50 87 50c32 0 48 -9 71 -28c7 -5 14 -11 21 -16c7 -6 15 -9 25 -9c21 0 33 16 45 31l17 22l64 -51l-32 -43c-24 -32 -50 -50 -87 -50c-32 0 -48 9 -71 28
c-7 5 -13 11 -20 17c-7 5 -16 8 -26 8c-21 0 -33 -16 -45 -31z" />
    <glyph glyph-name="uni1E92" unicode="&#x1e92;" horiz-adv-x="576" 
d="M532 0h-486v168l346 398v16h-336v118h474v-168l-346 -398v-16h348v-118zM289 -214c-45 0 -81 32 -81 80s36 80 81 80c47 0 81 -32 81 -80s-34 -80 -81 -80z" />
    <glyph glyph-name="a.ss01" horiz-adv-x="660" 
d="M270 -14c-40 0 -77 10 -111 30c-68 39 -113 116 -113 224v16c0 54 10 100 31 138c41 76 114 116 193 116c91 0 133 -35 156 -74h18v60h124v-362c0 -20 9 -30 28 -30h40v-104h-100c-48 0 -83 28 -83 75v1h-18c-23 -49 -68 -90 -165 -90zM308 96c79 0 136 51 136 147v10
c0 96 -59 147 -136 147s-136 -51 -136 -147v-10c0 -96 59 -147 136 -147z" />
    <glyph glyph-name="aacute.ss01" horiz-adv-x="660" 
d="M270 -14c-40 0 -77 10 -111 30c-68 39 -113 116 -113 224v16c0 54 10 100 31 138c41 76 114 116 193 116c91 0 133 -35 156 -74h18v60h124v-362c0 -20 9 -30 28 -30h40v-104h-100c-48 0 -83 28 -83 75v1h-18c-23 -49 -68 -90 -165 -90zM308 96c79 0 136 51 136 147v10
c0 96 -59 147 -136 147s-136 -51 -136 -147v-10c0 -96 59 -147 136 -147zM354 552h-110l74 148h142z" />
    <glyph glyph-name="abreve.ss01" horiz-adv-x="660" 
d="M270 -14c-40 0 -77 10 -111 30c-68 39 -113 116 -113 224v16c0 54 10 100 31 138c41 76 114 116 193 116c91 0 133 -35 156 -74h18v60h124v-362c0 -20 9 -30 28 -30h40v-104h-100c-48 0 -83 28 -83 75v1h-18c-23 -49 -68 -90 -165 -90zM308 96c79 0 136 51 136 147v10
c0 96 -59 147 -136 147s-136 -51 -136 -147v-10c0 -96 59 -147 136 -147zM320 548c-105 0 -166 55 -166 146v6h104v-4c0 -37 18 -66 62 -66s62 29 62 66v4h104v-6c0 -91 -61 -146 -166 -146z" />
    <glyph glyph-name="uni1EAF" unicode="&#x1eaf;" horiz-adv-x="578" 
d="M224 -14c-111 0 -186 60 -186 159c0 98 70 155 192 155h136v28c0 47 -28 80 -92 80c-63 0 -91 -32 -100 -77l-116 39c25 80 95 140 218 140c131 0 212 -67 212 -191v-185c0 -20 9 -30 28 -30h40v-104h-84c-49 0 -85 26 -85 66v1h-19c-3 -8 -9 -18 -18 -31
c-19 -26 -57 -50 -126 -50zM246 88c71 0 120 43 120 108v10h-127c-47 0 -75 -21 -75 -57s29 -61 82 -61zM281 548c-105 0 -166 55 -166 146v6h104v-4c0 -37 18 -66 62 -66s62 29 62 66v4h104v-6c0 -91 -61 -146 -166 -146zM319 736h-110l74 148h142z" />
    <glyph glyph-name="uni1EAF.ss01" horiz-adv-x="660" 
d="M270 -14c-40 0 -77 10 -111 30c-68 39 -113 116 -113 224v16c0 54 10 100 31 138c41 76 114 116 193 116c91 0 133 -35 156 -74h18v60h124v-362c0 -20 9 -30 28 -30h40v-104h-100c-48 0 -83 28 -83 75v1h-18c-23 -49 -68 -90 -165 -90zM308 96c79 0 136 51 136 147v10
c0 96 -59 147 -136 147s-136 -51 -136 -147v-10c0 -96 59 -147 136 -147zM320 548c-105 0 -166 55 -166 146v6h104v-4c0 -37 18 -66 62 -66s62 29 62 66v4h104v-6c0 -91 -61 -146 -166 -146zM358 736h-110l74 148h142z" />
    <glyph glyph-name="uni1EB7" unicode="&#x1eb7;" horiz-adv-x="578" 
d="M224 -14c-111 0 -186 60 -186 159c0 98 70 155 192 155h136v28c0 47 -28 80 -92 80c-63 0 -91 -32 -100 -77l-116 39c25 80 95 140 218 140c131 0 212 -67 212 -191v-185c0 -20 9 -30 28 -30h40v-104h-84c-49 0 -85 26 -85 66v1h-19c-3 -8 -9 -18 -18 -31
c-19 -26 -57 -50 -126 -50zM246 88c71 0 120 43 120 108v10h-127c-47 0 -75 -21 -75 -57s29 -61 82 -61zM276 -214c-45 0 -81 32 -81 80s36 80 81 80c47 0 81 -32 81 -80s-34 -80 -81 -80zM281 548c-105 0 -166 55 -166 146v6h104v-4c0 -37 18 -66 62 -66s62 29 62 66v4h104
v-6c0 -91 -61 -146 -166 -146z" />
    <glyph glyph-name="uni1EB7.ss01" horiz-adv-x="660" 
d="M270 -14c-40 0 -77 10 -111 30c-68 39 -113 116 -113 224v16c0 54 10 100 31 138c41 76 114 116 193 116c91 0 133 -35 156 -74h18v60h124v-362c0 -20 9 -30 28 -30h40v-104h-100c-48 0 -83 28 -83 75v1h-18c-23 -49 -68 -90 -165 -90zM308 96c79 0 136 51 136 147v10
c0 96 -59 147 -136 147s-136 -51 -136 -147v-10c0 -96 59 -147 136 -147zM311 -214c-45 0 -81 32 -81 80s36 80 81 80c47 0 81 -32 81 -80s-34 -80 -81 -80zM320 548c-105 0 -166 55 -166 146v6h104v-4c0 -37 18 -66 62 -66s62 29 62 66v4h104v-6c0 -91 -61 -146 -166 -146z
" />
    <glyph glyph-name="uni1EB1" unicode="&#x1eb1;" horiz-adv-x="578" 
d="M224 -14c-111 0 -186 60 -186 159c0 98 70 155 192 155h136v28c0 47 -28 80 -92 80c-63 0 -91 -32 -100 -77l-116 39c25 80 95 140 218 140c131 0 212 -67 212 -191v-185c0 -20 9 -30 28 -30h40v-104h-84c-49 0 -85 26 -85 66v1h-19c-3 -8 -9 -18 -18 -31
c-19 -26 -57 -50 -126 -50zM246 88c71 0 120 43 120 108v10h-127c-47 0 -75 -21 -75 -57s29 -61 82 -61zM281 548c-105 0 -166 55 -166 146v6h104v-4c0 -37 18 -66 62 -66s62 29 62 66v4h104v-6c0 -91 -61 -146 -166 -146zM353 736h-110l-106 148h142z" />
    <glyph glyph-name="uni1EB1.ss01" horiz-adv-x="660" 
d="M270 -14c-40 0 -77 10 -111 30c-68 39 -113 116 -113 224v16c0 54 10 100 31 138c41 76 114 116 193 116c91 0 133 -35 156 -74h18v60h124v-362c0 -20 9 -30 28 -30h40v-104h-100c-48 0 -83 28 -83 75v1h-18c-23 -49 -68 -90 -165 -90zM308 96c79 0 136 51 136 147v10
c0 96 -59 147 -136 147s-136 -51 -136 -147v-10c0 -96 59 -147 136 -147zM320 548c-105 0 -166 55 -166 146v6h104v-4c0 -37 18 -66 62 -66s62 29 62 66v4h104v-6c0 -91 -61 -146 -166 -146zM392 736h-110l-106 148h142z" />
    <glyph glyph-name="uni1EB3" unicode="&#x1eb3;" horiz-adv-x="578" 
d="M224 -14c-111 0 -186 60 -186 159c0 98 70 155 192 155h136v28c0 47 -28 80 -92 80c-63 0 -91 -32 -100 -77l-116 39c25 80 95 140 218 140c131 0 212 -67 212 -191v-185c0 -20 9 -30 28 -30h40v-104h-84c-49 0 -85 26 -85 66v1h-19c-3 -8 -9 -18 -18 -31
c-19 -26 -57 -50 -126 -50zM246 88c71 0 120 43 120 108v10h-127c-47 0 -75 -21 -75 -57s29 -61 82 -61zM281 548c-105 0 -166 55 -166 146v6h104v-4c0 -37 18 -66 62 -66s62 29 62 66v4h104v-6c0 -91 -61 -146 -166 -146zM327 724h-87l-5 80h38c35 0 49 10 49 29
c0 21 -19 31 -46 31c-36 0 -64 -8 -89 -16l-20 75c29 11 72 19 115 19c74 0 133 -32 133 -94c0 -53 -40 -85 -91 -85z" />
    <glyph glyph-name="uni1EB3.ss01" horiz-adv-x="660" 
d="M270 -14c-40 0 -77 10 -111 30c-68 39 -113 116 -113 224v16c0 54 10 100 31 138c41 76 114 116 193 116c91 0 133 -35 156 -74h18v60h124v-362c0 -20 9 -30 28 -30h40v-104h-100c-48 0 -83 28 -83 75v1h-18c-23 -49 -68 -90 -165 -90zM308 96c79 0 136 51 136 147v10
c0 96 -59 147 -136 147s-136 -51 -136 -147v-10c0 -96 59 -147 136 -147zM320 548c-105 0 -166 55 -166 146v6h104v-4c0 -37 18 -66 62 -66s62 29 62 66v4h104v-6c0 -91 -61 -146 -166 -146zM366 724h-87l-5 80h38c35 0 49 10 49 29c0 21 -19 31 -46 31
c-36 0 -64 -8 -89 -16l-20 75c29 11 72 19 115 19c74 0 133 -32 133 -94c0 -53 -40 -85 -91 -85z" />
    <glyph glyph-name="uni1EB5" unicode="&#x1eb5;" horiz-adv-x="578" 
d="M224 -14c-111 0 -186 60 -186 159c0 98 70 155 192 155h136v28c0 47 -28 80 -92 80c-63 0 -91 -32 -100 -77l-116 39c25 80 95 140 218 140c131 0 212 -67 212 -191v-185c0 -20 9 -30 28 -30h40v-104h-84c-49 0 -85 26 -85 66v1h-19c-3 -8 -9 -18 -18 -31
c-19 -26 -57 -50 -126 -50zM246 88c71 0 120 43 120 108v10h-127c-47 0 -75 -21 -75 -57s29 -61 82 -61zM281 548c-105 0 -166 55 -166 146v6h104v-4c0 -37 18 -66 62 -66s62 29 62 66v4h104v-6c0 -91 -61 -146 -166 -146zM185 758l-16 -24l-69 44l33 57c20 35 50 49 83 49
c29 0 50 -12 71 -31c12 -11 26 -24 43 -24c20 0 32 16 41 31l16 24l69 -44l-33 -57c-20 -33 -48 -49 -83 -49c-29 0 -50 12 -71 31c-12 11 -24 24 -43 24c-20 0 -30 -16 -41 -31z" />
    <glyph glyph-name="uni1EB5.ss01" horiz-adv-x="660" 
d="M270 -14c-40 0 -77 10 -111 30c-68 39 -113 116 -113 224v16c0 54 10 100 31 138c41 76 114 116 193 116c91 0 133 -35 156 -74h18v60h124v-362c0 -20 9 -30 28 -30h40v-104h-100c-48 0 -83 28 -83 75v1h-18c-23 -49 -68 -90 -165 -90zM308 96c79 0 136 51 136 147v10
c0 96 -59 147 -136 147s-136 -51 -136 -147v-10c0 -96 59 -147 136 -147zM320 548c-105 0 -166 55 -166 146v6h104v-4c0 -37 18 -66 62 -66s62 29 62 66v4h104v-6c0 -91 -61 -146 -166 -146zM224 758l-16 -24l-69 44l33 57c20 35 50 49 83 49c29 0 50 -12 71 -31
c12 -11 26 -24 43 -24c20 0 32 16 41 31l16 24l69 -44l-33 -57c-20 -33 -48 -49 -83 -49c-29 0 -50 12 -71 31c-12 11 -24 24 -43 24c-20 0 -30 -16 -41 -31z" />
    <glyph glyph-name="uni01CE" unicode="&#x1ce;" horiz-adv-x="578" 
d="M224 -14c-111 0 -186 60 -186 159c0 98 70 155 192 155h136v28c0 47 -28 80 -92 80c-63 0 -91 -32 -100 -77l-116 39c25 80 95 140 218 140c131 0 212 -67 212 -191v-185c0 -20 9 -30 28 -30h40v-104h-84c-49 0 -85 26 -85 66v1h-19c-3 -8 -9 -18 -18 -31
c-19 -26 -57 -50 -126 -50zM246 88c71 0 120 43 120 108v10h-127c-47 0 -75 -21 -75 -57s29 -61 82 -61zM356 552h-150l-117 148h127l56 -74h18l56 74h127z" />
    <glyph glyph-name="uni01CE.ss01" horiz-adv-x="660" 
d="M270 -14c-40 0 -77 10 -111 30c-68 39 -113 116 -113 224v16c0 54 10 100 31 138c41 76 114 116 193 116c91 0 133 -35 156 -74h18v60h124v-362c0 -20 9 -30 28 -30h40v-104h-100c-48 0 -83 28 -83 75v1h-18c-23 -49 -68 -90 -165 -90zM308 96c79 0 136 51 136 147v10
c0 96 -59 147 -136 147s-136 -51 -136 -147v-10c0 -96 59 -147 136 -147zM395 552h-150l-117 148h127l56 -74h18l56 74h127z" />
    <glyph glyph-name="acircumflex.ss01" horiz-adv-x="660" 
d="M270 -14c-40 0 -77 10 -111 30c-68 39 -113 116 -113 224v16c0 54 10 100 31 138c41 76 114 116 193 116c91 0 133 -35 156 -74h18v60h124v-362c0 -20 9 -30 28 -30h40v-104h-100c-48 0 -83 28 -83 75v1h-18c-23 -49 -68 -90 -165 -90zM308 96c79 0 136 51 136 147v10
c0 96 -59 147 -136 147s-136 -51 -136 -147v-10c0 -96 59 -147 136 -147zM255 552h-127l117 148h150l117 -148h-127l-56 74h-18z" />
    <glyph glyph-name="uni1EA5" unicode="&#x1ea5;" horiz-adv-x="578" 
d="M224 -14c-111 0 -186 60 -186 159c0 98 70 155 192 155h136v28c0 47 -28 80 -92 80c-63 0 -91 -32 -100 -77l-116 39c25 80 95 140 218 140c131 0 212 -67 212 -191v-185c0 -20 9 -30 28 -30h40v-104h-84c-49 0 -85 26 -85 66v1h-19c-3 -8 -9 -18 -18 -31
c-19 -26 -57 -50 -126 -50zM246 88c71 0 120 43 120 108v10h-127c-47 0 -75 -21 -75 -57s29 -61 82 -61zM216 552h-127l117 148h150l117 -148h-127l-56 74h-18zM527 666h-100l52 150h122z" />
    <glyph glyph-name="uni1EA5.ss01" horiz-adv-x="660" 
d="M270 -14c-40 0 -77 10 -111 30c-68 39 -113 116 -113 224v16c0 54 10 100 31 138c41 76 114 116 193 116c91 0 133 -35 156 -74h18v60h124v-362c0 -20 9 -30 28 -30h40v-104h-100c-48 0 -83 28 -83 75v1h-18c-23 -49 -68 -90 -165 -90zM308 96c79 0 136 51 136 147v10
c0 96 -59 147 -136 147s-136 -51 -136 -147v-10c0 -96 59 -147 136 -147zM255 552h-127l117 148h150l117 -148h-127l-56 74h-18zM566 666h-100l52 150h122z" />
    <glyph glyph-name="uni1EAD" unicode="&#x1ead;" horiz-adv-x="578" 
d="M224 -14c-111 0 -186 60 -186 159c0 98 70 155 192 155h136v28c0 47 -28 80 -92 80c-63 0 -91 -32 -100 -77l-116 39c25 80 95 140 218 140c131 0 212 -67 212 -191v-185c0 -20 9 -30 28 -30h40v-104h-84c-49 0 -85 26 -85 66v1h-19c-3 -8 -9 -18 -18 -31
c-19 -26 -57 -50 -126 -50zM246 88c71 0 120 43 120 108v10h-127c-47 0 -75 -21 -75 -57s29 -61 82 -61zM276 -214c-45 0 -81 32 -81 80s36 80 81 80c47 0 81 -32 81 -80s-34 -80 -81 -80zM216 552h-127l117 148h150l117 -148h-127l-56 74h-18z" />
    <glyph glyph-name="uni1EAD.ss01" horiz-adv-x="660" 
d="M270 -14c-40 0 -77 10 -111 30c-68 39 -113 116 -113 224v16c0 54 10 100 31 138c41 76 114 116 193 116c91 0 133 -35 156 -74h18v60h124v-362c0 -20 9 -30 28 -30h40v-104h-100c-48 0 -83 28 -83 75v1h-18c-23 -49 -68 -90 -165 -90zM308 96c79 0 136 51 136 147v10
c0 96 -59 147 -136 147s-136 -51 -136 -147v-10c0 -96 59 -147 136 -147zM311 -214c-45 0 -81 32 -81 80s36 80 81 80c47 0 81 -32 81 -80s-34 -80 -81 -80zM255 552h-127l117 148h150l117 -148h-127l-56 74h-18z" />
    <glyph glyph-name="uni1EA7" unicode="&#x1ea7;" horiz-adv-x="578" 
d="M224 -14c-111 0 -186 60 -186 159c0 98 70 155 192 155h136v28c0 47 -28 80 -92 80c-63 0 -91 -32 -100 -77l-116 39c25 80 95 140 218 140c131 0 212 -67 212 -191v-185c0 -20 9 -30 28 -30h40v-104h-84c-49 0 -85 26 -85 66v1h-19c-3 -8 -9 -18 -18 -31
c-19 -26 -57 -50 -126 -50zM246 88c71 0 120 43 120 108v10h-127c-47 0 -75 -21 -75 -57s29 -61 82 -61zM216 552h-127l117 148h150l117 -148h-127l-56 74h-18zM545 666h-100l-80 150h122z" />
    <glyph glyph-name="uni1EA7.ss01" horiz-adv-x="660" 
d="M270 -14c-40 0 -77 10 -111 30c-68 39 -113 116 -113 224v16c0 54 10 100 31 138c41 76 114 116 193 116c91 0 133 -35 156 -74h18v60h124v-362c0 -20 9 -30 28 -30h40v-104h-100c-48 0 -83 28 -83 75v1h-18c-23 -49 -68 -90 -165 -90zM308 96c79 0 136 51 136 147v10
c0 96 -59 147 -136 147s-136 -51 -136 -147v-10c0 -96 59 -147 136 -147zM255 552h-127l117 148h150l117 -148h-127l-56 74h-18zM584 666h-100l-80 150h122z" />
    <glyph glyph-name="uni1EA9" unicode="&#x1ea9;" horiz-adv-x="578" 
d="M224 -14c-111 0 -186 60 -186 159c0 98 70 155 192 155h136v28c0 47 -28 80 -92 80c-63 0 -91 -32 -100 -77l-116 39c25 80 95 140 218 140c131 0 212 -67 212 -191v-185c0 -20 9 -30 28 -30h40v-104h-84c-49 0 -85 26 -85 66v1h-19c-3 -8 -9 -18 -18 -31
c-19 -26 -57 -50 -126 -50zM246 88c71 0 120 43 120 108v10h-127c-47 0 -75 -21 -75 -57s29 -61 82 -61zM216 552h-127l117 148h150l117 -148h-127l-56 74h-18zM526 656h-87l-5 80h38c35 0 49 10 49 29c0 21 -19 31 -46 31c-36 0 -64 -8 -89 -16l-20 75c29 11 72 19 115 19
c74 0 133 -32 133 -94c0 -53 -40 -85 -91 -85z" />
    <glyph glyph-name="uni1EA9.ss01" horiz-adv-x="660" 
d="M270 -14c-40 0 -77 10 -111 30c-68 39 -113 116 -113 224v16c0 54 10 100 31 138c41 76 114 116 193 116c91 0 133 -35 156 -74h18v60h124v-362c0 -20 9 -30 28 -30h40v-104h-100c-48 0 -83 28 -83 75v1h-18c-23 -49 -68 -90 -165 -90zM308 96c79 0 136 51 136 147v10
c0 96 -59 147 -136 147s-136 -51 -136 -147v-10c0 -96 59 -147 136 -147zM255 552h-127l117 148h150l117 -148h-127l-56 74h-18zM565 656h-87l-5 80h38c35 0 49 10 49 29c0 21 -19 31 -46 31c-36 0 -64 -8 -89 -16l-20 75c29 11 72 19 115 19c74 0 133 -32 133 -94
c0 -53 -40 -85 -91 -85z" />
    <glyph glyph-name="uni1EAB" unicode="&#x1eab;" horiz-adv-x="578" 
d="M224 -14c-111 0 -186 60 -186 159c0 98 70 155 192 155h136v28c0 47 -28 80 -92 80c-63 0 -91 -32 -100 -77l-116 39c25 80 95 140 218 140c131 0 212 -67 212 -191v-185c0 -20 9 -30 28 -30h40v-104h-84c-49 0 -85 26 -85 66v1h-19c-3 -8 -9 -18 -18 -31
c-19 -26 -57 -50 -126 -50zM246 88c71 0 120 43 120 108v10h-127c-47 0 -75 -21 -75 -57s29 -61 82 -61zM216 552h-127l117 148h150l117 -148h-127l-56 74h-18zM185 764l-16 -24l-69 44l33 57c20 35 50 49 83 49c29 0 50 -12 71 -31c12 -11 26 -24 43 -24c20 0 32 16 41 31
l16 24l69 -44l-33 -57c-20 -33 -48 -49 -83 -49c-29 0 -50 12 -71 31c-12 11 -24 24 -43 24c-20 0 -30 -16 -41 -31z" />
    <glyph glyph-name="uni1EAB.ss01" horiz-adv-x="660" 
d="M270 -14c-40 0 -77 10 -111 30c-68 39 -113 116 -113 224v16c0 54 10 100 31 138c41 76 114 116 193 116c91 0 133 -35 156 -74h18v60h124v-362c0 -20 9 -30 28 -30h40v-104h-100c-48 0 -83 28 -83 75v1h-18c-23 -49 -68 -90 -165 -90zM308 96c79 0 136 51 136 147v10
c0 96 -59 147 -136 147s-136 -51 -136 -147v-10c0 -96 59 -147 136 -147zM255 552h-127l117 148h150l117 -148h-127l-56 74h-18zM224 764l-16 -24l-69 44l33 57c20 35 50 49 83 49c29 0 50 -12 71 -31c12 -11 26 -24 43 -24c20 0 32 16 41 31l16 24l69 -44l-33 -57
c-20 -33 -48 -49 -83 -49c-29 0 -50 12 -71 31c-12 11 -24 24 -43 24c-20 0 -30 -16 -41 -31z" />
    <glyph glyph-name="acutecomb.case" horiz-adv-x="0" 
d="M152 758h-112l70 130h146z" />
    <glyph glyph-name="acutecomb_side" horiz-adv-x="0" 
d="M140 550h-100l52 150h122z" />
    <glyph glyph-name="acutecomb_side.case" horiz-adv-x="0" 
d="M134 782h-94l40 132h116z" />
    <glyph glyph-name="uni0201" unicode="&#x201;" horiz-adv-x="578" 
d="M224 -14c-111 0 -186 60 -186 159c0 98 70 155 192 155h136v28c0 47 -28 80 -92 80c-63 0 -91 -32 -100 -77l-116 39c25 80 95 140 218 140c131 0 212 -67 212 -191v-185c0 -20 9 -30 28 -30h40v-104h-84c-49 0 -85 26 -85 66v1h-19c-3 -8 -9 -18 -18 -31
c-19 -26 -57 -50 -126 -50zM246 88c71 0 120 43 120 108v10h-127c-47 0 -75 -21 -75 -57s29 -61 82 -61zM263 552h-100l-90 148h130zM424 552h-98l-68 148h118z" />
    <glyph glyph-name="uni0201.ss01" horiz-adv-x="660" 
d="M270 -14c-40 0 -77 10 -111 30c-68 39 -113 116 -113 224v16c0 54 10 100 31 138c41 76 114 116 193 116c91 0 133 -35 156 -74h18v60h124v-362c0 -20 9 -30 28 -30h40v-104h-100c-48 0 -83 28 -83 75v1h-18c-23 -49 -68 -90 -165 -90zM308 96c79 0 136 51 136 147v10
c0 96 -59 147 -136 147s-136 -51 -136 -147v-10c0 -96 59 -147 136 -147zM302 552h-100l-90 148h130zM463 552h-98l-68 148h118z" />
    <glyph glyph-name="adieresis.ss01" horiz-adv-x="660" 
d="M270 -14c-40 0 -77 10 -111 30c-68 39 -113 116 -113 224v16c0 54 10 100 31 138c41 76 114 116 193 116c91 0 133 -35 156 -74h18v60h124v-362c0 -20 9 -30 28 -30h40v-104h-100c-48 0 -83 28 -83 75v1h-18c-23 -49 -68 -90 -165 -90zM308 96c79 0 136 51 136 147v10
c0 96 -59 147 -136 147s-136 -51 -136 -147v-10c0 -96 59 -147 136 -147zM423 550c-45 0 -81 31 -81 80s36 80 81 80c47 0 81 -31 81 -80s-34 -80 -81 -80zM217 550c-45 0 -81 31 -81 80s36 80 81 80c47 0 81 -31 81 -80s-34 -80 -81 -80z" />
    <glyph glyph-name="uni1EA1" unicode="&#x1ea1;" horiz-adv-x="578" 
d="M224 -14c-111 0 -186 60 -186 159c0 98 70 155 192 155h136v28c0 47 -28 80 -92 80c-63 0 -91 -32 -100 -77l-116 39c25 80 95 140 218 140c131 0 212 -67 212 -191v-185c0 -20 9 -30 28 -30h40v-104h-84c-49 0 -85 26 -85 66v1h-19c-3 -8 -9 -18 -18 -31
c-19 -26 -57 -50 -126 -50zM246 88c71 0 120 43 120 108v10h-127c-47 0 -75 -21 -75 -57s29 -61 82 -61zM276 -214c-45 0 -81 32 -81 80s36 80 81 80c47 0 81 -32 81 -80s-34 -80 -81 -80z" />
    <glyph glyph-name="uni1EA1.ss01" horiz-adv-x="660" 
d="M270 -14c-40 0 -77 10 -111 30c-68 39 -113 116 -113 224v16c0 54 10 100 31 138c41 76 114 116 193 116c91 0 133 -35 156 -74h18v60h124v-362c0 -20 9 -30 28 -30h40v-104h-100c-48 0 -83 28 -83 75v1h-18c-23 -49 -68 -90 -165 -90zM308 96c79 0 136 51 136 147v10
c0 96 -59 147 -136 147s-136 -51 -136 -147v-10c0 -96 59 -147 136 -147zM311 -214c-45 0 -81 32 -81 80s36 80 81 80c47 0 81 -32 81 -80s-34 -80 -81 -80z" />
    <glyph glyph-name="aeacute" unicode="&#x1fd;" horiz-adv-x="896" 
d="M615 -14c-47 0 -89 12 -124 36c-72 48 -113 133 -113 230c0 148 95 258 229 258c48 0 89 -11 122 -33c67 -44 103 -122 103 -211v-61h-341c3 -63 49 -109 118 -109c68 0 100 36 117 65l93 -67c-13 -18 -28 -35 -45 -52c-36 -33 -84 -56 -159 -56zM250 88
c71 0 118 45 118 110v7h-125c-51 0 -81 -20 -81 -56s31 -61 88 -61zM236 -14c-116 0 -198 57 -198 158c0 103 80 155 196 155h134v29c0 45 -34 80 -98 80c-61 0 -93 -33 -106 -77l-112 39c29 78 96 140 218 140c81 0 128 -28 160 -68h28l-22 -182l9 -185h-28
c-6 -10 -16 -22 -29 -36c-27 -28 -73 -53 -152 -53zM492 299h216c-1 63 -43 101 -106 101c-67 0 -107 -40 -110 -101zM478 552h-110l74 148h142z" />
    <glyph glyph-name="agrave.ss01" horiz-adv-x="660" 
d="M270 -14c-40 0 -77 10 -111 30c-68 39 -113 116 -113 224v16c0 54 10 100 31 138c41 76 114 116 193 116c91 0 133 -35 156 -74h18v60h124v-362c0 -20 9 -30 28 -30h40v-104h-100c-48 0 -83 28 -83 75v1h-18c-23 -49 -68 -90 -165 -90zM308 96c79 0 136 51 136 147v10
c0 96 -59 147 -136 147s-136 -51 -136 -147v-10c0 -96 59 -147 136 -147zM396 552h-110l-106 148h142z" />
    <glyph glyph-name="uni1EA3" unicode="&#x1ea3;" horiz-adv-x="578" 
d="M224 -14c-111 0 -186 60 -186 159c0 98 70 155 192 155h136v28c0 47 -28 80 -92 80c-63 0 -91 -32 -100 -77l-116 39c25 80 95 140 218 140c131 0 212 -67 212 -191v-185c0 -20 9 -30 28 -30h40v-104h-84c-49 0 -85 26 -85 66v1h-19c-3 -8 -9 -18 -18 -31
c-19 -26 -57 -50 -126 -50zM246 88c71 0 120 43 120 108v10h-127c-47 0 -75 -21 -75 -57s29 -61 82 -61zM328 542h-87l-5 80h38c35 0 49 10 49 29c0 21 -19 31 -46 31c-36 0 -64 -8 -89 -16l-20 75c29 11 72 19 115 19c74 0 133 -32 133 -94c0 -53 -40 -85 -91 -85z" />
    <glyph glyph-name="uni1EA3.ss01" horiz-adv-x="660" 
d="M270 -14c-40 0 -77 10 -111 30c-68 39 -113 116 -113 224v16c0 54 10 100 31 138c41 76 114 116 193 116c91 0 133 -35 156 -74h18v60h124v-362c0 -20 9 -30 28 -30h40v-104h-100c-48 0 -83 28 -83 75v1h-18c-23 -49 -68 -90 -165 -90zM308 96c79 0 136 51 136 147v10
c0 96 -59 147 -136 147s-136 -51 -136 -147v-10c0 -96 59 -147 136 -147zM367 542h-87l-5 80h38c35 0 49 10 49 29c0 21 -19 31 -46 31c-36 0 -64 -8 -89 -16l-20 75c29 11 72 19 115 19c74 0 133 -32 133 -94c0 -53 -40 -85 -91 -85z" />
    <glyph glyph-name="uni0203" unicode="&#x203;" horiz-adv-x="578" 
d="M224 -14c-111 0 -186 60 -186 159c0 98 70 155 192 155h136v28c0 47 -28 80 -92 80c-63 0 -91 -32 -100 -77l-116 39c25 80 95 140 218 140c131 0 212 -67 212 -191v-185c0 -20 9 -30 28 -30h40v-104h-84c-49 0 -85 26 -85 66v1h-19c-3 -8 -9 -18 -18 -31
c-19 -26 -57 -50 -126 -50zM246 88c71 0 120 43 120 108v10h-127c-47 0 -75 -21 -75 -57s29 -61 82 -61zM219 552h-104v6c0 91 61 146 166 146s166 -55 166 -146v-6h-104v4c0 37 -18 66 -62 66s-62 -29 -62 -66v-4z" />
    <glyph glyph-name="uni0203.ss01" horiz-adv-x="660" 
d="M270 -14c-40 0 -77 10 -111 30c-68 39 -113 116 -113 224v16c0 54 10 100 31 138c41 76 114 116 193 116c91 0 133 -35 156 -74h18v60h124v-362c0 -20 9 -30 28 -30h40v-104h-100c-48 0 -83 28 -83 75v1h-18c-23 -49 -68 -90 -165 -90zM308 96c79 0 136 51 136 147v10
c0 96 -59 147 -136 147s-136 -51 -136 -147v-10c0 -96 59 -147 136 -147zM258 552h-104v6c0 91 61 146 166 146s166 -55 166 -146v-6h-104v4c0 37 -18 66 -62 66s-62 -29 -62 -66v-4z" />
    <glyph glyph-name="amacron.ss01" horiz-adv-x="660" 
d="M270 -14c-40 0 -77 10 -111 30c-68 39 -113 116 -113 224v16c0 54 10 100 31 138c41 76 114 116 193 116c91 0 133 -35 156 -74h18v60h124v-362c0 -20 9 -30 28 -30h40v-104h-100c-48 0 -83 28 -83 75v1h-18c-23 -49 -68 -90 -165 -90zM308 96c79 0 136 51 136 147v10
c0 96 -59 147 -136 147s-136 -51 -136 -147v-10c0 -96 59 -147 136 -147zM484 566h-328v100h328v-100z" />
    <glyph glyph-name="aogonek.ss01" horiz-adv-x="660" 
d="M270 -14c-40 0 -77 10 -111 30c-68 39 -113 116 -113 224v16c0 54 10 100 31 138c41 76 114 116 193 116c91 0 133 -35 156 -74h18v60h124v-362c0 -20 9 -30 28 -30h40v-104h-100c-48 0 -83 28 -83 75v1h-18c-23 -49 -68 -90 -165 -90zM308 96c79 0 136 51 136 147v10
c0 96 -59 147 -136 147s-136 -51 -136 -147v-10c0 -96 59 -147 136 -147zM642 -170h-80c-45 0 -78 28 -78 69c0 20 4 44 9 65l13 56h81l-10 -55c-1 -5 -1 -10 -2 -15s-2 -9 -2 -14c0 -15 8 -22 23 -22h46v-84z" />
    <glyph glyph-name="apostrophecomb" horiz-adv-x="262" 
d="M104 550h-33v59h30c31 0 41 11 41 40v20h-11c-45 0 -77 30 -77 73c0 47 32 78 77 78c47 0 77 -31 77 -82v-88c0 -67 -35 -100 -104 -100z" />
    <glyph glyph-name="uni02BC" unicode="&#x2bc;" horiz-adv-x="294" 
d="M128 393h-49v68h39c31 0 46 15 46 46v32h-17c-53 0 -93 36 -93 85c0 53 40 90 93 90c55 0 93 -37 93 -94v-115c0 -75 -37 -112 -112 -112z" />
    <glyph glyph-name="aring.ss01" horiz-adv-x="660" 
d="M270 -14c-40 0 -77 10 -111 30c-68 39 -113 116 -113 224v16c0 54 10 100 31 138c41 76 114 116 193 116c91 0 133 -35 156 -74h18v60h124v-362c0 -20 9 -30 28 -30h40v-104h-100c-48 0 -83 28 -83 75v1h-18c-23 -49 -68 -90 -165 -90zM308 96c79 0 136 51 136 147v10
c0 96 -59 147 -136 147s-136 -51 -136 -147v-10c0 -96 59 -147 136 -147zM320 539c-57 0 -104 43 -104 100s45 100 104 100s104 -41 104 -100c0 -61 -49 -100 -104 -100zM320 609c19 0 30 13 30 30s-11 30 -30 30c-17 0 -30 -13 -30 -30s13 -30 30 -30z" />
    <glyph glyph-name="aringacute" unicode="&#x1fb;" horiz-adv-x="578" 
d="M224 -14c-111 0 -186 60 -186 159c0 98 70 155 192 155h136v28c0 47 -28 80 -92 80c-63 0 -91 -32 -100 -77l-116 39c25 80 95 140 218 140c131 0 212 -67 212 -191v-185c0 -20 9 -30 28 -30h40v-104h-84c-49 0 -85 26 -85 66v1h-19c-3 -8 -9 -18 -18 -31
c-19 -26 -57 -50 -126 -50zM246 88c71 0 120 43 120 108v10h-127c-47 0 -75 -21 -75 -57s29 -61 82 -61zM358 700h-89l71 128h110zM281 539c-57 0 -104 43 -104 100s45 100 104 100s104 -41 104 -100c0 -61 -49 -100 -104 -100zM281 609c19 0 30 13 30 30s-11 30 -30 30
c-17 0 -30 -13 -30 -30s13 -30 30 -30z" />
    <glyph glyph-name="aringacute.ss01" horiz-adv-x="660" 
d="M270 -14c-40 0 -77 10 -111 30c-68 39 -113 116 -113 224v16c0 54 10 100 31 138c41 76 114 116 193 116c91 0 133 -35 156 -74h18v60h124v-362c0 -20 9 -30 28 -30h40v-104h-100c-48 0 -83 28 -83 75v1h-18c-23 -49 -68 -90 -165 -90zM308 96c79 0 136 51 136 147v10
c0 96 -59 147 -136 147s-136 -51 -136 -147v-10c0 -96 59 -147 136 -147zM397 700h-89l71 128h110zM320 539c-57 0 -104 43 -104 100s45 100 104 100s104 -41 104 -100c0 -61 -49 -100 -104 -100zM320 609c19 0 30 13 30 30s-11 30 -30 30c-17 0 -30 -13 -30 -30
s13 -30 30 -30z" />
    <glyph glyph-name="at.case" horiz-adv-x="988" 
d="M724 -106h-216c-282 0 -452 171 -452 446v24c0 269 167 434 440 434h22c84 0 157 -17 220 -51c125 -68 198 -194 198 -357v-74c0 -140 -57 -222 -172 -222h-58c-63 0 -97 27 -97 70v2h-18c-12 -32 -42 -78 -124 -78c-121 0 -203 102 -203 248v16c0 146 79 248 193 248
c71 0 104 -28 125 -66h18v60h122v-354c0 -23 8 -34 31 -34h4c39 0 55 37 55 110v72c0 186 -97 296 -298 296h-14c-200 0 -320 -116 -320 -324v-16c0 -215 122 -336 336 -336h208v-114zM493 196c65 0 107 54 107 142v12c0 88 -42 142 -107 142s-105 -54 -105 -142v-12
c0 -88 40 -142 105 -142z" />
    <glyph glyph-name="atilde.ss01" horiz-adv-x="660" 
d="M270 -14c-40 0 -77 10 -111 30c-68 39 -113 116 -113 224v16c0 54 10 100 31 138c41 76 114 116 193 116c91 0 133 -35 156 -74h18v60h124v-362c0 -20 9 -30 28 -30h40v-104h-100c-48 0 -83 28 -83 75v1h-18c-23 -49 -68 -90 -165 -90zM308 96c79 0 136 51 136 147v10
c0 96 -59 147 -136 147s-136 -51 -136 -147v-10c0 -96 59 -147 136 -147zM224 566l-16 -24l-69 44l33 57c20 35 50 49 83 49c29 0 50 -12 71 -31c12 -11 26 -24 43 -24c20 0 32 16 41 31l16 24l69 -44l-33 -57c-20 -33 -48 -49 -83 -49c-29 0 -50 12 -71 31
c-12 11 -24 24 -43 24c-20 0 -30 -16 -41 -31z" />
    <glyph glyph-name="backslash.case" horiz-adv-x="432" 
d="M412 0h-132l-260 700h132z" />
    <glyph glyph-name="uni0E3F" unicode="&#xe3f;" horiz-adv-x="722" 
d="M468 0h-422v116h92v468h-92v116h418c128 0 212 -68 212 -177v-10c0 -32 -6 -58 -18 -78c-24 -41 -60 -62 -89 -71v-18c15 -4 31 -11 48 -22c35 -22 63 -62 63 -129v-10c0 -114 -83 -185 -212 -185zM270 292v-172h182c57 0 96 29 96 81v10c0 52 -37 81 -96 81h-182z
M270 580v-168h180c55 0 94 30 94 79v10c0 51 -38 79 -94 79h-180zM462 816v-932h-120v932h120z" />
    <glyph glyph-name="uni0E3F.ss04" horiz-adv-x="650" 
d="M396 0h-330v700h326c128 0 212 -68 212 -177v-10c0 -32 -6 -58 -18 -78c-24 -41 -60 -62 -89 -71v-18c15 -4 31 -11 48 -22c35 -22 63 -62 63 -129v-10c0 -114 -83 -185 -212 -185zM198 292v-172h182c57 0 96 29 96 81v10c0 52 -37 81 -96 81h-182zM198 580v-168h180
c55 0 94 30 94 79v10c0 51 -38 79 -94 79h-180zM390 816v-932h-120v932h120z" />
    <glyph glyph-name="bar.case" horiz-adv-x="258" 
d="M192 -156h-126v1012h126v-1012z" />
    <glyph glyph-name="uni20BF" unicode="&#x20bf;" horiz-adv-x="684" 
d="M430 0h-364v116h92v468h-92v116h360c128 0 212 -68 212 -177v-10c0 -32 -6 -58 -18 -78c-24 -41 -60 -62 -89 -71v-18c15 -4 31 -11 48 -22c35 -22 63 -62 63 -129v-10c0 -114 -83 -185 -212 -185zM290 292v-172h124c57 0 96 29 96 81v10c0 52 -37 81 -96 81h-124z
M290 580v-168h122c55 0 94 30 94 79v10c0 51 -38 79 -94 79h-122zM236 -116v146h92v-146h-92zM328 816v-146h-92v146h92zM464 816v-146h-92v146h92zM372 -116v146h92v-146h-92z" />
    <glyph glyph-name="uni20BF.ss04" horiz-adv-x="638" 
d="M384 0h-318v700h314c128 0 212 -68 212 -177v-10c0 -32 -6 -58 -18 -78c-24 -41 -60 -62 -89 -71v-18c15 -4 31 -11 48 -22c35 -22 63 -62 63 -129v-10c0 -114 -83 -185 -212 -185zM198 292v-172h170c57 0 96 29 96 81v10c0 52 -37 81 -96 81h-170zM198 580v-168h168
c55 0 94 30 94 79v10c0 51 -38 79 -94 79h-168zM192 -116v146h92v-146h-92zM284 816v-146h-92v146h92zM420 816v-146h-92v146h92zM328 -116v146h92v-146h-92z" />
    <glyph glyph-name="braceleft.case" horiz-adv-x="474" 
d="M450 -68h-170c-60 0 -102 42 -102 102v227c0 19 -9 29 -27 29h-115v120h115c18 0 27 10 27 29v227c0 60 42 102 102 102h170v-108h-123c-18 0 -27 -10 -27 -30v-191c0 -45 -31 -80 -78 -80h-16v-18h16c47 0 78 -35 78 -80v-191c0 -20 9 -30 27 -30h123v-108z" />
    <glyph glyph-name="braceright.case" horiz-adv-x="474" 
d="M194 -68h-170v108h123c18 0 27 10 27 30v191c0 45 31 80 78 80h16v18h-16c-47 0 -78 35 -78 80v191c0 20 -9 30 -27 30h-123v108h170c60 0 102 -42 102 -102v-227c0 -19 9 -29 27 -29h115v-120h-115c-18 0 -27 -10 -27 -29v-227c0 -60 -42 -102 -102 -102z" />
    <glyph glyph-name="bracketleft.case" horiz-adv-x="366" 
d="M342 -68h-170c-60 0 -102 42 -102 102v632c0 60 42 102 102 102h170v-108h-123c-18 0 -27 -10 -27 -30v-560c0 -20 9 -30 27 -30h123v-108z" />
    <glyph glyph-name="bracketright.case" horiz-adv-x="366" 
d="M194 -68h-170v108h123c18 0 27 10 27 30v560c0 20 -9 30 -27 30h-123v108h170c60 0 102 -42 102 -102v-632c0 -60 -42 -102 -102 -102z" />
    <glyph glyph-name="uni032E" unicode="&#x32e;" horiz-adv-x="0" 
d="M206 -214c-105 0 -166 55 -166 146v6h104v-4c0 -37 18 -66 62 -66s62 29 62 66v4h104v-6c0 -91 -61 -146 -166 -146z" />
    <glyph glyph-name="uni0306" unicode="&#x306;" horiz-adv-x="0" 
d="M206 548c-105 0 -166 55 -166 146v6h104v-4c0 -37 18 -66 62 -66s62 29 62 66v4h104v-6c0 -91 -61 -146 -166 -146z" />
    <glyph glyph-name="uni0306.case" horiz-adv-x="0" 
d="M204 752c-103 0 -164 51 -164 132v4h102v-4c0 -32 18 -58 62 -58s62 26 62 58v4h102v-4c0 -81 -61 -132 -164 -132z" />
    <glyph glyph-name="uni03060301" horiz-adv-x="0" 
d="M206 548c-105 0 -166 55 -166 146v6h104v-4c0 -37 18 -66 62 -66s62 29 62 66v4h104v-6c0 -91 -61 -146 -166 -146zM244 736h-110l74 148h142z" />
    <glyph glyph-name="uni03060301.case" horiz-adv-x="0" 
d="M204 752c-103 0 -164 51 -164 132v4h102v-4c0 -32 18 -58 62 -58s62 26 62 58v4h102v-4c0 -81 -61 -132 -164 -132zM244 924h-112l70 130h146z" />
    <glyph glyph-name="uni03060300" horiz-adv-x="0" 
d="M206 548c-105 0 -166 55 -166 146v6h104v-4c0 -37 18 -66 62 -66s62 29 62 66v4h104v-6c0 -91 -61 -146 -166 -146zM278 736h-110l-106 148h142z" />
    <glyph glyph-name="uni03060300.case" horiz-adv-x="0" 
d="M204 752c-103 0 -164 51 -164 132v4h102v-4c0 -32 18 -58 62 -58s62 26 62 58v4h102v-4c0 -81 -61 -132 -164 -132zM276 924h-112l-104 130h146z" />
    <glyph glyph-name="uni03060309" horiz-adv-x="0" 
d="M206 548c-105 0 -166 55 -166 146v6h104v-4c0 -37 18 -66 62 -66s62 29 62 66v4h104v-6c0 -91 -61 -146 -166 -146zM252 724h-87l-5 80h38c35 0 49 10 49 29c0 21 -19 31 -46 31c-36 0 -64 -8 -89 -16l-20 75c29 11 72 19 115 19c74 0 133 -32 133 -94
c0 -53 -40 -85 -91 -85z" />
    <glyph glyph-name="uni03060309.case" horiz-adv-x="0" 
d="M204 752c-103 0 -164 51 -164 132v4h102v-4c0 -32 18 -58 62 -58s62 26 62 58v4h102v-4c0 -81 -61 -132 -164 -132zM251 916h-87l-5 80h38c35 0 49 10 49 29c0 21 -19 31 -46 31c-36 0 -64 -8 -89 -16l-20 75c29 11 72 19 115 19c74 0 133 -32 133 -94
c0 -53 -40 -85 -91 -85z" />
    <glyph glyph-name="uni03060303" horiz-adv-x="0" 
d="M221 548c-105 0 -166 55 -166 146v6h104v-4c0 -37 18 -66 62 -66s62 29 62 66v4h104v-6c0 -91 -61 -146 -166 -146zM125 758l-16 -24l-69 44l33 57c20 35 50 49 83 49c29 0 50 -12 71 -31c12 -11 26 -24 43 -24c20 0 32 16 41 31l16 24l69 -44l-33 -57
c-20 -33 -48 -49 -83 -49c-29 0 -50 12 -71 31c-12 11 -24 24 -43 24c-20 0 -30 -16 -41 -31z" />
    <glyph glyph-name="uni03060303.case" horiz-adv-x="0" 
d="M221 752c-103 0 -164 51 -164 132v4h102v-4c0 -32 18 -58 62 -58s62 26 62 58v4h102v-4c0 -81 -61 -132 -164 -132zM121 948l-17 -22l-64 51l32 43c24 32 50 50 87 50c32 0 48 -9 71 -28c7 -5 14 -11 21 -16c7 -6 15 -9 25 -9c21 0 33 16 45 31l17 22l64 -51l-32 -43
c-24 -32 -50 -50 -87 -50c-32 0 -48 9 -71 28c-7 5 -13 11 -20 17c-7 5 -16 8 -26 8c-21 0 -33 -16 -45 -31z" />
    <glyph glyph-name="uni0311" unicode="&#x311;" horiz-adv-x="0" 
d="M144 552h-104v6c0 91 61 146 166 146s166 -55 166 -146v-6h-104v4c0 37 -18 66 -62 66s-62 -29 -62 -66v-4z" />
    <glyph glyph-name="brokenbar.case" horiz-adv-x="258" 
d="M192 436h-126v420h126v-420zM66 -156v420h126v-420h-126z" />
    <glyph glyph-name="uni0180" unicode="&#x180;" horiz-adv-x="638" 
d="M368 -14c-89 0 -133 37 -156 74h-18v-60h-124v700h126v-261h18c24 39 69 71 154 71c40 0 77 -10 111 -29c68 -40 113 -117 113 -225v-16c0 -54 -10 -100 -31 -138c-41 -76 -113 -116 -193 -116zM330 96c77 0 136 51 136 147v10c0 96 -57 147 -136 147
c-77 0 -136 -51 -136 -147v-10c0 -96 59 -147 136 -147zM340 556h-340v70h340v-70z" />
    <glyph glyph-name="bullet.case" horiz-adv-x="400" 
d="M200 206c-84 0 -144 65 -144 145c0 85 64 143 144 143c85 0 144 -59 144 -144c0 -84 -64 -144 -144 -144z" />
    <glyph glyph-name="uni2219" unicode="&#x2219;" 
d="M310 206c-84 0 -144 65 -144 145c0 85 64 143 144 143c85 0 144 -59 144 -144c0 -84 -64 -144 -144 -144z" />
    <glyph glyph-name="uni030C" unicode="&#x30c;" horiz-adv-x="0" 
d="M307 552h-150l-117 148h127l56 -74h18l56 74h127z" />
    <glyph glyph-name="uni030C.alt" horiz-adv-x="0" 
d="M126 498h-86l8 202h120z" />
    <glyph glyph-name="uni030C.case" horiz-adv-x="0" 
d="M310 758h-156l-114 130h134l49 -66h18l49 66h134z" />
    <glyph glyph-name="uni1E09" unicode="&#x1e09;" horiz-adv-x="586" 
d="M303 -14c-153 0 -257 98 -257 255v14c0 157 104 255 257 255s228 -94 246 -192l-122 -26c-8 63 -48 106 -121 106c-78 0 -134 -51 -134 -145v-10c0 -94 56 -145 134 -145c76 0 113 43 124 107l122 -29c-9 -35 -23 -67 -44 -96c-42 -58 -110 -94 -205 -94zM303 -214
c-43 0 -86 10 -115 19l20 75c25 -8 53 -16 89 -16c27 0 46 9 46 29c0 19 -14 27 -49 27h-38l7 100h86l-4 -59c51 0 91 -28 91 -83c0 -61 -59 -92 -133 -92zM337 552h-110l74 148h142z" />
    <glyph glyph-name="uni20B5" unicode="&#x20b5;" horiz-adv-x="644" 
d="M332 -14c-173 0 -282 100 -282 280v168c0 180 109 280 282 280c172 0 270 -100 270 -264v-6h-130v10c0 83 -45 142 -140 142c-93 0 -150 -61 -150 -160v-172c0 -97 57 -160 150 -160c95 0 140 61 140 142v18h130v-14c0 -164 -98 -264 -270 -264zM394 -116h-120v932h120
v-932z" />
    <glyph glyph-name="uni0327" unicode="&#x327;" horiz-adv-x="0" 
d="M155 -214c-43 0 -86 10 -115 19l20 75c25 -8 53 -16 89 -16c27 0 46 9 46 29c0 19 -14 27 -49 27h-38l7 100h86l-4 -59c51 0 91 -28 91 -83c0 -61 -59 -92 -133 -92z" />
    <glyph glyph-name="uni0302" unicode="&#x302;" horiz-adv-x="0" 
d="M167 552h-127l117 148h150l117 -148h-127l-56 74h-18z" />
    <glyph glyph-name="uni0302.case" horiz-adv-x="0" 
d="M174 758h-134l114 130h156l114 -130h-134l-49 66h-18z" />
    <glyph glyph-name="uni03020301" horiz-adv-x="0" 
d="M167 552h-127l117 148h150l117 -148h-127l-56 74h-18zM378 666l52 150h122l-74 -150h-100z" />
    <glyph glyph-name="uni03020301.case" horiz-adv-x="0" 
d="M174 758h-134l114 130h156l114 -130h-134l-49 66h-18zM378 850l40 132h116l-62 -132h-94z" />
    <glyph glyph-name="uni03020300" horiz-adv-x="0" 
d="M167 552h-127l117 148h150l117 -148h-127l-56 74h-18zM316 816h122l58 -150h-100z" />
    <glyph glyph-name="uni03020300.case" horiz-adv-x="0" 
d="M174 758h-134l114 130h156l114 -130h-134l-49 66h-18zM331 982h116l42 -132h-94z" />
    <glyph glyph-name="uni03020309" horiz-adv-x="0" 
d="M167 552h-127l117 148h150l117 -148h-127l-56 74h-18zM477 656h-87l-5 80h38c35 0 49 10 49 29c0 21 -19 31 -46 31c-36 0 -64 -8 -89 -16l-20 75c29 11 72 19 115 19c74 0 133 -32 133 -94c0 -53 -40 -85 -91 -85z" />
    <glyph glyph-name="uni03020309.case" horiz-adv-x="0" 
d="M174 758h-134l114 130h156l114 -130h-134l-49 66h-18zM464 856h-87l-5 80h38c35 0 49 10 49 29c0 21 -19 31 -46 31c-36 0 -64 -8 -89 -16l-20 75c29 11 72 19 115 19c74 0 133 -32 133 -94c0 -53 -40 -85 -91 -85z" />
    <glyph glyph-name="uni03020303" horiz-adv-x="0" 
d="M167 552h-127l117 148h150l117 -148h-127l-56 74h-18zM136 764l-16 -24l-69 44l33 57c20 35 50 49 83 49c29 0 50 -12 71 -31c12 -11 26 -24 43 -24c20 0 32 16 41 31l16 24l69 -44l-33 -57c-20 -33 -48 -49 -83 -49c-29 0 -50 12 -71 31c-12 11 -24 24 -43 24
c-20 0 -30 -16 -41 -31z" />
    <glyph glyph-name="uni03020303.case" horiz-adv-x="0" 
d="M174 758h-134l114 130h156l114 -130h-134l-49 66h-18zM132 946l-17 -22l-64 51l32 43c24 32 50 50 87 50c32 0 48 -9 71 -28c7 -5 14 -11 21 -16c7 -6 15 -9 25 -9c21 0 33 16 45 31l17 22l64 -51l-32 -43c-24 -32 -50 -50 -87 -50c-32 0 -48 9 -71 28
c-7 5 -13 11 -20 17c-7 5 -16 8 -26 8c-21 0 -33 -16 -45 -31z" />
    <glyph glyph-name="colonmonetary" unicode="&#x20a1;" horiz-adv-x="664" 
d="M342 -14c-180 0 -292 105 -292 290v148c0 187 112 290 292 290c179 0 280 -103 280 -274v-2h-130v6c0 88 -49 152 -150 152c-100 0 -160 -66 -160 -170v-152c0 -104 60 -170 160 -170c101 0 150 64 150 152v14h130v-10c0 -169 -101 -274 -280 -274zM244 -116h-79l140 932
h79zM369 -116h-76l140 932h76z" />
    <glyph glyph-name="uni0326" unicode="&#x326;" horiz-adv-x="0" 
d="M90 -292h-33v59h30c31 0 41 11 41 38v6h-13c-47 0 -75 28 -75 69c0 43 31 70 76 70c47 0 78 -28 78 -80v-68c0 -60 -36 -94 -104 -94z" />
    <glyph glyph-name="uni0312" unicode="&#x312;" horiz-adv-x="0" 
d="M144 788h33v-59h-30c-29 0 -41 -11 -41 -38v-6h13c47 0 75 -28 75 -69c0 -43 -29 -70 -76 -70c-45 0 -78 28 -78 80v68c0 60 36 94 104 94z" />
    <glyph glyph-name="uni02BB" unicode="&#x2bb;" horiz-adv-x="294" 
d="M166 714h49v-68h-39c-31 0 -46 -15 -46 -46v-32h17c53 0 93 -36 93 -85c0 -53 -40 -90 -93 -90c-55 0 -93 37 -93 94v115c0 75 37 112 112 112z" />
    <glyph glyph-name="uni2052" unicode="&#x2052;" horiz-adv-x="686" 
d="M650 652l-538 -665l-76 61l538 665zM540 -14c-57 0 -104 45 -104 104s44 104 104 104s104 -44 104 -104c0 -61 -48 -104 -104 -104zM156 506c-57 0 -104 45 -104 104s44 104 104 104s104 -44 104 -104c0 -61 -48 -104 -104 -104z" />
    <glyph glyph-name="uni030F" unicode="&#x30f;" horiz-adv-x="0" 
d="M230 552h-100l-90 148h130zM225 700h118l48 -148h-98z" />
    <glyph glyph-name="uni030F.case" horiz-adv-x="0" 
d="M241 758h-104l-97 130h130zM224 888h120l54 -130h-94z" />
    <glyph glyph-name="uni1E0D" unicode="&#x1e0d;" horiz-adv-x="638" 
d="M270 -14c-39 0 -76 10 -110 30c-69 39 -114 116 -114 224v16c0 54 10 100 31 138c41 76 113 116 193 116c83 0 132 -32 154 -71h18v261h126v-700h-124v60h-18c-23 -37 -65 -74 -156 -74zM308 96c77 0 136 51 136 147v10c0 96 -57 147 -136 147c-77 0 -136 -51 -136 -147
v-10c0 -96 59 -147 136 -147zM324 -214c-45 0 -81 32 -81 80s36 80 81 80c47 0 81 -32 81 -80s-34 -80 -81 -80z" />
    <glyph glyph-name="uni0324" unicode="&#x324;" horiz-adv-x="0" 
d="M327 -214c-45 0 -81 31 -81 80s36 80 81 80c47 0 81 -31 81 -80s-34 -80 -81 -80zM121 -214c-45 0 -81 31 -81 80s36 80 81 80c47 0 81 -31 81 -80s-34 -80 -81 -80z" />
    <glyph glyph-name="uni0308" unicode="&#x308;" horiz-adv-x="0" 
d="M327 550c-45 0 -81 31 -81 80s36 80 81 80c47 0 81 -31 81 -80s-34 -80 -81 -80zM121 550c-45 0 -81 31 -81 80s36 80 81 80c47 0 81 -31 81 -80s-34 -80 -81 -80z" />
    <glyph glyph-name="uni0308.case" horiz-adv-x="0" 
d="M343 754c-45 0 -81 31 -81 80s36 80 81 80c47 0 81 -31 81 -80s-34 -80 -81 -80zM121 754c-45 0 -81 31 -81 80s36 80 81 80c47 0 81 -31 81 -80s-34 -80 -81 -80z" />
    <glyph glyph-name="uni2215" unicode="&#x2215;" horiz-adv-x="409" 
d="M109 -157h-125l316 963h125z" />
    <glyph glyph-name="uni1E0F" unicode="&#x1e0f;" horiz-adv-x="638" 
d="M270 -14c-39 0 -76 10 -110 30c-69 39 -114 116 -114 224v16c0 54 10 100 31 138c41 76 113 116 193 116c83 0 132 -32 154 -71h18v261h126v-700h-124v60h-18c-23 -37 -65 -74 -156 -74zM308 96c77 0 136 51 136 147v10c0 96 -57 147 -136 147c-77 0 -136 -51 -136 -147
v-10c0 -96 59 -147 136 -147zM488 -170h-328v100h328v-100z" />
    <glyph glyph-name="dong" unicode="&#x20ab;" horiz-adv-x="704" 
d="M270 -14c-39 0 -76 10 -110 30c-69 39 -114 116 -114 224v16c0 54 10 100 31 138c41 76 113 116 193 116c83 0 132 -32 154 -71h18v261h126v-700h-124v60h-18c-23 -37 -65 -74 -156 -74zM308 96c77 0 136 51 136 147v10c0 96 -57 147 -136 147c-77 0 -136 -51 -136 -147
v-10c0 -96 59 -147 136 -147zM568 -130h-490v70h490v-70zM638 556h-340v70h340v-70z" />
    <glyph glyph-name="uni0307" unicode="&#x307;" horiz-adv-x="0" 
d="M121 554c-45 0 -81 32 -81 80s36 80 81 80c47 0 81 -32 81 -80s-34 -80 -81 -80z" />
    <glyph glyph-name="uni0307.case" horiz-adv-x="0" 
d="M121 754c-45 0 -81 32 -81 80s36 80 81 80c47 0 81 -32 81 -80s-34 -80 -81 -80z" />
    <glyph glyph-name="dotbelowcomb" unicode="&#x323;" horiz-adv-x="0" 
d="M121 -214c-45 0 -81 32 -81 80s36 80 81 80c47 0 81 -32 81 -80s-34 -80 -81 -80z" />
    <glyph glyph-name="uni02BA" unicode="&#x2ba;" horiz-adv-x="416" 
d="M330 420h-100l17 280h125zM48 420l3 280h125l-32 -280h-96z" />
    <glyph glyph-name="arrowdown" unicode="&#x2193;" 
d="M355 -6h-90l-235 235l80 80l105 -105l25 -41l17 6l-8 48v483h122v-483l-8 -48l17 -6l25 41l105 105l80 -80z" />
    <glyph glyph-name="uni01C6" unicode="&#x1c6;" horiz-adv-x="1156" 
d="M270 -14c-39 0 -76 10 -110 30c-69 39 -114 116 -114 224v16c0 54 10 100 31 138c41 76 113 116 193 116c83 0 132 -32 154 -71h18v261h126v-700h-124v60h-18c-23 -37 -65 -74 -156 -74zM308 96c77 0 136 51 136 147v10c0 96 -57 147 -136 147c-77 0 -136 -51 -136 -147
v-10c0 -96 59 -147 136 -147zM1108 0h-418v150l272 226v16h-262v104h400v-150l-272 -226v-16h280v-104zM973 552h-150l-117 148h127l56 -74h18l56 74h127z" />
    <glyph glyph-name="uni1E1D" unicode="&#x1e1d;" horiz-adv-x="577" 
d="M296 -14c-150 0 -250 100 -250 256v12c0 156 98 256 248 256c146 0 241 -103 241 -256v-43h-361c3 -68 57 -115 126 -115c71 0 99 37 116 74l103 -54c-9 -17 -23 -36 -40 -56c-36 -41 -92 -74 -183 -74zM175 305h232c-5 57 -49 95 -114 95c-68 0 -109 -38 -118 -95z
M296 -214c-43 0 -86 10 -115 19l20 75c25 -8 53 -16 89 -16c27 0 46 9 46 29c0 19 -14 27 -49 27h-38l7 100h86l-4 -59c51 0 91 -28 91 -83c0 -61 -59 -92 -133 -92zM294 548c-105 0 -166 55 -166 146v6h104v-4c0 -37 18 -66 62 -66s62 29 62 66v4h104v-6
c0 -91 -61 -146 -166 -146z" />
    <glyph glyph-name="uni1EBF" unicode="&#x1ebf;" horiz-adv-x="577" 
d="M296 -14c-150 0 -250 100 -250 256v12c0 156 98 256 248 256c146 0 241 -103 241 -256v-43h-361c3 -68 57 -115 126 -115c71 0 99 37 116 74l103 -54c-9 -17 -23 -36 -40 -56c-36 -41 -92 -74 -183 -74zM175 305h232c-5 57 -49 95 -114 95c-68 0 -109 -38 -118 -95z
M229 552h-127l117 148h150l117 -148h-127l-56 74h-18zM540 666h-100l52 150h122z" />
    <glyph glyph-name="uni1EC7" unicode="&#x1ec7;" horiz-adv-x="577" 
d="M296 -14c-150 0 -250 100 -250 256v12c0 156 98 256 248 256c146 0 241 -103 241 -256v-43h-361c3 -68 57 -115 126 -115c71 0 99 37 116 74l103 -54c-9 -17 -23 -36 -40 -56c-36 -41 -92 -74 -183 -74zM175 305h232c-5 57 -49 95 -114 95c-68 0 -109 -38 -118 -95z
M296 -214c-45 0 -81 32 -81 80s36 80 81 80c47 0 81 -32 81 -80s-34 -80 -81 -80zM229 552h-127l117 148h150l117 -148h-127l-56 74h-18z" />
    <glyph glyph-name="uni1EC1" unicode="&#x1ec1;" horiz-adv-x="577" 
d="M296 -14c-150 0 -250 100 -250 256v12c0 156 98 256 248 256c146 0 241 -103 241 -256v-43h-361c3 -68 57 -115 126 -115c71 0 99 37 116 74l103 -54c-9 -17 -23 -36 -40 -56c-36 -41 -92 -74 -183 -74zM175 305h232c-5 57 -49 95 -114 95c-68 0 -109 -38 -118 -95z
M229 552h-127l117 148h150l117 -148h-127l-56 74h-18zM558 666h-100l-80 150h122z" />
    <glyph glyph-name="uni1EC3" unicode="&#x1ec3;" horiz-adv-x="577" 
d="M296 -14c-150 0 -250 100 -250 256v12c0 156 98 256 248 256c146 0 241 -103 241 -256v-43h-361c3 -68 57 -115 126 -115c71 0 99 37 116 74l103 -54c-9 -17 -23 -36 -40 -56c-36 -41 -92 -74 -183 -74zM175 305h232c-5 57 -49 95 -114 95c-68 0 -109 -38 -118 -95z
M229 552h-127l117 148h150l117 -148h-127l-56 74h-18zM539 656h-87l-5 80h38c35 0 49 10 49 29c0 21 -19 31 -46 31c-36 0 -64 -8 -89 -16l-20 75c29 11 72 19 115 19c74 0 133 -32 133 -94c0 -53 -40 -85 -91 -85z" />
    <glyph glyph-name="uni1EC5" unicode="&#x1ec5;" horiz-adv-x="577" 
d="M296 -14c-150 0 -250 100 -250 256v12c0 156 98 256 248 256c146 0 241 -103 241 -256v-43h-361c3 -68 57 -115 126 -115c71 0 99 37 116 74l103 -54c-9 -17 -23 -36 -40 -56c-36 -41 -92 -74 -183 -74zM175 305h232c-5 57 -49 95 -114 95c-68 0 -109 -38 -118 -95z
M229 552h-127l117 148h150l117 -148h-127l-56 74h-18zM198 764l-16 -24l-69 44l33 57c20 35 50 49 83 49c29 0 50 -12 71 -31c12 -11 26 -24 43 -24c20 0 32 16 41 31l16 24l69 -44l-33 -57c-20 -33 -48 -49 -83 -49c-29 0 -50 12 -71 31c-12 11 -24 24 -43 24
c-20 0 -30 -16 -41 -31z" />
    <glyph glyph-name="uni0205" unicode="&#x205;" horiz-adv-x="577" 
d="M296 -14c-150 0 -250 100 -250 256v12c0 156 98 256 248 256c146 0 241 -103 241 -256v-43h-361c3 -68 57 -115 126 -115c71 0 99 37 116 74l103 -54c-9 -17 -23 -36 -40 -56c-36 -41 -92 -74 -183 -74zM175 305h232c-5 57 -49 95 -114 95c-68 0 -109 -38 -118 -95z
M276 552h-100l-90 148h130zM437 552h-98l-68 148h118z" />
    <glyph glyph-name="uni1EB9" unicode="&#x1eb9;" horiz-adv-x="577" 
d="M296 -14c-150 0 -250 100 -250 256v12c0 156 98 256 248 256c146 0 241 -103 241 -256v-43h-361c3 -68 57 -115 126 -115c71 0 99 37 116 74l103 -54c-9 -17 -23 -36 -40 -56c-36 -41 -92 -74 -183 -74zM175 305h232c-5 57 -49 95 -114 95c-68 0 -109 -38 -118 -95z
M296 -214c-45 0 -81 32 -81 80s36 80 81 80c47 0 81 -32 81 -80s-34 -80 -81 -80z" />
    <glyph glyph-name="uni1EBB" unicode="&#x1ebb;" horiz-adv-x="577" 
d="M296 -14c-150 0 -250 100 -250 256v12c0 156 98 256 248 256c146 0 241 -103 241 -256v-43h-361c3 -68 57 -115 126 -115c71 0 99 37 116 74l103 -54c-9 -17 -23 -36 -40 -56c-36 -41 -92 -74 -183 -74zM175 305h232c-5 57 -49 95 -114 95c-68 0 -109 -38 -118 -95z
M341 542h-87l-5 80h38c35 0 49 10 49 29c0 21 -19 31 -46 31c-36 0 -64 -8 -89 -16l-20 75c29 11 72 19 115 19c74 0 133 -32 133 -94c0 -53 -40 -85 -91 -85z" />
    <glyph glyph-name="eight.dnom" horiz-adv-x="372" 
d="M187 -12c-103 0 -159 44 -159 105c0 59 42 77 59 82v14c-19 7 -53 27 -53 75c0 59 59 98 152 98s152 -39 152 -98c0 -48 -34 -68 -53 -75v-14c17 -5 59 -23 59 -82c0 -61 -56 -105 -157 -105zM186 64c41 0 66 15 66 39s-25 39 -66 39s-66 -15 -66 -39s25 -39 66 -39z
M186 218c39 0 60 15 60 35s-22 33 -59 33c-39 0 -61 -13 -61 -33s23 -35 60 -35z" />
    </font>
</defs>
</svg>
