<?xml version="1.0" encoding="UTF-8"?><svg id="Layer_2" xmlns="http://www.w3.org/2000/svg" viewBox="0 0 120.78 117.79"><defs><style>.cls-1,.cls-2{fill:#191717;}.cls-2{fill-rule:evenodd;}</style></defs><g id="Layer_1-2"><g><path class="cls-2" d="M60.39,0C27.04,0,0,27.04,0,60.39c0,26.68,17.3,49.32,41.3,57.3,3.02,.56,4.13-1.31,4.13-2.91,0-1.44-.06-6.2-.08-11.24-16.8,3.65-20.34-7.12-20.34-7.12-2.75-6.98-6.7-8.84-6.7-8.84-5.48-3.75,.41-3.67,.41-3.67,6.06,.43,9.26,6.22,9.26,6.22,5.39,9.23,14.13,6.56,17.57,5.02,.54-3.9,2.11-6.57,3.83-8.08-13.41-1.53-27.51-6.71-27.51-29.84,0-6.59,2.36-11.98,6.22-16.21-.63-1.52-2.69-7.66,.58-15.98,0,0,5.07-1.62,16.61,6.19,4.82-1.34,9.98-2.01,15.12-2.03,5.13,.02,10.3,.69,15.13,2.03,11.53-7.81,16.59-6.19,16.59-6.19,3.29,8.32,1.22,14.46,.59,15.98,3.87,4.23,6.21,9.62,6.21,16.21,0,23.19-14.13,28.3-27.57,29.8,2.17,1.87,4.1,5.55,4.1,11.18,0,8.08-.07,14.58-.07,16.57,0,1.61,1.09,3.49,4.15,2.9,23.98-7.99,41.26-30.62,41.26-57.29C120.78,27.04,93.74,0,60.39,0Z"/><path class="cls-1" d="M22.87,86.7c-.13,.3-.61,.39-1.04,.18-.44-.2-.68-.61-.54-.91,.13-.31,.6-.39,1.04-.19,.44,.2,.69,.61,.54,.91h0Z"/><path class="cls-1" d="M25.32,89.43c-.29,.27-.85,.14-1.23-.28-.4-.42-.47-.98-.18-1.25,.3-.27,.84-.14,1.24,.28,.4,.43,.47,.98,.17,1.25h0Z"/><path class="cls-1" d="M27.7,92.91c-.37,.26-.98,.02-1.35-.52-.37-.54-.37-1.18,0-1.44,.37-.26,.97-.03,1.35,.51,.37,.55,.37,1.19,0,1.45h0Z"/><path class="cls-1" d="M30.96,96.27c-.33,.37-1.04,.27-1.55-.23-.53-.49-.67-1.18-.34-1.54,.34-.37,1.04-.26,1.56,.23,.52,.49,.68,1.18,.33,1.54h0Z"/><path class="cls-1" d="M35.46,98.22c-.15,.47-.83,.69-1.51,.49-.68-.21-1.13-.76-.99-1.24,.14-.48,.82-.7,1.51-.49,.68,.21,1.13,.76,.99,1.24h0Z"/><path class="cls-1" d="M40.4,98.58c.02,.5-.56,.91-1.28,.92-.72,.02-1.31-.39-1.31-.88,0-.5,.57-.91,1.29-.92,.72-.01,1.31,.39,1.31,.88h0Z"/><path class="cls-1" d="M45,97.8c.09,.49-.41,.98-1.13,1.12-.7,.13-1.35-.17-1.44-.65-.09-.5,.42-1,1.12-1.13,.71-.12,1.35,.17,1.44,.66h0Z"/></g></g></svg>