<svg width="1196" height="196" viewBox="0 0 1196 196" fill="none" xmlns="http://www.w3.org/2000/svg">
<g clip-path="url(#clip0_42_27)">
<path d="M216.98 171.2V26.94H277.39C288.09 26.94 297.23 28.59 304.63 31.9C312.02 35.21 317.66 39.78 321.46 45.62C325.25 51.46 327.1 58.27 327.1 66.05C327.1 72.08 326.03 77.43 323.79 82.29C321.55 87.15 318.25 91.14 313.77 94.45C309.3 97.76 303.95 99.99 297.53 101.26V102.52C302.39 103.69 306.48 105.63 309.79 108.36C313.1 111.08 315.82 114.39 317.96 118.18C320.2 122.07 322.14 126.74 323.89 132.38L336.24 171.09H305.5L294.61 136.66C293.05 131.12 291.21 126.84 289.07 123.72C286.93 120.61 284.21 118.37 280.7 117.01C277.2 115.65 272.72 114.87 267.08 114.87H247.04V171H216.98V171.19V171.2ZM272.23 91.83C277.29 91.83 281.67 91.05 285.46 89.59C289.16 88.13 292.07 85.8 294.12 82.68C296.16 79.57 297.23 75.68 297.23 71.2C297.23 66.72 296.16 62.83 294.12 59.82C292.08 56.8 289.16 54.57 285.46 53.21C281.76 51.85 277.29 51.07 272.23 51.07H247.04V91.92H272.23V91.82V91.83Z" fill="white"/>
<path d="M395.77 173.63C384.88 173.63 375.05 171.2 366.3 166.43C357.45 161.66 350.54 154.85 345.48 146.1C340.42 137.35 337.89 127.33 337.89 116.04C337.89 104.75 340.42 94.83 345.38 86.08C350.34 77.33 357.34 70.42 366.1 65.56C374.95 60.6 384.87 58.17 395.96 58.17C407.05 58.17 416.97 60.6 425.73 65.56C434.48 70.42 441.39 77.33 446.35 86.08C451.31 94.83 453.84 104.85 453.84 116.14C453.84 127.43 451.31 137.35 446.25 146.1C441.19 154.85 434.29 161.66 425.53 166.53C416.68 171.2 406.76 173.63 395.76 173.63H395.77ZM395.77 149.6C401.31 149.6 406.28 148.24 410.65 145.51C415.03 142.79 418.53 138.9 421.16 133.84C423.69 128.78 425.05 122.85 425.05 116.04C425.05 109.23 423.79 103.39 421.26 98.24C418.73 93.18 415.23 89.19 410.85 86.47C406.47 83.75 401.41 82.29 395.87 82.29C390.33 82.29 385.36 83.65 380.99 86.47C376.61 89.19 373.11 93.18 370.58 98.24C368.05 103.3 366.79 109.33 366.79 116.14C366.79 122.95 368.05 128.79 370.68 133.84C373.21 138.9 376.71 142.79 381.09 145.51C385.27 148.23 390.23 149.6 395.78 149.6H395.77Z" fill="white"/>
<path d="M519.89 173.63C509 173.63 499.17 171.2 490.42 166.43C481.57 161.66 474.66 154.85 469.6 146.1C464.54 137.35 462.01 127.33 462.01 116.04C462.01 104.75 464.54 94.83 469.5 86.08C474.46 77.33 481.46 70.42 490.22 65.56C499.07 60.6 508.99 58.17 520.08 58.17C531.17 58.17 541.09 60.6 549.85 65.56C558.6 70.42 565.51 77.33 570.47 86.08C575.43 94.83 577.96 104.85 577.96 116.14C577.96 127.43 575.43 137.35 570.37 146.1C565.31 154.85 558.41 161.66 549.65 166.53C540.8 171.2 530.88 173.63 519.88 173.63H519.89ZM519.89 149.6C525.43 149.6 530.4 148.24 534.77 145.51C539.15 142.79 542.65 138.9 545.28 133.84C547.81 128.78 549.17 122.85 549.17 116.04C549.17 109.23 547.91 103.39 545.38 98.24C542.85 93.18 539.35 89.19 534.97 86.47C530.59 83.75 525.53 82.29 519.99 82.29C514.45 82.29 509.48 83.65 505.11 86.47C500.73 89.19 497.23 93.18 494.7 98.24C492.17 103.3 490.91 109.33 490.91 116.14C490.91 122.95 492.17 128.79 494.8 133.84C497.33 138.9 500.83 142.79 505.21 145.51C509.39 148.23 514.35 149.6 519.9 149.6H519.89Z" fill="white"/>
<path d="M637.29 172.95C628.05 172.95 620.66 171.49 615.31 168.57C609.86 165.65 606.07 161.66 603.93 156.8C601.69 151.84 600.62 146 600.62 139.29V82.97H581.07V60.31H600.62V32.59H629.12V60.31H654.8V82.88H629.12V137.74C629.12 141.53 630.29 144.45 632.62 146.49C634.95 148.53 638.75 149.51 644 149.51C647.31 149.51 650.81 149.12 654.51 148.44V170.23C649.16 172.08 643.42 172.95 637.29 172.95V172.95Z" fill="white"/>
<path d="M708.88 173.73C696.62 173.73 686.41 171.01 678.24 165.56C670.07 160.11 664.52 152.33 661.61 142.12L684.96 134.24C686.91 139.98 689.92 144.45 693.91 147.57C697.9 150.68 702.86 152.24 708.6 152.24C714.34 152.24 718.81 151.17 721.83 149.13C724.85 147.09 726.3 144.27 726.3 140.96C726.3 138.24 725.62 136 724.26 134.44C722.9 132.79 720.56 131.42 717.35 130.16C714.14 128.99 709.47 127.73 703.54 126.37C694.2 124.33 686.81 121.99 681.46 119.37C676.11 116.74 672.12 113.44 669.59 109.25C667.06 105.07 665.7 99.91 665.7 93.49C665.7 86.39 667.55 80.26 671.15 74.91C674.75 69.56 679.9 65.47 686.71 62.46C693.52 59.54 701.3 58.08 710.15 58.08C717.93 58.08 724.84 59.15 730.87 61.39C736.9 63.63 741.76 66.93 745.66 71.31C749.55 75.69 752.27 81.04 753.73 87.26L730.58 95.04C728.93 90.18 726.3 86.38 722.9 83.56C719.4 80.84 715.22 79.38 710.35 79.38C706.95 79.38 704.03 79.77 701.5 80.64C698.97 81.52 697.03 82.78 695.66 84.43C694.3 86.08 693.62 88.03 693.62 90.27C693.62 92.8 694.2 94.84 695.47 96.3C696.64 97.76 698.87 99.02 701.99 100.09C705.1 101.16 709.67 102.33 715.61 103.59C725.43 105.73 733.22 108.06 738.76 110.69C744.3 113.22 748.49 116.62 751.11 120.71C753.74 124.89 755.1 130.15 755.1 136.76C755.1 144.25 753.35 150.67 749.75 156.21C746.15 161.66 740.9 165.94 733.99 169.05C727.08 172.16 718.72 173.72 708.89 173.72L708.88 173.73Z" fill="white"/>
<path d="M815.2 172.95C805.96 172.95 798.57 171.49 793.22 168.57C787.77 165.65 783.98 161.66 781.84 156.8C779.6 151.84 778.53 146 778.53 139.29V82.97H758.98V60.31H778.53V32.59H807.03V60.31H832.71V82.88H807.03V137.74C807.03 141.53 808.2 144.45 810.53 146.49C812.86 148.53 816.66 149.51 821.91 149.51C825.22 149.51 828.72 149.12 832.42 148.44V170.23C827.07 172.08 821.33 172.95 815.2 172.95V172.95Z" fill="white"/>
<path d="M897.49 173.63C886.6 173.63 876.77 171.2 868.02 166.43C859.17 161.66 852.26 154.85 847.2 146.1C842.14 137.35 839.61 127.33 839.61 116.04C839.61 104.75 842.14 94.83 847.1 86.08C852.06 77.33 859.06 70.42 867.82 65.56C876.67 60.6 886.59 58.17 897.68 58.17C908.77 58.17 918.69 60.6 927.45 65.56C936.2 70.42 943.11 77.33 948.07 86.08C953.03 94.83 955.56 104.85 955.56 116.14C955.56 127.43 953.03 137.35 947.97 146.1C942.91 154.85 936.01 161.66 927.25 166.53C918.4 171.2 908.57 173.63 897.48 173.63H897.49ZM897.49 149.6C903.03 149.6 908 148.24 912.37 145.51C916.75 142.79 920.25 138.9 922.88 133.84C925.41 128.78 926.77 122.85 926.77 116.04C926.77 109.23 925.51 103.39 922.98 98.24C920.45 93.18 916.95 89.19 912.57 86.47C908.19 83.75 903.13 82.29 897.59 82.29C892.05 82.29 887.08 83.65 882.71 86.47C878.33 89.19 874.83 93.18 872.3 98.24C869.77 103.3 868.51 109.33 868.51 116.14C868.51 122.95 869.77 128.79 872.4 133.84C874.93 138.9 878.43 142.79 882.81 145.51C887.09 148.23 891.95 149.6 897.5 149.6H897.49Z" fill="white"/>
<path d="M1024.14 173.73C1013.83 173.73 1004.3 171.59 995.54 167.21C986.69 162.83 979.68 156.32 974.33 147.66C968.98 139 966.35 128.59 966.35 116.53C966.35 104.47 968.88 94.25 974.03 85.4C979.19 76.55 986.09 69.84 994.85 65.07C1003.6 60.3 1013.33 57.97 1023.93 57.97C1032.68 57.97 1040.56 59.62 1047.57 62.93C1054.57 66.24 1060.51 70.71 1065.18 76.45C1069.85 82.19 1073.25 88.71 1075.2 96L1050.59 103.1C1049.42 99.01 1047.57 95.42 1045.24 92.3C1042.91 89.19 1039.99 86.66 1036.58 84.81C1033.18 82.96 1029.19 82.09 1024.81 82.09C1018.97 82.09 1013.72 83.55 1009.15 86.37C1004.58 89.19 1000.98 93.18 998.45 98.33C995.92 103.49 994.56 109.42 994.56 116.03C994.56 122.64 995.92 128.87 998.65 133.93C1001.37 138.99 1005.07 142.88 1009.64 145.51C1014.21 148.14 1019.17 149.5 1024.62 149.5C1029 149.5 1032.89 148.62 1036.39 146.87C1039.89 145.12 1042.81 142.69 1045.24 139.77C1047.67 136.75 1049.52 133.45 1050.78 129.85L1075.29 137.15C1073.54 143.67 1070.43 149.7 1065.95 155.34C1061.48 160.88 1055.64 165.36 1048.44 168.76C1041.34 171.97 1033.27 173.72 1024.12 173.72L1024.14 173.73Z" fill="white"/>
<path d="M1089.22 171.2V26.94H1117.72V104.57L1162.46 60.31H1195.44L1147.78 106.42L1195.15 171.2H1161.88L1127.54 123.73L1117.62 133.07V171.2H1089.22V171.2Z" fill="white"/>
<path d="M88.2899 53.7C103.119 53.7 115.14 41.6788 115.14 26.85C115.14 12.0212 103.119 0 88.2899 0C73.4611 0 61.4399 12.0212 61.4399 26.85C61.4399 41.6788 73.4611 53.7 88.2899 53.7Z" fill="white"/>
<path d="M162.9 109.82C150.06 102.43 133.62 106.8 126.23 119.64C123.7 124.02 122.53 128.88 122.63 133.65C122.92 145.52 112.22 151.65 102.11 145.52C101.72 145.33 101.33 145.03 100.85 144.84C90.64 139.1 90.64 126.94 100.85 121.3C109.22 116.73 114.95 107.88 114.95 97.66V97.08C114.66 85.21 125.36 79.08 135.47 85.21C143.54 90.17 154.05 90.56 162.8 85.5C175.64 78.11 180.02 61.67 172.62 48.83C165.23 35.99 148.79 31.61 135.95 39.01C127.2 44.07 122.33 53.41 122.53 62.84C122.82 74.71 112.12 80.84 102.1 74.71C98.01 72.18 93.25 70.72 88.09 70.72C82.93 70.72 78.17 72.18 74.08 74.61C63.96 80.64 53.36 74.51 53.65 62.74C53.84 53.21 48.98 43.97 40.23 38.91C27.39 31.52 10.95 35.99 3.56001 48.83C-3.82999 61.67 0.640009 78.11 13.48 85.5C22.23 90.56 32.74 90.07 40.81 85.21C50.93 79.08 61.53 85.21 61.24 97.08V97.66C61.24 107.87 66.88 116.73 75.34 121.3C85.55 127.04 85.55 139.2 75.34 144.84C74.95 145.03 74.56 145.33 74.17 145.52C64.05 151.55 53.45 145.42 53.74 133.65C53.84 128.88 52.67 124.02 50.14 119.55C42.75 106.71 26.31 102.33 13.47 109.73C0.65001 117.31 -3.72999 133.75 3.67001 146.59C11.06 159.43 27.5 163.81 40.34 156.41C40.53 156.31 40.63 156.22 40.83 156.12C50.95 149.99 61.55 156.12 61.26 167.99V168.67C61.26 183.46 73.32 195.52 88.11 195.52C102.9 195.52 114.96 183.46 114.96 168.67V168.09C114.67 156.22 125.37 150.09 135.48 156.22C135.67 156.32 135.87 156.41 136.06 156.61C148.9 164 165.34 159.63 172.73 146.79C180.12 133.66 175.75 117.22 162.91 109.83L162.9 109.82Z" fill="white"/>
</g>
<defs>
<clipPath id="clip0_42_27">
<rect width="1195.44" height="195.52" fill="white"/>
</clipPath>
</defs>
</svg>
