<?xml version="1.0" encoding="UTF-8"?><svg id="Layer_2" xmlns="http://www.w3.org/2000/svg" viewBox="0 0 1195.44 195.52"><defs><style>.cls-1{fill:#ff9100;}.cls-2{isolation:isolate;}</style></defs><g id="Layer_1-2"><g id="Layer_1-2"><g><g class="cls-2"><path class="cls-1" d="M216.98,171.2V26.94h60.41c10.7,0,19.84,1.65,27.24,4.96,7.39,3.31,13.03,7.88,16.83,13.72,3.79,5.84,5.64,12.65,5.64,20.43,0,6.03-1.07,11.38-3.31,16.24-2.24,4.86-5.54,8.85-10.02,12.16-4.47,3.31-9.82,5.54-16.24,6.81v1.26c4.86,1.17,8.95,3.11,12.26,5.84,3.31,2.72,6.03,6.03,8.17,9.82,2.24,3.89,4.18,8.56,5.93,14.2l12.35,38.71h-30.74l-10.89-34.43c-1.56-5.54-3.4-9.82-5.54-12.94-2.14-3.11-4.86-5.35-8.37-6.71-3.5-1.36-7.98-2.14-13.62-2.14h-20.04v56.13h-30.06v.19Zm55.25-79.37c5.06,0,9.44-.78,13.23-2.24,3.7-1.46,6.61-3.79,8.66-6.91,2.04-3.11,3.11-7,3.11-11.48s-1.07-8.37-3.11-11.38c-2.04-3.02-4.96-5.25-8.66-6.61-3.7-1.36-8.17-2.14-13.23-2.14h-25.19v40.85h25.19v-.1Z"/></g><g class="cls-2"><path class="cls-1" d="M395.77,173.63c-10.89,0-20.72-2.43-29.47-7.2-8.85-4.77-15.76-11.58-20.82-20.33-5.06-8.75-7.59-18.77-7.59-30.06s2.53-21.21,7.49-29.96c4.96-8.75,11.96-15.66,20.72-20.52,8.85-4.96,18.77-7.39,29.86-7.39s21.01,2.43,29.77,7.39c8.75,4.86,15.66,11.77,20.62,20.52,4.96,8.75,7.49,18.77,7.49,30.06s-2.53,21.21-7.59,29.96c-5.06,8.75-11.96,15.56-20.72,20.43-8.85,4.67-18.77,7.1-29.77,7.1Zm0-24.03c5.54,0,10.51-1.36,14.88-4.09,4.38-2.72,7.88-6.61,10.51-11.67,2.53-5.06,3.89-10.99,3.89-17.8s-1.26-12.65-3.79-17.8c-2.53-5.06-6.03-9.05-10.41-11.77-4.38-2.72-9.44-4.18-14.98-4.18s-10.51,1.36-14.88,4.18c-4.38,2.72-7.88,6.71-10.41,11.77-2.53,5.06-3.79,11.09-3.79,17.9s1.26,12.65,3.89,17.7c2.53,5.06,6.03,8.95,10.41,11.67,4.18,2.72,9.14,4.09,14.69,4.09Z"/></g><g class="cls-2"><path class="cls-1" d="M519.89,173.63c-10.89,0-20.72-2.43-29.47-7.2-8.85-4.77-15.76-11.58-20.82-20.33-5.06-8.75-7.59-18.77-7.59-30.06s2.53-21.21,7.49-29.96c4.96-8.75,11.96-15.66,20.72-20.52,8.85-4.96,18.77-7.39,29.86-7.39s21.01,2.43,29.77,7.39c8.75,4.86,15.66,11.77,20.62,20.52,4.96,8.75,7.49,18.77,7.49,30.06s-2.53,21.21-7.59,29.96c-5.06,8.75-11.96,15.56-20.72,20.43-8.85,4.67-18.77,7.1-29.77,7.1Zm0-24.03c5.54,0,10.51-1.36,14.88-4.09,4.38-2.72,7.88-6.61,10.51-11.67,2.53-5.06,3.89-10.99,3.89-17.8s-1.26-12.65-3.79-17.8c-2.53-5.06-6.03-9.05-10.41-11.77-4.38-2.72-9.44-4.18-14.98-4.18s-10.51,1.36-14.88,4.18c-4.38,2.72-7.88,6.71-10.41,11.77-2.53,5.06-3.79,11.09-3.79,17.9s1.26,12.65,3.89,17.7c2.53,5.06,6.03,8.95,10.41,11.67,4.18,2.72,9.14,4.09,14.69,4.09Z"/></g><g class="cls-2"><path class="cls-1" d="M637.29,172.95c-9.24,0-16.63-1.46-21.98-4.38-5.45-2.92-9.24-6.91-11.38-11.77-2.24-4.96-3.31-10.8-3.31-17.51v-56.32h-19.55v-22.66h19.55v-27.72h28.5v27.72h25.68v22.57h-25.68v54.86c0,3.79,1.17,6.71,3.5,8.75,2.33,2.04,6.13,3.02,11.38,3.02,3.31,0,6.81-.39,10.51-1.07v21.79c-5.35,1.85-11.09,2.72-17.22,2.72Z"/><path class="cls-1" d="M708.88,173.73c-12.26,0-22.47-2.72-30.64-8.17-8.17-5.45-13.72-13.23-16.63-23.44l23.35-7.88c1.95,5.74,4.96,10.21,8.95,13.33,3.99,3.11,8.95,4.67,14.69,4.67s10.21-1.07,13.23-3.11c3.02-2.04,4.47-4.86,4.47-8.17,0-2.72-.68-4.96-2.04-6.52-1.36-1.65-3.7-3.02-6.91-4.28-3.21-1.17-7.88-2.43-13.81-3.79-9.34-2.04-16.73-4.38-22.08-7-5.35-2.63-9.34-5.93-11.87-10.12-2.53-4.18-3.89-9.34-3.89-15.76,0-7.1,1.85-13.23,5.45-18.58,3.6-5.35,8.75-9.44,15.56-12.45,6.81-2.92,14.59-4.38,23.44-4.38,7.78,0,14.69,1.07,20.72,3.31,6.03,2.24,10.89,5.54,14.79,9.92,3.89,4.38,6.61,9.73,8.07,15.95l-23.15,7.78c-1.65-4.86-4.28-8.66-7.68-11.48-3.5-2.72-7.68-4.18-12.55-4.18-3.4,0-6.32,.39-8.85,1.26-2.53,.88-4.47,2.14-5.84,3.79-1.36,1.65-2.04,3.6-2.04,5.84,0,2.53,.58,4.57,1.85,6.03,1.17,1.46,3.4,2.72,6.52,3.79,3.11,1.07,7.68,2.24,13.62,3.5,9.82,2.14,17.61,4.47,23.15,7.1,5.54,2.53,9.73,5.93,12.35,10.02,2.63,4.18,3.99,9.44,3.99,16.05,0,7.49-1.75,13.91-5.35,19.45-3.6,5.45-8.85,9.73-15.76,12.84-6.91,3.11-15.27,4.67-25.1,4.67Z"/></g><g class="cls-2"><path class="cls-1" d="M815.2,172.95c-9.24,0-16.63-1.46-21.98-4.38-5.45-2.92-9.24-6.91-11.38-11.77-2.24-4.96-3.31-10.8-3.31-17.51v-56.32h-19.55v-22.66h19.55v-27.72h28.5v27.72h25.68v22.57h-25.68v54.86c0,3.79,1.17,6.71,3.5,8.75,2.33,2.04,6.13,3.02,11.38,3.02,3.31,0,6.81-.39,10.51-1.07v21.79c-5.35,1.85-11.09,2.72-17.22,2.72Z"/></g><g class="cls-2"><path class="cls-1" d="M897.49,173.63c-10.89,0-20.72-2.43-29.47-7.2-8.85-4.77-15.76-11.58-20.82-20.33-5.06-8.75-7.59-18.77-7.59-30.06s2.53-21.21,7.49-29.96c4.96-8.75,11.96-15.66,20.72-20.52,8.85-4.96,18.77-7.39,29.86-7.39s21.01,2.43,29.77,7.39c8.75,4.86,15.66,11.77,20.62,20.52,4.96,8.75,7.49,18.77,7.49,30.06s-2.53,21.21-7.59,29.96c-5.06,8.75-11.96,15.56-20.72,20.43-8.85,4.67-18.68,7.1-29.77,7.1Zm0-24.03c5.54,0,10.51-1.36,14.88-4.09,4.38-2.72,7.88-6.61,10.51-11.67,2.53-5.06,3.89-10.99,3.89-17.8s-1.26-12.65-3.79-17.8c-2.53-5.06-6.03-9.05-10.41-11.77-4.38-2.72-9.44-4.18-14.98-4.18s-10.51,1.36-14.88,4.18c-4.38,2.72-7.88,6.71-10.41,11.77-2.53,5.06-3.79,11.09-3.79,17.9s1.26,12.65,3.89,17.7c2.53,5.06,6.03,8.95,10.41,11.67,4.28,2.72,9.14,4.09,14.69,4.09Z"/><path class="cls-1" d="M1024.14,173.73c-10.31,0-19.84-2.14-28.6-6.52-8.85-4.38-15.86-10.89-21.21-19.55-5.35-8.66-7.98-19.07-7.98-31.13s2.53-22.28,7.68-31.13c5.16-8.85,12.06-15.56,20.82-20.33,8.75-4.77,18.48-7.1,29.08-7.1,8.75,0,16.63,1.65,23.64,4.96,7,3.31,12.94,7.78,17.61,13.52,4.67,5.74,8.07,12.26,10.02,19.55l-24.61,7.1c-1.17-4.09-3.02-7.68-5.35-10.8-2.33-3.11-5.25-5.64-8.66-7.49-3.4-1.85-7.39-2.72-11.77-2.72-5.84,0-11.09,1.46-15.66,4.28-4.57,2.82-8.17,6.81-10.7,11.96-2.53,5.16-3.89,11.09-3.89,17.7s1.36,12.84,4.09,17.9c2.72,5.06,6.42,8.95,10.99,11.58,4.57,2.63,9.53,3.99,14.98,3.99,4.38,0,8.27-.88,11.77-2.63,3.5-1.75,6.42-4.18,8.85-7.1,2.43-3.02,4.28-6.32,5.54-9.92l24.51,7.3c-1.75,6.52-4.86,12.55-9.34,18.19-4.47,5.54-10.31,10.02-17.51,13.42-7.1,3.21-15.17,4.96-24.32,4.96Z"/><path class="cls-1" d="M1089.22,171.2V26.94h28.5V104.57l44.74-44.26h32.98l-47.66,46.11,47.37,64.78h-33.27l-34.34-47.47-9.92,9.34v38.13h-28.4Z"/></g><circle class="cls-1" cx="88.29" cy="26.85" r="26.85"/><path class="cls-1" d="M162.9,109.82c-12.84-7.39-29.28-3.02-36.67,9.82-2.53,4.38-3.7,9.24-3.6,14.01h0c.29,11.87-10.41,18-20.52,11.87-.39-.19-.78-.49-1.26-.68-10.21-5.74-10.21-17.9,0-23.54,8.37-4.57,14.1-13.42,14.1-23.64v-.58h0c-.29-11.87,10.41-18,20.52-11.87h0c8.07,4.96,18.58,5.35,27.33,.29,12.84-7.39,17.22-23.83,9.82-36.67-7.39-12.84-23.83-17.22-36.67-9.82-8.75,5.06-13.62,14.4-13.42,23.83h0c.29,11.87-10.41,18-20.43,11.87-4.09-2.53-8.85-3.99-14.01-3.99s-9.92,1.46-14.01,3.89c-10.12,6.03-20.72-.1-20.43-11.87h0c.19-9.53-4.67-18.77-13.42-23.83-12.84-7.39-29.28-2.92-36.67,9.92-7.39,12.84-2.92,29.28,9.92,36.67,8.75,5.06,19.26,4.57,27.33-.29h0c10.12-6.13,20.72,0,20.43,11.87h0v.58c0,10.21,5.64,19.07,14.1,23.64,10.21,5.74,10.21,17.9,0,23.54-.39,.19-.78,.49-1.17,.68-10.12,6.03-20.72-.1-20.43-11.87h0c.1-4.77-1.07-9.63-3.6-14.1-7.39-12.84-23.83-17.22-36.67-9.82C.65,117.31-3.73,133.75,3.67,146.59c7.39,12.84,23.83,17.22,36.67,9.82,.19-.1,.29-.19,.49-.29h0c10.12-6.13,20.72,0,20.43,11.87h0v.68c0,14.79,12.06,26.85,26.85,26.85s26.85-12.06,26.85-26.85v-.58h0c-.29-11.87,10.41-18,20.52-11.87h0c.19,.1,.39,.19,.58,.39,12.84,7.39,29.28,3.02,36.67-9.82,7.39-13.13,3.02-29.57-9.82-36.96h0Z"/></g></g></g></svg>